<mxfile host="app.diagrams.net" modified="2023-04-17T23:20:11.986Z" agent="Mozilla/5.0 (Windows NT 10.0; Win64; x64) AppleWebKit/537.36 (KHTML, like Gecko) Chrome/112.0.0.0 Safari/537.36" etag="afaqermLyn2ZOkbNEgLw" version="21.1.8" type="github">
  <diagram name="페이지-1" id="rjQ-HQcAYjgOgRgcmTRV">
    <mxGraphModel dx="4151" dy="3280" grid="1" gridSize="10" guides="1" tooltips="1" connect="1" arrows="1" fold="1" page="1" pageScale="1" pageWidth="827" pageHeight="1169" math="0" shadow="0">
      <root>
        <mxCell id="0" />
        <mxCell id="1" parent="0" />
        <mxCell id="bpu4daQ8uGptTEx4mdCb-1" value="" style="line;strokeWidth=1;fillColor=none;align=left;verticalAlign=middle;spacingTop=-1;spacingLeft=3;spacingRight=3;rotatable=0;labelPosition=right;points=[];portConstraint=eastwest;strokeColor=inherit;fontSize=13;" vertex="1" parent="1">
          <mxGeometry x="-2110" y="-870" width="4210" height="8" as="geometry" />
        </mxCell>
        <mxCell id="bpu4daQ8uGptTEx4mdCb-2" value="" style="line;strokeWidth=1;fillColor=none;align=left;verticalAlign=middle;spacingTop=-1;spacingLeft=3;spacingRight=3;rotatable=0;labelPosition=right;points=[];portConstraint=eastwest;strokeColor=inherit;fontSize=13;" vertex="1" parent="1">
          <mxGeometry x="-2090" y="280" width="4240" height="8" as="geometry" />
        </mxCell>
        <mxCell id="bpu4daQ8uGptTEx4mdCb-3" value="" style="ellipse;html=1;shape=startState;fillColor=#000000;strokeColor=#ff0000;fontSize=13;" vertex="1" parent="1">
          <mxGeometry x="-571" y="-1535" width="30" height="30" as="geometry" />
        </mxCell>
        <mxCell id="bpu4daQ8uGptTEx4mdCb-4" value="" style="ellipse;html=1;shape=endState;fillColor=#000000;strokeColor=#ff0000;fontSize=13;" vertex="1" parent="1">
          <mxGeometry x="-574" y="370" width="30" height="30" as="geometry" />
        </mxCell>
        <mxCell id="bpu4daQ8uGptTEx4mdCb-5" value="" style="group;fontSize=13;" vertex="1" connectable="0" parent="1">
          <mxGeometry x="371" y="-828.15" width="206.12000000000003" height="108.15000000000009" as="geometry" />
        </mxCell>
        <mxCell id="bpu4daQ8uGptTEx4mdCb-6" value="" style="group;fontSize=13;" vertex="1" connectable="0" parent="bpu4daQ8uGptTEx4mdCb-5">
          <mxGeometry x="17.77" y="-10" width="188.35000000000002" height="88.14999999999998" as="geometry" />
        </mxCell>
        <mxCell id="bpu4daQ8uGptTEx4mdCb-7" value="" style="group;fontSize=13;" vertex="1" connectable="0" parent="bpu4daQ8uGptTEx4mdCb-6">
          <mxGeometry x="-15.03912488022996" y="-3.8490046784698646" width="203.38912488022993" height="48.43207045225209" as="geometry" />
        </mxCell>
        <mxCell id="bpu4daQ8uGptTEx4mdCb-8" value="receive start anomaly &lt;br style=&quot;font-size: 13px;&quot;&gt;detection system" style="rounded=0;whiteSpace=wrap;html=1;fontSize=13;" vertex="1" parent="bpu4daQ8uGptTEx4mdCb-7">
          <mxGeometry x="15.0375" y="3.85" width="172.4625" height="41.59" as="geometry" />
        </mxCell>
        <mxCell id="bpu4daQ8uGptTEx4mdCb-9" value="" style="triangle;whiteSpace=wrap;html=1;fontSize=13;" vertex="1" parent="bpu4daQ8uGptTEx4mdCb-7">
          <mxGeometry x="15.400075802798298" y="4.542111325158752" width="30.079243547361724" height="40.89329215464433" as="geometry" />
        </mxCell>
        <mxCell id="bpu4daQ8uGptTEx4mdCb-10" value="" style="line;strokeWidth=2;direction=south;html=1;perimeter=backbonePerimeter;points=[];outlineConnect=0;strokeColor=#ffffff;fontSize=13;" vertex="1" parent="bpu4daQ8uGptTEx4mdCb-7">
          <mxGeometry width="30.07824976045992" height="48.43207045225209" as="geometry" />
        </mxCell>
        <mxCell id="bpu4daQ8uGptTEx4mdCb-11" value="manufacturing plant profile change?" style="text;html=1;strokeColor=none;fillColor=none;align=center;verticalAlign=middle;whiteSpace=wrap;rounded=0;fontSize=13;" vertex="1" parent="bpu4daQ8uGptTEx4mdCb-6">
          <mxGeometry x="-42.769999999999996" y="51.12" width="125.47" height="30" as="geometry" />
        </mxCell>
        <mxCell id="bpu4daQ8uGptTEx4mdCb-12" value="Y" style="text;html=1;strokeColor=none;fillColor=none;align=center;verticalAlign=middle;whiteSpace=wrap;rounded=0;fontSize=13;" vertex="1" parent="bpu4daQ8uGptTEx4mdCb-6">
          <mxGeometry x="97.23" y="58.14999999999998" width="20" height="30" as="geometry" />
        </mxCell>
        <mxCell id="bpu4daQ8uGptTEx4mdCb-13" value="" style="rhombus;whiteSpace=wrap;html=1;fontSize=13;" vertex="1" parent="bpu4daQ8uGptTEx4mdCb-5">
          <mxGeometry x="94.00000000000001" y="58.15000000000002" width="20" height="30" as="geometry" />
        </mxCell>
        <mxCell id="bpu4daQ8uGptTEx4mdCb-14" value="" style="html=1;verticalAlign=bottom;endArrow=block;edgeStyle=elbowEdgeStyle;elbow=vertical;curved=0;rounded=0;entryX=0.5;entryY=0;entryDx=0;entryDy=0;exitX=0.5;exitY=1;exitDx=0;exitDy=0;fontSize=13;" edge="1" parent="bpu4daQ8uGptTEx4mdCb-5" source="bpu4daQ8uGptTEx4mdCb-8" target="bpu4daQ8uGptTEx4mdCb-13">
          <mxGeometry x="-0.0024" width="80" relative="1" as="geometry">
            <mxPoint x="109" y="312.15" as="sourcePoint" />
            <mxPoint x="109" y="344.15" as="targetPoint" />
            <mxPoint as="offset" />
          </mxGeometry>
        </mxCell>
        <mxCell id="bpu4daQ8uGptTEx4mdCb-15" value="N" style="text;html=1;strokeColor=none;fillColor=none;align=center;verticalAlign=middle;whiteSpace=wrap;rounded=0;fontSize=13;" vertex="1" parent="bpu4daQ8uGptTEx4mdCb-5">
          <mxGeometry x="85" y="78.15000000000009" width="20" height="30" as="geometry" />
        </mxCell>
        <mxCell id="bpu4daQ8uGptTEx4mdCb-16" value="is plant registerd?" style="text;strokeColor=none;fillColor=none;align=left;verticalAlign=middle;spacingLeft=4;spacingRight=4;overflow=hidden;points=[[0,0.5],[1,0.5]];portConstraint=eastwest;rotatable=0;whiteSpace=wrap;html=1;fontSize=13;" vertex="1" parent="1">
          <mxGeometry x="-541" y="-1415" width="145" height="30" as="geometry" />
        </mxCell>
        <mxCell id="bpu4daQ8uGptTEx4mdCb-17" value="initialize" style="html=1;whiteSpace=wrap;fontSize=13;" vertex="1" parent="1">
          <mxGeometry x="-611" y="-1475" width="110" height="30" as="geometry" />
        </mxCell>
        <mxCell id="bpu4daQ8uGptTEx4mdCb-18" value="" style="rhombus;whiteSpace=wrap;html=1;fontSize=13;" vertex="1" parent="1">
          <mxGeometry x="-566" y="-1415" width="20" height="30" as="geometry" />
        </mxCell>
        <mxCell id="bpu4daQ8uGptTEx4mdCb-19" value="" style="html=1;verticalAlign=bottom;endArrow=block;edgeStyle=elbowEdgeStyle;elbow=vertical;curved=0;rounded=0;exitX=0.5;exitY=1;exitDx=0;exitDy=0;entryX=0.5;entryY=0;entryDx=0;entryDy=0;fontSize=13;" edge="1" parent="1" source="bpu4daQ8uGptTEx4mdCb-17" target="bpu4daQ8uGptTEx4mdCb-18">
          <mxGeometry x="-0.0024" width="80" relative="1" as="geometry">
            <mxPoint x="-734.0000000000001" y="-1131" as="sourcePoint" />
            <mxPoint x="-641.0000000000001" y="-1265" as="targetPoint" />
            <mxPoint as="offset" />
          </mxGeometry>
        </mxCell>
        <mxCell id="bpu4daQ8uGptTEx4mdCb-20" value="" style="html=1;verticalAlign=bottom;endArrow=block;edgeStyle=elbowEdgeStyle;elbow=vertical;curved=0;rounded=0;exitX=0.5;exitY=1;exitDx=0;exitDy=0;entryX=0.5;entryY=0;entryDx=0;entryDy=0;fontSize=13;" edge="1" parent="1" source="bpu4daQ8uGptTEx4mdCb-3" target="bpu4daQ8uGptTEx4mdCb-17">
          <mxGeometry x="-0.0024" width="80" relative="1" as="geometry">
            <mxPoint x="-546" y="-1435" as="sourcePoint" />
            <mxPoint x="-546" y="-1405" as="targetPoint" />
            <mxPoint as="offset" />
          </mxGeometry>
        </mxCell>
        <mxCell id="bpu4daQ8uGptTEx4mdCb-21" value="receive manufacturing plant register form" style="html=1;whiteSpace=wrap;fontSize=13;" vertex="1" parent="1">
          <mxGeometry x="-820.0000000000001" y="-1415" width="160" height="40" as="geometry" />
        </mxCell>
        <mxCell id="bpu4daQ8uGptTEx4mdCb-22" value="" style="html=1;verticalAlign=bottom;endArrow=block;edgeStyle=elbowEdgeStyle;elbow=vertical;curved=0;rounded=0;exitX=0;exitY=0.5;exitDx=0;exitDy=0;fontSize=13;" edge="1" parent="1" source="bpu4daQ8uGptTEx4mdCb-18" target="bpu4daQ8uGptTEx4mdCb-21">
          <mxGeometry x="-0.0024" width="80" relative="1" as="geometry">
            <mxPoint x="-545" y="-1387" as="sourcePoint" />
            <mxPoint x="-640" y="-1420" as="targetPoint" />
            <mxPoint as="offset" />
            <Array as="points">
              <mxPoint x="-650" y="-1400" />
            </Array>
          </mxGeometry>
        </mxCell>
        <mxCell id="bpu4daQ8uGptTEx4mdCb-23" value="" style="rhombus;whiteSpace=wrap;html=1;fontSize=13;" vertex="1" parent="1">
          <mxGeometry x="-750.0000000000001" y="-1350" width="20" height="30" as="geometry" />
        </mxCell>
        <mxCell id="bpu4daQ8uGptTEx4mdCb-24" value="" style="html=1;verticalAlign=bottom;endArrow=block;edgeStyle=elbowEdgeStyle;elbow=vertical;curved=0;rounded=0;exitX=0.5;exitY=1;exitDx=0;exitDy=0;entryX=0.5;entryY=0;entryDx=0;entryDy=0;fontSize=13;" edge="1" parent="1" source="bpu4daQ8uGptTEx4mdCb-21" target="bpu4daQ8uGptTEx4mdCb-23">
          <mxGeometry x="-0.0024" width="80" relative="1" as="geometry">
            <mxPoint x="-605" y="-1385" as="sourcePoint" />
            <mxPoint x="-650" y="-1385" as="targetPoint" />
            <mxPoint as="offset" />
          </mxGeometry>
        </mxCell>
        <mxCell id="bpu4daQ8uGptTEx4mdCb-25" value="" style="html=1;verticalAlign=bottom;endArrow=block;edgeStyle=elbowEdgeStyle;elbow=vertical;curved=0;rounded=0;exitX=0;exitY=0.5;exitDx=0;exitDy=0;entryX=0;entryY=0.25;entryDx=0;entryDy=0;fontSize=13;" edge="1" parent="1" source="bpu4daQ8uGptTEx4mdCb-23" target="bpu4daQ8uGptTEx4mdCb-21">
          <mxGeometry x="-0.0024" width="80" relative="1" as="geometry">
            <mxPoint x="-730.0000000000001" y="-1365" as="sourcePoint" />
            <mxPoint x="-730.0000000000001" y="-1340" as="targetPoint" />
            <mxPoint as="offset" />
            <Array as="points">
              <mxPoint x="-860.0000000000001" y="-1340" />
              <mxPoint x="-790.0000000000001" y="-1340" />
            </Array>
          </mxGeometry>
        </mxCell>
        <mxCell id="bpu4daQ8uGptTEx4mdCb-26" value="is okay" style="text;html=1;strokeColor=none;fillColor=none;align=center;verticalAlign=middle;whiteSpace=wrap;rounded=0;fontSize=13;" vertex="1" parent="1">
          <mxGeometry x="-739.0000000000001" y="-1360" width="60" height="30" as="geometry" />
        </mxCell>
        <mxCell id="bpu4daQ8uGptTEx4mdCb-27" value="N" style="text;html=1;strokeColor=none;fillColor=none;align=center;verticalAlign=middle;whiteSpace=wrap;rounded=0;fontSize=13;" vertex="1" parent="1">
          <mxGeometry x="-790.0000000000001" y="-1360" width="60" height="30" as="geometry" />
        </mxCell>
        <mxCell id="bpu4daQ8uGptTEx4mdCb-28" value="Y" style="text;html=1;strokeColor=none;fillColor=none;align=center;verticalAlign=middle;whiteSpace=wrap;rounded=0;fontSize=13;" vertex="1" parent="1">
          <mxGeometry x="-790.0000000000001" y="-1340" width="60" height="30" as="geometry" />
        </mxCell>
        <mxCell id="bpu4daQ8uGptTEx4mdCb-29" value="register manufacturing plant" style="html=1;whiteSpace=wrap;fontSize=13;" vertex="1" parent="1">
          <mxGeometry x="-820" y="-1300" width="160" height="37" as="geometry" />
        </mxCell>
        <mxCell id="bpu4daQ8uGptTEx4mdCb-30" value="" style="html=1;verticalAlign=bottom;endArrow=block;edgeStyle=elbowEdgeStyle;elbow=vertical;curved=0;rounded=0;entryX=0.5;entryY=0;entryDx=0;entryDy=0;fontSize=13;" edge="1" parent="1" target="bpu4daQ8uGptTEx4mdCb-29">
          <mxGeometry x="-0.0024" width="80" relative="1" as="geometry">
            <mxPoint x="-740.0000000000001" y="-1320" as="sourcePoint" />
            <mxPoint x="-730.0000000000001" y="-1340" as="targetPoint" />
            <mxPoint as="offset" />
          </mxGeometry>
        </mxCell>
        <mxCell id="bpu4daQ8uGptTEx4mdCb-31" value="N" style="text;html=1;strokeColor=none;fillColor=none;align=center;verticalAlign=middle;whiteSpace=wrap;rounded=0;fontSize=13;" vertex="1" parent="1">
          <mxGeometry x="-588.77" y="-1420" width="35" height="25" as="geometry" />
        </mxCell>
        <mxCell id="bpu4daQ8uGptTEx4mdCb-32" value="" style="html=1;verticalAlign=bottom;endArrow=block;edgeStyle=elbowEdgeStyle;elbow=vertical;curved=0;rounded=0;fontSize=13;entryX=0.5;entryY=0;entryDx=0;entryDy=0;" edge="1" parent="1" target="bpu4daQ8uGptTEx4mdCb-420">
          <mxGeometry x="-0.0024" width="80" relative="1" as="geometry">
            <mxPoint x="-554" y="-1220" as="sourcePoint" />
            <mxPoint x="-552.27" y="-870" as="targetPoint" />
            <mxPoint as="offset" />
          </mxGeometry>
        </mxCell>
        <mxCell id="bpu4daQ8uGptTEx4mdCb-198" value="&amp;nbsp;Manager Profile Management" style="shape=note;whiteSpace=wrap;html=1;backgroundOutline=1;darkOpacity=0.05;align=left;size=14;fontSize=13;" vertex="1" parent="1">
          <mxGeometry x="-1512" y="-910" width="179" height="30" as="geometry" />
        </mxCell>
        <mxCell id="bpu4daQ8uGptTEx4mdCb-199" value="&amp;nbsp;Manager Profile Management" style="shape=note;whiteSpace=wrap;html=1;backgroundOutline=1;darkOpacity=0.05;align=left;size=14;fontSize=13;" vertex="1" parent="1">
          <mxGeometry x="-1712" y="-910" width="179" height="30" as="geometry" />
        </mxCell>
        <mxCell id="bpu4daQ8uGptTEx4mdCb-200" value="&amp;nbsp;hw device Management" style="shape=note;whiteSpace=wrap;html=1;backgroundOutline=1;darkOpacity=0.05;align=left;size=14;fontSize=13;" vertex="1" parent="1">
          <mxGeometry x="-1313" y="-910" width="150" height="30" as="geometry" />
        </mxCell>
        <mxCell id="bpu4daQ8uGptTEx4mdCb-201" value="&amp;nbsp;anomaly type Management" style="shape=note;whiteSpace=wrap;html=1;backgroundOutline=1;darkOpacity=0.05;align=left;size=14;fontSize=13;" vertex="1" parent="1">
          <mxGeometry x="-1143" y="-910" width="170" height="30" as="geometry" />
        </mxCell>
        <mxCell id="bpu4daQ8uGptTEx4mdCb-202" value="&amp;nbsp;remedy method Management" style="shape=note;whiteSpace=wrap;html=1;backgroundOutline=1;darkOpacity=0.05;align=left;size=14;fontSize=13;" vertex="1" parent="1">
          <mxGeometry x="-961" y="-910" width="180" height="30" as="geometry" />
        </mxCell>
        <mxCell id="bpu4daQ8uGptTEx4mdCb-210" value="Detecting Anomaly Occurrences" style="shape=note;whiteSpace=wrap;html=1;backgroundOutline=1;darkOpacity=0.05;align=left;size=14;fontSize=13;" vertex="1" parent="1">
          <mxGeometry x="793.85" y="-910" width="193.16" height="30" as="geometry" />
        </mxCell>
        <mxCell id="bpu4daQ8uGptTEx4mdCb-211" value="Remedying Anomaly Occurrences" style="shape=note;whiteSpace=wrap;html=1;backgroundOutline=1;darkOpacity=0.05;align=left;size=14;fontSize=13;" vertex="1" parent="1">
          <mxGeometry x="1599.04" y="-910" width="193.16" height="30" as="geometry" />
        </mxCell>
        <mxCell id="bpu4daQ8uGptTEx4mdCb-212" value="Generating Reports Management" style="shape=note;whiteSpace=wrap;html=1;backgroundOutline=1;darkOpacity=0.05;align=left;size=14;fontSize=13;" vertex="1" parent="1">
          <mxGeometry x="2033.3" y="-910" width="193.16" height="30" as="geometry" />
        </mxCell>
        <mxCell id="bpu4daQ8uGptTEx4mdCb-213" value="check hw device" style="html=1;whiteSpace=wrap;fontSize=13;" vertex="1" parent="1">
          <mxGeometry x="584.3499999999999" y="-485" width="130" height="30" as="geometry" />
        </mxCell>
        <mxCell id="bpu4daQ8uGptTEx4mdCb-214" value="check managed object" style="html=1;whiteSpace=wrap;fontSize=13;" vertex="1" parent="1">
          <mxGeometry x="584.3499999999999" y="-422.54999999999995" width="130" height="30" as="geometry" />
        </mxCell>
        <mxCell id="bpu4daQ8uGptTEx4mdCb-215" value="check aomaly type" style="html=1;whiteSpace=wrap;fontSize=13;" vertex="1" parent="1">
          <mxGeometry x="584.35" y="-367.59999999999997" width="130" height="30" as="geometry" />
        </mxCell>
        <mxCell id="bpu4daQ8uGptTEx4mdCb-216" value="" style="group;fontSize=13;" vertex="1" connectable="0" parent="1">
          <mxGeometry x="584" y="51" width="140" height="40" as="geometry" />
        </mxCell>
        <mxCell id="bpu4daQ8uGptTEx4mdCb-217" value="send start anomaly detection" style="rounded=0;whiteSpace=wrap;html=1;fontSize=13;" vertex="1" parent="bpu4daQ8uGptTEx4mdCb-216">
          <mxGeometry width="115.86206896551725" height="40" as="geometry" />
        </mxCell>
        <mxCell id="bpu4daQ8uGptTEx4mdCb-218" value="" style="endArrow=none;html=1;rounded=0;entryX=1;entryY=0;entryDx=0;entryDy=0;fontSize=13;" edge="1" parent="bpu4daQ8uGptTEx4mdCb-216" target="bpu4daQ8uGptTEx4mdCb-217">
          <mxGeometry width="50" height="50" relative="1" as="geometry">
            <mxPoint x="140" y="20" as="sourcePoint" />
            <mxPoint x="62.758620689655174" y="-13.333333333333336" as="targetPoint" />
          </mxGeometry>
        </mxCell>
        <mxCell id="bpu4daQ8uGptTEx4mdCb-219" value="" style="endArrow=none;html=1;rounded=0;entryX=1;entryY=1;entryDx=0;entryDy=0;fontSize=13;" edge="1" parent="bpu4daQ8uGptTEx4mdCb-216" target="bpu4daQ8uGptTEx4mdCb-217">
          <mxGeometry width="50" height="50" relative="1" as="geometry">
            <mxPoint x="140" y="20" as="sourcePoint" />
            <mxPoint x="123.58620689655173" y="6.666666666666668" as="targetPoint" />
          </mxGeometry>
        </mxCell>
        <mxCell id="bpu4daQ8uGptTEx4mdCb-220" value="" style="endArrow=none;html=1;rounded=0;entryX=1;entryY=0;entryDx=0;entryDy=0;strokeColor=#ffffff;exitX=1;exitY=0.935;exitDx=0;exitDy=0;exitPerimeter=0;strokeWidth=2;fontSize=13;" edge="1" parent="bpu4daQ8uGptTEx4mdCb-216">
          <mxGeometry width="50" height="50" relative="1" as="geometry">
            <mxPoint x="115.86206896551725" y="38.73333333333335" as="sourcePoint" />
            <mxPoint x="115.86206896551725" y="0.6666666666666667" as="targetPoint" />
          </mxGeometry>
        </mxCell>
        <mxCell id="bpu4daQ8uGptTEx4mdCb-221" value="data preprocessing" style="html=1;whiteSpace=wrap;fontSize=13;" vertex="1" parent="1">
          <mxGeometry x="825" y="-709.4499999999999" width="130" height="30" as="geometry" />
        </mxCell>
        <mxCell id="bpu4daQ8uGptTEx4mdCb-222" value="data preprocessing" style="html=1;whiteSpace=wrap;fontSize=13;" vertex="1" parent="1">
          <mxGeometry x="825" y="-651" width="130" height="30" as="geometry" />
        </mxCell>
        <mxCell id="bpu4daQ8uGptTEx4mdCb-223" value="" style="group;fontSize=13;" vertex="1" connectable="0" parent="1">
          <mxGeometry x="832" y="-590" width="140" height="40" as="geometry" />
        </mxCell>
        <mxCell id="bpu4daQ8uGptTEx4mdCb-224" value="send ML anomaly detection&amp;nbsp;" style="rounded=0;whiteSpace=wrap;html=1;fontSize=13;" vertex="1" parent="bpu4daQ8uGptTEx4mdCb-223">
          <mxGeometry width="115.86206896551725" height="40" as="geometry" />
        </mxCell>
        <mxCell id="bpu4daQ8uGptTEx4mdCb-225" value="" style="endArrow=none;html=1;rounded=0;entryX=1;entryY=0;entryDx=0;entryDy=0;fontSize=13;" edge="1" parent="bpu4daQ8uGptTEx4mdCb-223" target="bpu4daQ8uGptTEx4mdCb-224">
          <mxGeometry width="50" height="50" relative="1" as="geometry">
            <mxPoint x="140" y="20" as="sourcePoint" />
            <mxPoint x="62.758620689655174" y="-13.333333333333336" as="targetPoint" />
          </mxGeometry>
        </mxCell>
        <mxCell id="bpu4daQ8uGptTEx4mdCb-226" value="" style="endArrow=none;html=1;rounded=0;entryX=1;entryY=1;entryDx=0;entryDy=0;fontSize=13;" edge="1" parent="bpu4daQ8uGptTEx4mdCb-223" target="bpu4daQ8uGptTEx4mdCb-224">
          <mxGeometry width="50" height="50" relative="1" as="geometry">
            <mxPoint x="140" y="20" as="sourcePoint" />
            <mxPoint x="123.58620689655173" y="6.666666666666668" as="targetPoint" />
          </mxGeometry>
        </mxCell>
        <mxCell id="bpu4daQ8uGptTEx4mdCb-227" value="" style="endArrow=none;html=1;rounded=0;entryX=1;entryY=0;entryDx=0;entryDy=0;strokeColor=#ffffff;exitX=1;exitY=0.935;exitDx=0;exitDy=0;exitPerimeter=0;strokeWidth=2;fontSize=13;" edge="1" parent="bpu4daQ8uGptTEx4mdCb-223">
          <mxGeometry width="50" height="50" relative="1" as="geometry">
            <mxPoint x="115.86206896551725" y="38.73333333333335" as="sourcePoint" />
            <mxPoint x="115.86206896551725" y="0.6666666666666667" as="targetPoint" />
          </mxGeometry>
        </mxCell>
        <mxCell id="bpu4daQ8uGptTEx4mdCb-228" value="" style="group;fontSize=13;" vertex="1" connectable="0" parent="1">
          <mxGeometry x="832" y="-520" width="140" height="40" as="geometry" />
        </mxCell>
        <mxCell id="bpu4daQ8uGptTEx4mdCb-229" value="send statistical anomaly detection" style="rounded=0;whiteSpace=wrap;html=1;fontSize=13;" vertex="1" parent="bpu4daQ8uGptTEx4mdCb-228">
          <mxGeometry width="115.86206896551725" height="40" as="geometry" />
        </mxCell>
        <mxCell id="bpu4daQ8uGptTEx4mdCb-230" value="" style="endArrow=none;html=1;rounded=0;entryX=1;entryY=0;entryDx=0;entryDy=0;fontSize=13;" edge="1" parent="bpu4daQ8uGptTEx4mdCb-228" target="bpu4daQ8uGptTEx4mdCb-229">
          <mxGeometry width="50" height="50" relative="1" as="geometry">
            <mxPoint x="140" y="20" as="sourcePoint" />
            <mxPoint x="62.758620689655174" y="-13.333333333333336" as="targetPoint" />
          </mxGeometry>
        </mxCell>
        <mxCell id="bpu4daQ8uGptTEx4mdCb-231" value="" style="endArrow=none;html=1;rounded=0;entryX=1;entryY=1;entryDx=0;entryDy=0;fontSize=13;" edge="1" parent="bpu4daQ8uGptTEx4mdCb-228" target="bpu4daQ8uGptTEx4mdCb-229">
          <mxGeometry width="50" height="50" relative="1" as="geometry">
            <mxPoint x="140" y="20" as="sourcePoint" />
            <mxPoint x="123.58620689655173" y="6.666666666666668" as="targetPoint" />
          </mxGeometry>
        </mxCell>
        <mxCell id="bpu4daQ8uGptTEx4mdCb-232" value="" style="endArrow=none;html=1;rounded=0;entryX=1;entryY=0;entryDx=0;entryDy=0;strokeColor=#ffffff;exitX=1;exitY=0.935;exitDx=0;exitDy=0;exitPerimeter=0;strokeWidth=2;fontSize=13;" edge="1" parent="bpu4daQ8uGptTEx4mdCb-228">
          <mxGeometry width="50" height="50" relative="1" as="geometry">
            <mxPoint x="115.86206896551725" y="38.73333333333335" as="sourcePoint" />
            <mxPoint x="115.86206896551725" y="0.6666666666666667" as="targetPoint" />
          </mxGeometry>
        </mxCell>
        <mxCell id="bpu4daQ8uGptTEx4mdCb-233" value="" style="group;fontSize=13;" vertex="1" connectable="0" parent="1">
          <mxGeometry x="1101.04" y="-835.4599999999999" width="188.35000000000002" height="60" as="geometry" />
        </mxCell>
        <mxCell id="bpu4daQ8uGptTEx4mdCb-234" value="" style="group;fontSize=13;" vertex="1" connectable="0" parent="bpu4daQ8uGptTEx4mdCb-233">
          <mxGeometry x="-15.03912488022996" y="-3.8490046784698646" width="203.38912488022993" height="48.43207045225209" as="geometry" />
        </mxCell>
        <mxCell id="bpu4daQ8uGptTEx4mdCb-235" value="" style="line;strokeWidth=2;direction=south;html=1;perimeter=backbonePerimeter;points=[];outlineConnect=0;strokeColor=#ffffff;fontSize=13;" vertex="1" parent="bpu4daQ8uGptTEx4mdCb-234">
          <mxGeometry x="-100" width="30.07824976045992" height="48.43207045225209" as="geometry" />
        </mxCell>
        <mxCell id="bpu4daQ8uGptTEx4mdCb-236" value="" style="group;fontSize=13;" vertex="1" connectable="0" parent="bpu4daQ8uGptTEx4mdCb-234">
          <mxGeometry x="15.0375" y="3.7721113251587517" width="172.4625" height="41.66788867484125" as="geometry" />
        </mxCell>
        <mxCell id="bpu4daQ8uGptTEx4mdCb-237" value="receive ML &lt;br style=&quot;font-size: 13px;&quot;&gt;anomaly detection&amp;nbsp;" style="rounded=0;whiteSpace=wrap;html=1;fontSize=13;" vertex="1" parent="bpu4daQ8uGptTEx4mdCb-236">
          <mxGeometry y="0.0778886748412484" width="172.4625" height="41.59" as="geometry" />
        </mxCell>
        <mxCell id="bpu4daQ8uGptTEx4mdCb-238" value="" style="triangle;whiteSpace=wrap;html=1;fontSize=13;" vertex="1" parent="bpu4daQ8uGptTEx4mdCb-236">
          <mxGeometry x="0.002575802798299165" width="30.079243547361724" height="40.89329215464433" as="geometry" />
        </mxCell>
        <mxCell id="bpu4daQ8uGptTEx4mdCb-239" value="" style="group;fontSize=13;" vertex="1" connectable="0" parent="1">
          <mxGeometry x="1335.8600000000001" y="-835.4599999999999" width="188.35000000000002" height="60" as="geometry" />
        </mxCell>
        <mxCell id="bpu4daQ8uGptTEx4mdCb-240" value="" style="group;fontSize=13;" vertex="1" connectable="0" parent="bpu4daQ8uGptTEx4mdCb-239">
          <mxGeometry x="-15.03912488022996" y="-3.8490046784698646" width="203.38912488022993" height="48.43207045225209" as="geometry" />
        </mxCell>
        <mxCell id="bpu4daQ8uGptTEx4mdCb-241" value="receive statistical&lt;br style=&quot;font-size: 13px;&quot;&gt;anomaly detection&amp;nbsp;" style="rounded=0;whiteSpace=wrap;html=1;fontSize=13;" vertex="1" parent="bpu4daQ8uGptTEx4mdCb-240">
          <mxGeometry x="15.0375" y="3.85" width="172.4625" height="41.59" as="geometry" />
        </mxCell>
        <mxCell id="bpu4daQ8uGptTEx4mdCb-242" value="" style="triangle;whiteSpace=wrap;html=1;fontSize=13;" vertex="1" parent="bpu4daQ8uGptTEx4mdCb-240">
          <mxGeometry x="15.400075802798298" y="4.542111325158752" width="30.079243547361724" height="40.89329215464433" as="geometry" />
        </mxCell>
        <mxCell id="bpu4daQ8uGptTEx4mdCb-243" value="" style="line;strokeWidth=2;direction=south;html=1;perimeter=backbonePerimeter;points=[];outlineConnect=0;strokeColor=#ffffff;fontSize=13;" vertex="1" parent="bpu4daQ8uGptTEx4mdCb-240">
          <mxGeometry width="30.07824976045992" height="48.43207045225209" as="geometry" />
        </mxCell>
        <mxCell id="bpu4daQ8uGptTEx4mdCb-244" value="analysis anomaly occurence" style="html=1;whiteSpace=wrap;fontSize=13;" vertex="1" parent="1">
          <mxGeometry x="1122.27" y="-766.15" width="130" height="30" as="geometry" />
        </mxCell>
        <mxCell id="bpu4daQ8uGptTEx4mdCb-245" value="analysis anomaly occurence" style="html=1;whiteSpace=wrap;fontSize=13;" vertex="1" parent="1">
          <mxGeometry x="1357.21" y="-768.4499999999999" width="130" height="30" as="geometry" />
        </mxCell>
        <mxCell id="bpu4daQ8uGptTEx4mdCb-246" value="" style="rhombus;whiteSpace=wrap;html=1;fontSize=13;" vertex="1" parent="1">
          <mxGeometry x="1177.27" y="-706.9499999999999" width="20" height="30" as="geometry" />
        </mxCell>
        <mxCell id="bpu4daQ8uGptTEx4mdCb-247" value="" style="group;fontSize=13;" vertex="1" connectable="0" parent="1">
          <mxGeometry x="1130" y="-648.4499999999999" width="140" height="40" as="geometry" />
        </mxCell>
        <mxCell id="bpu4daQ8uGptTEx4mdCb-248" value="send anomaly remedy" style="rounded=0;whiteSpace=wrap;html=1;fontSize=13;" vertex="1" parent="bpu4daQ8uGptTEx4mdCb-247">
          <mxGeometry width="115.86206896551725" height="40" as="geometry" />
        </mxCell>
        <mxCell id="bpu4daQ8uGptTEx4mdCb-249" value="" style="endArrow=none;html=1;rounded=0;entryX=1;entryY=0;entryDx=0;entryDy=0;fontSize=13;" edge="1" parent="bpu4daQ8uGptTEx4mdCb-247" target="bpu4daQ8uGptTEx4mdCb-248">
          <mxGeometry width="50" height="50" relative="1" as="geometry">
            <mxPoint x="140" y="20" as="sourcePoint" />
            <mxPoint x="62.758620689655174" y="-13.333333333333336" as="targetPoint" />
          </mxGeometry>
        </mxCell>
        <mxCell id="bpu4daQ8uGptTEx4mdCb-250" value="" style="endArrow=none;html=1;rounded=0;entryX=1;entryY=1;entryDx=0;entryDy=0;fontSize=13;" edge="1" parent="bpu4daQ8uGptTEx4mdCb-247" target="bpu4daQ8uGptTEx4mdCb-248">
          <mxGeometry width="50" height="50" relative="1" as="geometry">
            <mxPoint x="140" y="20" as="sourcePoint" />
            <mxPoint x="123.58620689655173" y="6.666666666666668" as="targetPoint" />
          </mxGeometry>
        </mxCell>
        <mxCell id="bpu4daQ8uGptTEx4mdCb-251" value="" style="endArrow=none;html=1;rounded=0;entryX=1;entryY=0;entryDx=0;entryDy=0;strokeColor=#ffffff;exitX=1;exitY=0.935;exitDx=0;exitDy=0;exitPerimeter=0;strokeWidth=2;fontSize=13;" edge="1" parent="bpu4daQ8uGptTEx4mdCb-247">
          <mxGeometry width="50" height="50" relative="1" as="geometry">
            <mxPoint x="115.86206896551725" y="38.73333333333335" as="sourcePoint" />
            <mxPoint x="115.86206896551725" y="0.6666666666666667" as="targetPoint" />
          </mxGeometry>
        </mxCell>
        <mxCell id="bpu4daQ8uGptTEx4mdCb-252" value="" style="group;fontSize=13;" vertex="1" connectable="0" parent="1">
          <mxGeometry x="1364.04" y="-648.4499999999999" width="140" height="40" as="geometry" />
        </mxCell>
        <mxCell id="bpu4daQ8uGptTEx4mdCb-253" value="send anomaly remedy" style="rounded=0;whiteSpace=wrap;html=1;fontSize=13;" vertex="1" parent="bpu4daQ8uGptTEx4mdCb-252">
          <mxGeometry width="115.86206896551725" height="40" as="geometry" />
        </mxCell>
        <mxCell id="bpu4daQ8uGptTEx4mdCb-254" value="" style="endArrow=none;html=1;rounded=0;entryX=1;entryY=0;entryDx=0;entryDy=0;fontSize=13;" edge="1" parent="bpu4daQ8uGptTEx4mdCb-252" target="bpu4daQ8uGptTEx4mdCb-253">
          <mxGeometry width="50" height="50" relative="1" as="geometry">
            <mxPoint x="140" y="20" as="sourcePoint" />
            <mxPoint x="62.758620689655174" y="-13.333333333333336" as="targetPoint" />
          </mxGeometry>
        </mxCell>
        <mxCell id="bpu4daQ8uGptTEx4mdCb-255" value="" style="endArrow=none;html=1;rounded=0;entryX=1;entryY=1;entryDx=0;entryDy=0;fontSize=13;" edge="1" parent="bpu4daQ8uGptTEx4mdCb-252" target="bpu4daQ8uGptTEx4mdCb-253">
          <mxGeometry width="50" height="50" relative="1" as="geometry">
            <mxPoint x="140" y="20" as="sourcePoint" />
            <mxPoint x="123.58620689655173" y="6.666666666666668" as="targetPoint" />
          </mxGeometry>
        </mxCell>
        <mxCell id="bpu4daQ8uGptTEx4mdCb-256" value="" style="endArrow=none;html=1;rounded=0;entryX=1;entryY=0;entryDx=0;entryDy=0;strokeColor=#ffffff;exitX=1;exitY=0.935;exitDx=0;exitDy=0;exitPerimeter=0;strokeWidth=2;fontSize=13;" edge="1" parent="bpu4daQ8uGptTEx4mdCb-252">
          <mxGeometry width="50" height="50" relative="1" as="geometry">
            <mxPoint x="115.86206896551725" y="38.73333333333335" as="sourcePoint" />
            <mxPoint x="115.86206896551725" y="0.6666666666666667" as="targetPoint" />
          </mxGeometry>
        </mxCell>
        <mxCell id="bpu4daQ8uGptTEx4mdCb-257" value="" style="rhombus;whiteSpace=wrap;html=1;fontSize=13;" vertex="1" parent="1">
          <mxGeometry x="1412.21" y="-708.4499999999999" width="20" height="30" as="geometry" />
        </mxCell>
        <mxCell id="bpu4daQ8uGptTEx4mdCb-258" value="" style="group;fontSize=13;" vertex="1" connectable="0" parent="1">
          <mxGeometry x="1599.04" y="-831.6099999999999" width="188.35000000000002" height="60" as="geometry" />
        </mxCell>
        <mxCell id="bpu4daQ8uGptTEx4mdCb-259" value="" style="group;fontSize=13;" vertex="1" connectable="0" parent="bpu4daQ8uGptTEx4mdCb-258">
          <mxGeometry x="-15.03912488022996" y="-3.8490046784698646" width="203.38912488022993" height="48.43207045225209" as="geometry" />
        </mxCell>
        <mxCell id="bpu4daQ8uGptTEx4mdCb-260" value="receive&lt;br style=&quot;font-size: 13px;&quot;&gt;anomaly remedy" style="rounded=0;whiteSpace=wrap;html=1;fontSize=13;" vertex="1" parent="bpu4daQ8uGptTEx4mdCb-259">
          <mxGeometry x="16.0375" y="3.85" width="172.4625" height="41.59" as="geometry" />
        </mxCell>
        <mxCell id="bpu4daQ8uGptTEx4mdCb-261" value="" style="triangle;whiteSpace=wrap;html=1;fontSize=13;" vertex="1" parent="bpu4daQ8uGptTEx4mdCb-259">
          <mxGeometry x="15.400075802798298" y="4.542111325158752" width="30.079243547361724" height="40.89329215464433" as="geometry" />
        </mxCell>
        <mxCell id="bpu4daQ8uGptTEx4mdCb-262" value="" style="line;strokeWidth=2;direction=south;html=1;perimeter=backbonePerimeter;points=[];outlineConnect=0;strokeColor=#ffffff;fontSize=13;" vertex="1" parent="bpu4daQ8uGptTEx4mdCb-259">
          <mxGeometry width="30.07824976045992" height="48.43207045225209" as="geometry" />
        </mxCell>
        <mxCell id="bpu4daQ8uGptTEx4mdCb-263" value="check appropriate remedy method" style="html=1;whiteSpace=wrap;fontSize=13;" vertex="1" parent="1">
          <mxGeometry x="1621.21" y="-591.2499999999999" width="130" height="30" as="geometry" />
        </mxCell>
        <mxCell id="bpu4daQ8uGptTEx4mdCb-264" value="apply remedy method" style="html=1;whiteSpace=wrap;fontSize=13;" vertex="1" parent="1">
          <mxGeometry x="1621.21" y="-477.4499999999999" width="130" height="30" as="geometry" />
        </mxCell>
        <mxCell id="bpu4daQ8uGptTEx4mdCb-265" value="" style="rhombus;whiteSpace=wrap;html=1;fontSize=13;" vertex="1" parent="1">
          <mxGeometry x="1676.03" y="-415.95" width="20" height="30" as="geometry" />
        </mxCell>
        <mxCell id="bpu4daQ8uGptTEx4mdCb-266" value="remedy?" style="text;html=1;strokeColor=none;fillColor=none;align=center;verticalAlign=middle;whiteSpace=wrap;rounded=0;fontSize=13;" vertex="1" parent="1">
          <mxGeometry x="1617.03" y="-426.45" width="60" height="30" as="geometry" />
        </mxCell>
        <mxCell id="bpu4daQ8uGptTEx4mdCb-267" value="&lt;i style=&quot;font-size: 13px;&quot;&gt;&lt;u style=&quot;font-size: 13px;&quot;&gt;RemedyApplied&lt;/u&gt;&lt;/i&gt;" style="html=1;whiteSpace=wrap;fontSize=13;" vertex="1" parent="1">
          <mxGeometry x="1621.21" y="-359.99999999999994" width="130" height="30" as="geometry" />
        </mxCell>
        <mxCell id="bpu4daQ8uGptTEx4mdCb-268" value="alarm to worker and manager" style="html=1;whiteSpace=wrap;fontSize=13;" vertex="1" parent="1">
          <mxGeometry x="1811" y="-415.9499999999998" width="130" height="30" as="geometry" />
        </mxCell>
        <mxCell id="bpu4daQ8uGptTEx4mdCb-269" value="check period" style="html=1;whiteSpace=wrap;fontSize=13;" vertex="1" parent="1">
          <mxGeometry x="2076.44" y="-759.8499999999999" width="130" height="30" as="geometry" />
        </mxCell>
        <mxCell id="bpu4daQ8uGptTEx4mdCb-270" value="" style="rhombus;whiteSpace=wrap;html=1;fontSize=13;" vertex="1" parent="1">
          <mxGeometry x="2131.44" y="-648.8" width="20" height="30" as="geometry" />
        </mxCell>
        <mxCell id="bpu4daQ8uGptTEx4mdCb-271" value="bring RemedyApplied" style="html=1;whiteSpace=wrap;fontSize=13;" vertex="1" parent="1">
          <mxGeometry x="2076.44" y="-703.3499999999999" width="130" height="30" as="geometry" />
        </mxCell>
        <mxCell id="bpu4daQ8uGptTEx4mdCb-272" value="generate report" style="html=1;whiteSpace=wrap;fontSize=13;" vertex="1" parent="1">
          <mxGeometry x="2076.44" y="-595.8499999999999" width="130" height="30" as="geometry" />
        </mxCell>
        <mxCell id="bpu4daQ8uGptTEx4mdCb-273" value="choose statistical mehod" style="html=1;whiteSpace=wrap;fontSize=13;" vertex="1" parent="1">
          <mxGeometry x="584.3600000000001" y="-60.65" width="130" height="30" as="geometry" />
        </mxCell>
        <mxCell id="bpu4daQ8uGptTEx4mdCb-274" value="evaluate statistical method" style="html=1;whiteSpace=wrap;fontSize=13;" vertex="1" parent="1">
          <mxGeometry x="584.35" y="-5.1500000000000075" width="130" height="30" as="geometry" />
        </mxCell>
        <mxCell id="bpu4daQ8uGptTEx4mdCb-275" value="make dataset" style="html=1;whiteSpace=wrap;fontSize=13;" vertex="1" parent="1">
          <mxGeometry x="584.35" y="-315.1499999999999" width="130" height="30" as="geometry" />
        </mxCell>
        <mxCell id="bpu4daQ8uGptTEx4mdCb-276" value="data preprocessing" style="html=1;whiteSpace=wrap;fontSize=13;" vertex="1" parent="1">
          <mxGeometry x="584.35" y="-265.15" width="130" height="30" as="geometry" />
        </mxCell>
        <mxCell id="bpu4daQ8uGptTEx4mdCb-277" value="training ML model" style="html=1;whiteSpace=wrap;fontSize=13;" vertex="1" parent="1">
          <mxGeometry x="584.35" y="-165.14999999999998" width="130" height="30" as="geometry" />
        </mxCell>
        <mxCell id="bpu4daQ8uGptTEx4mdCb-278" value="evaluate ML model" style="html=1;whiteSpace=wrap;fontSize=13;" vertex="1" parent="1">
          <mxGeometry x="584.36" y="-111.64999999999996" width="130" height="30" as="geometry" />
        </mxCell>
        <mxCell id="bpu4daQ8uGptTEx4mdCb-279" value="choose appropriate &lt;br style=&quot;font-size: 13px;&quot;&gt;ML model&amp;nbsp;" style="html=1;whiteSpace=wrap;fontSize=13;" vertex="1" parent="1">
          <mxGeometry x="584.3500000000001" y="-213.40000000000003" width="130" height="30" as="geometry" />
        </mxCell>
        <mxCell id="bpu4daQ8uGptTEx4mdCb-280" value="" style="rhombus;whiteSpace=wrap;html=1;fontSize=13;" vertex="1" parent="1">
          <mxGeometry x="1676" y="-531.8" width="20" height="30" as="geometry" />
        </mxCell>
        <mxCell id="bpu4daQ8uGptTEx4mdCb-281" value="no remedy method" style="text;html=1;strokeColor=none;fillColor=none;align=center;verticalAlign=middle;whiteSpace=wrap;rounded=0;fontSize=13;" vertex="1" parent="1">
          <mxGeometry x="1616" y="-538.9499999999998" width="60" height="30" as="geometry" />
        </mxCell>
        <mxCell id="bpu4daQ8uGptTEx4mdCb-282" value="identify anomaly occurence" style="html=1;whiteSpace=wrap;fontSize=13;" vertex="1" parent="1">
          <mxGeometry x="1621" y="-768.4499999999999" width="130" height="30" as="geometry" />
        </mxCell>
        <mxCell id="bpu4daQ8uGptTEx4mdCb-283" value="check type of anomaly" style="html=1;whiteSpace=wrap;fontSize=13;" vertex="1" parent="1">
          <mxGeometry x="1621" y="-710.9999999999999" width="130" height="30" as="geometry" />
        </mxCell>
        <mxCell id="bpu4daQ8uGptTEx4mdCb-284" value="" style="rhombus;whiteSpace=wrap;html=1;fontSize=13;" vertex="1" parent="1">
          <mxGeometry x="1676.21" y="-649.4499999999999" width="20" height="30" as="geometry" />
        </mxCell>
        <mxCell id="bpu4daQ8uGptTEx4mdCb-285" value="no anomaly type?" style="text;html=1;strokeColor=none;fillColor=none;align=center;verticalAlign=middle;whiteSpace=wrap;rounded=0;fontSize=13;" vertex="1" parent="1">
          <mxGeometry x="1596" y="-656.6" width="84.21" height="30" as="geometry" />
        </mxCell>
        <mxCell id="bpu4daQ8uGptTEx4mdCb-286" value="anomaly detect?" style="text;html=1;strokeColor=none;fillColor=none;align=center;verticalAlign=middle;whiteSpace=wrap;rounded=0;fontSize=13;" vertex="1" parent="1">
          <mxGeometry x="1335.8600000000001" y="-721" width="84.21" height="30" as="geometry" />
        </mxCell>
        <mxCell id="bpu4daQ8uGptTEx4mdCb-287" value="anomaly detect?" style="text;html=1;strokeColor=none;fillColor=none;align=center;verticalAlign=middle;whiteSpace=wrap;rounded=0;fontSize=13;" vertex="1" parent="1">
          <mxGeometry x="1113.06" y="-721" width="84.21" height="30" as="geometry" />
        </mxCell>
        <mxCell id="bpu4daQ8uGptTEx4mdCb-288" value="" style="line;strokeWidth=2;direction=south;html=1;perimeter=backbonePerimeter;points=[];outlineConnect=0;strokeColor=#ffffff;fillColor=default;fontSize=13;" vertex="1" parent="1">
          <mxGeometry x="1826.00087511977" y="-861.9990046784698" width="30.07824976045992" height="48.43207045225209" as="geometry" />
        </mxCell>
        <mxCell id="bpu4daQ8uGptTEx4mdCb-289" value="" style="group;fontSize=13;" vertex="1" connectable="0" parent="1">
          <mxGeometry x="2052.9983751197697" y="-829.9990046784698" width="173.46250000000032" height="41.59000000000003" as="geometry" />
        </mxCell>
        <mxCell id="bpu4daQ8uGptTEx4mdCb-290" value="send &lt;br style=&quot;font-size: 13px;&quot;&gt;generating report" style="rounded=0;whiteSpace=wrap;html=1;fillColor=default;fontSize=13;" vertex="1" parent="bpu4daQ8uGptTEx4mdCb-289">
          <mxGeometry x="1.0000000000002274" width="172.4625" height="41.59" as="geometry" />
        </mxCell>
        <mxCell id="bpu4daQ8uGptTEx4mdCb-291" value="" style="triangle;whiteSpace=wrap;html=1;fillColor=default;fontSize=13;" vertex="1" parent="bpu4daQ8uGptTEx4mdCb-289">
          <mxGeometry x="1.362575802798574" y="0.6921113251587485" width="30.079243547361724" height="40.89329215464433" as="geometry" />
        </mxCell>
        <mxCell id="bpu4daQ8uGptTEx4mdCb-292" value="" style="endArrow=none;html=1;rounded=0;entryX=0;entryY=0;entryDx=0;entryDy=0;strokeColor=#ffffff;strokeWidth=4;exitX=0;exitY=1;exitDx=0;exitDy=0;fontSize=13;" edge="1" parent="bpu4daQ8uGptTEx4mdCb-289">
          <mxGeometry width="50" height="50" relative="1" as="geometry">
            <mxPoint y="41.58999999999992" as="sourcePoint" />
            <mxPoint y="2.2737367544323206e-13" as="targetPoint" />
          </mxGeometry>
        </mxCell>
        <mxCell id="bpu4daQ8uGptTEx4mdCb-293" value="print report" style="html=1;whiteSpace=wrap;fontSize=13;" vertex="1" parent="1">
          <mxGeometry x="2076.44" y="-542.9999999999999" width="130" height="30" as="geometry" />
        </mxCell>
        <mxCell id="bpu4daQ8uGptTEx4mdCb-294" value="" style="endArrow=none;html=1;rounded=0;entryX=0.016;entryY=0.011;entryDx=0;entryDy=0;entryPerimeter=0;strokeWidth=4;strokeColor=#ffffff;fontSize=13;" edge="1" parent="1">
          <mxGeometry width="50" height="50" relative="1" as="geometry">
            <mxPoint x="1101" y="-790" as="sourcePoint" />
            <mxPoint x="1100.522218819326" y="-835.0870671396099" as="targetPoint" />
          </mxGeometry>
        </mxCell>
        <mxCell id="bpu4daQ8uGptTEx4mdCb-295" value="" style="rhombus;whiteSpace=wrap;html=1;fontSize=13;" vertex="1" parent="1">
          <mxGeometry x="464.51" y="-710.9999999999999" width="20" height="30" as="geometry" />
        </mxCell>
        <mxCell id="bpu4daQ8uGptTEx4mdCb-296" value="check manufacturing profile" style="html=1;whiteSpace=wrap;fontSize=13;" vertex="1" parent="1">
          <mxGeometry x="568.105" y="-541.15" width="162.5" height="30" as="geometry" />
        </mxCell>
        <mxCell id="bpu4daQ8uGptTEx4mdCb-297" value="" style="html=1;verticalAlign=bottom;endArrow=block;edgeStyle=elbowEdgeStyle;elbow=vertical;curved=0;rounded=0;entryX=0.5;entryY=0;entryDx=0;entryDy=0;exitX=0.5;exitY=1;exitDx=0;exitDy=0;fontSize=13;" edge="1" parent="1" source="bpu4daQ8uGptTEx4mdCb-213" target="bpu4daQ8uGptTEx4mdCb-214">
          <mxGeometry x="-0.0024" width="80" relative="1" as="geometry">
            <mxPoint x="659.36" y="-503.54999999999995" as="sourcePoint" />
            <mxPoint x="659.36" y="-474.54999999999995" as="targetPoint" />
            <mxPoint as="offset" />
          </mxGeometry>
        </mxCell>
        <mxCell id="bpu4daQ8uGptTEx4mdCb-298" value="" style="html=1;verticalAlign=bottom;endArrow=block;edgeStyle=elbowEdgeStyle;elbow=vertical;curved=0;rounded=0;exitX=0.5;exitY=1;exitDx=0;exitDy=0;fontSize=13;" edge="1" parent="1" source="bpu4daQ8uGptTEx4mdCb-13">
          <mxGeometry x="-0.0024" width="80" relative="1" as="geometry">
            <mxPoint x="475" y="-526" as="sourcePoint" />
            <mxPoint x="475" y="-710" as="targetPoint" />
            <mxPoint as="offset" />
          </mxGeometry>
        </mxCell>
        <mxCell id="bpu4daQ8uGptTEx4mdCb-299" value="" style="rhombus;whiteSpace=wrap;html=1;fontSize=13;" vertex="1" parent="1">
          <mxGeometry x="464.24" y="-659.4499999999999" width="20" height="30" as="geometry" />
        </mxCell>
        <mxCell id="bpu4daQ8uGptTEx4mdCb-300" value="" style="html=1;verticalAlign=bottom;endArrow=block;edgeStyle=elbowEdgeStyle;elbow=vertical;curved=0;rounded=0;exitX=0.5;exitY=1;exitDx=0;exitDy=0;entryX=0.5;entryY=0;entryDx=0;entryDy=0;fontSize=13;" edge="1" parent="1" source="bpu4daQ8uGptTEx4mdCb-295" target="bpu4daQ8uGptTEx4mdCb-299">
          <mxGeometry x="-0.0024" width="80" relative="1" as="geometry">
            <mxPoint x="485" y="-730" as="sourcePoint" />
            <mxPoint x="485" y="-700" as="targetPoint" />
            <mxPoint as="offset" />
          </mxGeometry>
        </mxCell>
        <mxCell id="bpu4daQ8uGptTEx4mdCb-301" value="" style="rhombus;whiteSpace=wrap;html=1;fontSize=13;" vertex="1" parent="1">
          <mxGeometry x="464.24" y="-608.9999999999999" width="20" height="30" as="geometry" />
        </mxCell>
        <mxCell id="bpu4daQ8uGptTEx4mdCb-302" value="" style="html=1;verticalAlign=bottom;endArrow=block;edgeStyle=elbowEdgeStyle;elbow=vertical;curved=0;rounded=0;entryX=0.5;entryY=0;entryDx=0;entryDy=0;fontSize=13;" edge="1" parent="1" target="bpu4daQ8uGptTEx4mdCb-301">
          <mxGeometry x="-0.0024" width="80" relative="1" as="geometry">
            <mxPoint x="474" y="-630" as="sourcePoint" />
            <mxPoint x="485" y="-649.55" as="targetPoint" />
            <mxPoint as="offset" />
          </mxGeometry>
        </mxCell>
        <mxCell id="bpu4daQ8uGptTEx4mdCb-303" value="hw device&lt;br style=&quot;font-size: 13px;&quot;&gt;&amp;nbsp;change?" style="text;html=1;strokeColor=none;fillColor=none;align=center;verticalAlign=middle;whiteSpace=wrap;rounded=0;fontSize=13;" vertex="1" parent="1">
          <mxGeometry x="396" y="-727.65" width="73.47" height="30" as="geometry" />
        </mxCell>
        <mxCell id="bpu4daQ8uGptTEx4mdCb-304" value="managed object&lt;br style=&quot;font-size: 13px;&quot;&gt;&amp;nbsp;change?" style="text;html=1;strokeColor=none;fillColor=none;align=center;verticalAlign=middle;whiteSpace=wrap;rounded=0;fontSize=13;" vertex="1" parent="1">
          <mxGeometry x="376" y="-676.95" width="88.7" height="30" as="geometry" />
        </mxCell>
        <mxCell id="bpu4daQ8uGptTEx4mdCb-305" value="anomaly type change?" style="text;html=1;strokeColor=none;fillColor=none;align=center;verticalAlign=middle;whiteSpace=wrap;rounded=0;fontSize=13;" vertex="1" parent="1">
          <mxGeometry x="376" y="-619.45" width="88.7" height="30" as="geometry" />
        </mxCell>
        <mxCell id="bpu4daQ8uGptTEx4mdCb-306" value="" style="html=1;verticalAlign=bottom;endArrow=block;edgeStyle=elbowEdgeStyle;elbow=vertical;curved=0;rounded=0;entryX=0.5;entryY=0;entryDx=0;entryDy=0;fontSize=13;" edge="1" parent="1">
          <mxGeometry x="-0.0024" width="80" relative="1" as="geometry">
            <mxPoint x="475" y="-580" as="sourcePoint" />
            <mxPoint x="474.5100000000002" y="-541.1500000000001" as="targetPoint" />
            <mxPoint as="offset" />
          </mxGeometry>
        </mxCell>
        <mxCell id="bpu4daQ8uGptTEx4mdCb-307" value="" style="rhombus;whiteSpace=wrap;html=1;fontSize=13;" vertex="1" parent="1">
          <mxGeometry x="464.70000000000005" y="-541.1499999999999" width="20" height="30" as="geometry" />
        </mxCell>
        <mxCell id="bpu4daQ8uGptTEx4mdCb-308" value="model or method exist?" style="text;html=1;strokeColor=none;fillColor=none;align=center;verticalAlign=middle;whiteSpace=wrap;rounded=0;fontSize=13;" vertex="1" parent="1">
          <mxGeometry x="384" y="-560" width="88.7" height="30" as="geometry" />
        </mxCell>
        <mxCell id="bpu4daQ8uGptTEx4mdCb-309" value="" style="html=1;verticalAlign=bottom;endArrow=block;edgeStyle=elbowEdgeStyle;elbow=vertical;curved=0;rounded=0;exitX=0.5;exitY=1;exitDx=0;exitDy=0;fontSize=13;" edge="1" parent="1" source="bpu4daQ8uGptTEx4mdCb-296">
          <mxGeometry x="-0.0024" width="80" relative="1" as="geometry">
            <mxPoint x="659" y="-445.15" as="sourcePoint" />
            <mxPoint x="649" y="-485.15" as="targetPoint" />
            <mxPoint as="offset" />
          </mxGeometry>
        </mxCell>
        <mxCell id="bpu4daQ8uGptTEx4mdCb-310" value="" style="html=1;verticalAlign=bottom;endArrow=block;edgeStyle=elbowEdgeStyle;elbow=vertical;curved=0;rounded=0;exitX=0.5;exitY=1;exitDx=0;exitDy=0;entryX=0.5;entryY=0;entryDx=0;entryDy=0;fontSize=13;" edge="1" parent="1" source="bpu4daQ8uGptTEx4mdCb-214" target="bpu4daQ8uGptTEx4mdCb-215">
          <mxGeometry x="-0.0024" width="80" relative="1" as="geometry">
            <mxPoint x="659" y="-501.15" as="sourcePoint" />
            <mxPoint x="659" y="-475.15" as="targetPoint" />
            <mxPoint as="offset" />
          </mxGeometry>
        </mxCell>
        <mxCell id="bpu4daQ8uGptTEx4mdCb-311" value="" style="html=1;verticalAlign=bottom;endArrow=block;edgeStyle=elbowEdgeStyle;elbow=vertical;curved=0;rounded=0;entryX=0.5;entryY=0;entryDx=0;entryDy=0;exitX=0.5;exitY=1;exitDx=0;exitDy=0;fontSize=13;" edge="1" parent="1" source="bpu4daQ8uGptTEx4mdCb-215" target="bpu4daQ8uGptTEx4mdCb-275">
          <mxGeometry x="-0.0024" width="80" relative="1" as="geometry">
            <mxPoint x="646" y="-345.15" as="sourcePoint" />
            <mxPoint x="659" y="-357.15" as="targetPoint" />
            <mxPoint as="offset" />
          </mxGeometry>
        </mxCell>
        <mxCell id="bpu4daQ8uGptTEx4mdCb-312" value="" style="html=1;verticalAlign=bottom;endArrow=block;edgeStyle=elbowEdgeStyle;elbow=vertical;curved=0;rounded=0;entryX=0.5;entryY=0;entryDx=0;entryDy=0;exitX=0.5;exitY=1;exitDx=0;exitDy=0;fontSize=13;" edge="1" parent="1" source="bpu4daQ8uGptTEx4mdCb-275" target="bpu4daQ8uGptTEx4mdCb-276">
          <mxGeometry x="-0.0024" width="80" relative="1" as="geometry">
            <mxPoint x="659" y="-327.15" as="sourcePoint" />
            <mxPoint x="659" y="-305.15" as="targetPoint" />
            <mxPoint as="offset" />
          </mxGeometry>
        </mxCell>
        <mxCell id="bpu4daQ8uGptTEx4mdCb-313" value="" style="html=1;verticalAlign=bottom;endArrow=block;edgeStyle=elbowEdgeStyle;elbow=vertical;curved=0;rounded=0;entryX=0.5;entryY=0;entryDx=0;entryDy=0;exitX=0.5;exitY=1;exitDx=0;exitDy=0;fontSize=13;" edge="1" parent="1" source="bpu4daQ8uGptTEx4mdCb-276" target="bpu4daQ8uGptTEx4mdCb-279">
          <mxGeometry x="-0.0024" width="80" relative="1" as="geometry">
            <mxPoint x="659" y="-275.15" as="sourcePoint" />
            <mxPoint x="659" y="-255.15" as="targetPoint" />
            <mxPoint as="offset" />
          </mxGeometry>
        </mxCell>
        <mxCell id="bpu4daQ8uGptTEx4mdCb-314" value="" style="html=1;verticalAlign=bottom;endArrow=block;edgeStyle=elbowEdgeStyle;elbow=vertical;curved=0;rounded=0;exitX=0.5;exitY=1;exitDx=0;exitDy=0;fontSize=13;" edge="1" parent="1" source="bpu4daQ8uGptTEx4mdCb-279" target="bpu4daQ8uGptTEx4mdCb-277">
          <mxGeometry x="-0.0024" width="80" relative="1" as="geometry">
            <mxPoint x="659" y="-225.15" as="sourcePoint" />
            <mxPoint x="659" y="-203.15" as="targetPoint" />
            <mxPoint as="offset" />
          </mxGeometry>
        </mxCell>
        <mxCell id="bpu4daQ8uGptTEx4mdCb-315" value="" style="html=1;verticalAlign=bottom;endArrow=block;edgeStyle=elbowEdgeStyle;elbow=vertical;curved=0;rounded=0;exitX=0.5;exitY=1;exitDx=0;exitDy=0;entryX=0.5;entryY=0;entryDx=0;entryDy=0;fontSize=13;" edge="1" parent="1" source="bpu4daQ8uGptTEx4mdCb-277" target="bpu4daQ8uGptTEx4mdCb-278">
          <mxGeometry x="-0.0024" width="80" relative="1" as="geometry">
            <mxPoint x="659" y="-173.15" as="sourcePoint" />
            <mxPoint x="659" y="-155.15" as="targetPoint" />
            <mxPoint as="offset" />
          </mxGeometry>
        </mxCell>
        <mxCell id="bpu4daQ8uGptTEx4mdCb-316" value="" style="html=1;verticalAlign=bottom;endArrow=block;edgeStyle=elbowEdgeStyle;elbow=vertical;curved=0;rounded=0;exitX=0.5;exitY=1;exitDx=0;exitDy=0;entryX=0.5;entryY=0;entryDx=0;entryDy=0;fontSize=13;" edge="1" parent="1" source="bpu4daQ8uGptTEx4mdCb-278" target="bpu4daQ8uGptTEx4mdCb-273">
          <mxGeometry x="-0.0024" width="80" relative="1" as="geometry">
            <mxPoint x="659" y="-125.15" as="sourcePoint" />
            <mxPoint x="659" y="-101.15" as="targetPoint" />
            <mxPoint as="offset" />
          </mxGeometry>
        </mxCell>
        <mxCell id="bpu4daQ8uGptTEx4mdCb-317" value="" style="html=1;verticalAlign=bottom;endArrow=block;edgeStyle=elbowEdgeStyle;elbow=vertical;curved=0;rounded=0;entryX=0.5;entryY=0;entryDx=0;entryDy=0;exitX=0.5;exitY=1;exitDx=0;exitDy=0;fontSize=13;" edge="1" parent="1" source="bpu4daQ8uGptTEx4mdCb-273" target="bpu4daQ8uGptTEx4mdCb-274">
          <mxGeometry x="-0.0024" width="80" relative="1" as="geometry">
            <mxPoint x="649" y="-25.15" as="sourcePoint" />
            <mxPoint x="659" y="-50.15" as="targetPoint" />
            <mxPoint as="offset" />
          </mxGeometry>
        </mxCell>
        <mxCell id="bpu4daQ8uGptTEx4mdCb-318" value="" style="html=1;verticalAlign=bottom;endArrow=block;edgeStyle=elbowEdgeStyle;elbow=vertical;curved=0;rounded=0;exitX=1;exitY=0.5;exitDx=0;exitDy=0;entryX=0.5;entryY=0;entryDx=0;entryDy=0;fontSize=13;" edge="1" parent="1" source="bpu4daQ8uGptTEx4mdCb-13" target="bpu4daQ8uGptTEx4mdCb-296">
          <mxGeometry x="-0.0024" width="80" relative="1" as="geometry">
            <mxPoint x="485" y="-671" as="sourcePoint" />
            <mxPoint x="484" y="-649" as="targetPoint" />
            <mxPoint as="offset" />
            <Array as="points">
              <mxPoint x="566" y="-755" />
            </Array>
          </mxGeometry>
        </mxCell>
        <mxCell id="bpu4daQ8uGptTEx4mdCb-319" value="" style="html=1;verticalAlign=bottom;endArrow=block;edgeStyle=elbowEdgeStyle;elbow=vertical;curved=0;rounded=0;exitX=1;exitY=0.5;exitDx=0;exitDy=0;entryX=0.5;entryY=0;entryDx=0;entryDy=0;fontSize=13;" edge="1" parent="1" source="bpu4daQ8uGptTEx4mdCb-295" target="bpu4daQ8uGptTEx4mdCb-296">
          <mxGeometry x="-0.0024" width="80" relative="1" as="geometry">
            <mxPoint x="495" y="-745" as="sourcePoint" />
            <mxPoint x="646" y="-540" as="targetPoint" />
            <mxPoint as="offset" />
            <Array as="points">
              <mxPoint x="566" y="-700" />
            </Array>
          </mxGeometry>
        </mxCell>
        <mxCell id="bpu4daQ8uGptTEx4mdCb-320" value="" style="html=1;verticalAlign=bottom;endArrow=block;edgeStyle=elbowEdgeStyle;elbow=vertical;curved=0;rounded=0;exitX=1;exitY=0.5;exitDx=0;exitDy=0;entryX=0.5;entryY=0;entryDx=0;entryDy=0;fontSize=13;" edge="1" parent="1" source="bpu4daQ8uGptTEx4mdCb-299" target="bpu4daQ8uGptTEx4mdCb-296">
          <mxGeometry x="-0.0024" width="80" relative="1" as="geometry">
            <mxPoint x="495" y="-686" as="sourcePoint" />
            <mxPoint x="659" y="-531" as="targetPoint" />
            <mxPoint as="offset" />
            <Array as="points">
              <mxPoint x="566" y="-644" />
            </Array>
          </mxGeometry>
        </mxCell>
        <mxCell id="bpu4daQ8uGptTEx4mdCb-321" value="" style="html=1;verticalAlign=bottom;endArrow=block;edgeStyle=elbowEdgeStyle;elbow=vertical;curved=0;rounded=0;exitX=1;exitY=0.5;exitDx=0;exitDy=0;entryX=0.5;entryY=0;entryDx=0;entryDy=0;fontSize=13;" edge="1" parent="1" source="bpu4daQ8uGptTEx4mdCb-301" target="bpu4daQ8uGptTEx4mdCb-296">
          <mxGeometry x="-0.0024" width="80" relative="1" as="geometry">
            <mxPoint x="494" y="-634" as="sourcePoint" />
            <mxPoint x="659" y="-531" as="targetPoint" />
            <mxPoint as="offset" />
            <Array as="points">
              <mxPoint x="576" y="-594" />
            </Array>
          </mxGeometry>
        </mxCell>
        <mxCell id="bpu4daQ8uGptTEx4mdCb-322" value="" style="html=1;verticalAlign=bottom;endArrow=block;edgeStyle=elbowEdgeStyle;elbow=vertical;curved=0;rounded=0;exitX=1;exitY=0.5;exitDx=0;exitDy=0;fontSize=13;" edge="1" parent="1" source="bpu4daQ8uGptTEx4mdCb-307">
          <mxGeometry x="-0.0024" width="80" relative="1" as="geometry">
            <mxPoint x="494" y="-584" as="sourcePoint" />
            <mxPoint x="566" y="-526" as="targetPoint" />
            <mxPoint as="offset" />
            <Array as="points">
              <mxPoint x="576" y="-526" />
            </Array>
          </mxGeometry>
        </mxCell>
        <mxCell id="bpu4daQ8uGptTEx4mdCb-323" value="" style="html=1;verticalAlign=bottom;endArrow=block;edgeStyle=elbowEdgeStyle;elbow=vertical;curved=0;rounded=0;fontSize=13;" edge="1" parent="1">
          <mxGeometry x="-0.0024" width="80" relative="1" as="geometry">
            <mxPoint x="475" y="-510" as="sourcePoint" />
            <mxPoint x="584.36" y="70" as="targetPoint" />
            <mxPoint as="offset" />
            <Array as="points">
              <mxPoint x="475.36" y="70" />
            </Array>
          </mxGeometry>
        </mxCell>
        <mxCell id="bpu4daQ8uGptTEx4mdCb-324" value="" style="html=1;verticalAlign=bottom;endArrow=block;edgeStyle=elbowEdgeStyle;elbow=vertical;curved=0;rounded=0;entryX=0.566;entryY=0.045;entryDx=0;entryDy=0;entryPerimeter=0;exitX=0.5;exitY=1;exitDx=0;exitDy=0;fontSize=13;" edge="1" parent="1" source="bpu4daQ8uGptTEx4mdCb-274" target="bpu4daQ8uGptTEx4mdCb-217">
          <mxGeometry x="-0.0024" width="80" relative="1" as="geometry">
            <mxPoint x="652" y="30" as="sourcePoint" />
            <mxPoint x="659" y="5" as="targetPoint" />
            <mxPoint as="offset" />
          </mxGeometry>
        </mxCell>
        <mxCell id="bpu4daQ8uGptTEx4mdCb-325" value="" style="html=1;verticalAlign=bottom;endArrow=block;edgeStyle=elbowEdgeStyle;elbow=vertical;curved=0;rounded=0;exitX=0.5;exitY=1;exitDx=0;exitDy=0;fontSize=13;" edge="1" parent="1" source="bpu4daQ8uGptTEx4mdCb-329" target="bpu4daQ8uGptTEx4mdCb-221">
          <mxGeometry x="-0.0024" width="80" relative="1" as="geometry">
            <mxPoint x="900" y="-784.15" as="sourcePoint" />
            <mxPoint x="900" y="-756.15" as="targetPoint" />
            <mxPoint as="offset" />
            <Array as="points" />
          </mxGeometry>
        </mxCell>
        <mxCell id="bpu4daQ8uGptTEx4mdCb-326" value="" style="html=1;verticalAlign=bottom;endArrow=block;edgeStyle=elbowEdgeStyle;elbow=vertical;curved=0;rounded=0;entryX=0.5;entryY=0;entryDx=0;entryDy=0;fontSize=13;" edge="1" parent="1" target="bpu4daQ8uGptTEx4mdCb-222">
          <mxGeometry x="-0.0024" width="80" relative="1" as="geometry">
            <mxPoint x="890" y="-680" as="sourcePoint" />
            <mxPoint x="900" y="-699" as="targetPoint" />
            <mxPoint as="offset" />
            <Array as="points" />
          </mxGeometry>
        </mxCell>
        <mxCell id="bpu4daQ8uGptTEx4mdCb-327" value="" style="html=1;verticalAlign=bottom;endArrow=block;edgeStyle=elbowEdgeStyle;elbow=vertical;curved=0;rounded=0;entryX=0.5;entryY=0;entryDx=0;entryDy=0;exitX=0.5;exitY=1;exitDx=0;exitDy=0;fontSize=13;" edge="1" parent="1" source="bpu4daQ8uGptTEx4mdCb-222" target="bpu4daQ8uGptTEx4mdCb-224">
          <mxGeometry x="-0.0024" width="80" relative="1" as="geometry">
            <mxPoint x="886" y="-620" as="sourcePoint" />
            <mxPoint x="900" y="-641" as="targetPoint" />
            <mxPoint as="offset" />
            <Array as="points" />
          </mxGeometry>
        </mxCell>
        <mxCell id="bpu4daQ8uGptTEx4mdCb-328" value="" style="html=1;verticalAlign=bottom;endArrow=block;edgeStyle=elbowEdgeStyle;elbow=vertical;curved=0;rounded=0;entryX=0.5;entryY=0;entryDx=0;entryDy=0;exitX=0.5;exitY=1;exitDx=0;exitDy=0;fontSize=13;" edge="1" parent="1" source="bpu4daQ8uGptTEx4mdCb-224" target="bpu4daQ8uGptTEx4mdCb-229">
          <mxGeometry x="-0.0024" width="80" relative="1" as="geometry">
            <mxPoint x="900" y="-611" as="sourcePoint" />
            <mxPoint x="900" y="-580" as="targetPoint" />
            <mxPoint as="offset" />
            <Array as="points" />
          </mxGeometry>
        </mxCell>
        <mxCell id="bpu4daQ8uGptTEx4mdCb-329" value="acquire data" style="html=1;whiteSpace=wrap;fontSize=13;" vertex="1" parent="1">
          <mxGeometry x="825" y="-766.15" width="130" height="30" as="geometry" />
        </mxCell>
        <mxCell id="bpu4daQ8uGptTEx4mdCb-330" value="" style="html=1;verticalAlign=bottom;endArrow=block;edgeStyle=elbowEdgeStyle;elbow=vertical;curved=0;rounded=0;exitX=0.5;exitY=1;exitDx=0;exitDy=0;entryX=0.5;entryY=0;entryDx=0;entryDy=0;fontSize=13;" edge="1" parent="1" source="bpu4daQ8uGptTEx4mdCb-332" target="bpu4daQ8uGptTEx4mdCb-329">
          <mxGeometry x="-0.0024" width="80" relative="1" as="geometry">
            <mxPoint x="495" y="-745" as="sourcePoint" />
            <mxPoint x="659" y="-531" as="targetPoint" />
            <mxPoint as="offset" />
            <Array as="points" />
          </mxGeometry>
        </mxCell>
        <mxCell id="bpu4daQ8uGptTEx4mdCb-331" value="" style="group;fontSize=13;" vertex="1" connectable="0" parent="1">
          <mxGeometry x="788.73087511977" y="-839.9990046784699" width="203.38912488022993" height="48.43207045225209" as="geometry" />
        </mxCell>
        <mxCell id="bpu4daQ8uGptTEx4mdCb-332" value="receive start &lt;br style=&quot;font-size: 13px;&quot;&gt;anomaly detection" style="rounded=0;whiteSpace=wrap;html=1;fontSize=13;" vertex="1" parent="bpu4daQ8uGptTEx4mdCb-331">
          <mxGeometry x="15.0375" y="3.85" width="172.4625" height="41.59" as="geometry" />
        </mxCell>
        <mxCell id="bpu4daQ8uGptTEx4mdCb-333" value="" style="triangle;whiteSpace=wrap;html=1;fontSize=13;" vertex="1" parent="bpu4daQ8uGptTEx4mdCb-331">
          <mxGeometry x="15.400075802798298" y="4.542111325158752" width="30.079243547361724" height="40.89329215464433" as="geometry" />
        </mxCell>
        <mxCell id="bpu4daQ8uGptTEx4mdCb-334" value="" style="line;strokeWidth=2;direction=south;html=1;perimeter=backbonePerimeter;points=[];outlineConnect=0;strokeColor=#ffffff;fontSize=13;" vertex="1" parent="bpu4daQ8uGptTEx4mdCb-331">
          <mxGeometry width="30.07824976045992" height="48.43207045225209" as="geometry" />
        </mxCell>
        <mxCell id="bpu4daQ8uGptTEx4mdCb-335" value="" style="html=1;verticalAlign=bottom;endArrow=block;edgeStyle=elbowEdgeStyle;elbow=vertical;curved=0;rounded=0;exitX=0.5;exitY=1;exitDx=0;exitDy=0;entryX=0.5;entryY=0;entryDx=0;entryDy=0;fontSize=13;" edge="1" parent="1" source="bpu4daQ8uGptTEx4mdCb-237" target="bpu4daQ8uGptTEx4mdCb-244">
          <mxGeometry x="-0.0024" width="80" relative="1" as="geometry">
            <mxPoint x="900" y="-785" as="sourcePoint" />
            <mxPoint x="900" y="-756" as="targetPoint" />
            <mxPoint as="offset" />
            <Array as="points" />
          </mxGeometry>
        </mxCell>
        <mxCell id="bpu4daQ8uGptTEx4mdCb-336" value="" style="html=1;verticalAlign=bottom;endArrow=block;edgeStyle=elbowEdgeStyle;elbow=vertical;curved=0;rounded=0;entryX=0.5;entryY=0;entryDx=0;entryDy=0;exitX=0.5;exitY=1;exitDx=0;exitDy=0;fontSize=13;" edge="1" parent="1" source="bpu4daQ8uGptTEx4mdCb-244" target="bpu4daQ8uGptTEx4mdCb-246">
          <mxGeometry x="-0.0024" width="80" relative="1" as="geometry">
            <mxPoint x="1187" y="-730" as="sourcePoint" />
            <mxPoint x="1197" y="-756" as="targetPoint" />
            <mxPoint as="offset" />
            <Array as="points" />
          </mxGeometry>
        </mxCell>
        <mxCell id="bpu4daQ8uGptTEx4mdCb-337" value="" style="html=1;verticalAlign=bottom;endArrow=block;edgeStyle=elbowEdgeStyle;elbow=vertical;curved=0;rounded=0;exitX=0.75;exitY=1;exitDx=0;exitDy=0;entryX=1;entryY=0.5;entryDx=0;entryDy=0;fontSize=13;" edge="1" parent="1" source="bpu4daQ8uGptTEx4mdCb-287" target="bpu4daQ8uGptTEx4mdCb-238">
          <mxGeometry x="-0.0024" width="80" relative="1" as="geometry">
            <mxPoint x="1197" y="-726" as="sourcePoint" />
            <mxPoint x="1106" y="-130" as="targetPoint" />
            <mxPoint as="offset" />
            <Array as="points">
              <mxPoint x="1036" y="-700" />
            </Array>
          </mxGeometry>
        </mxCell>
        <mxCell id="bpu4daQ8uGptTEx4mdCb-338" value="" style="html=1;verticalAlign=bottom;endArrow=block;edgeStyle=elbowEdgeStyle;elbow=vertical;curved=0;rounded=0;exitX=0;exitY=0.5;exitDx=0;exitDy=0;entryX=0;entryY=0.5;entryDx=0;entryDy=0;fontSize=13;" edge="1" parent="1" source="bpu4daQ8uGptTEx4mdCb-229" target="bpu4daQ8uGptTEx4mdCb-329">
          <mxGeometry x="-0.0024" width="80" relative="1" as="geometry">
            <mxPoint x="1197" y="-667" as="sourcePoint" />
            <mxPoint x="1198" y="-638" as="targetPoint" />
            <mxPoint as="offset" />
            <Array as="points">
              <mxPoint x="766" y="-640" />
            </Array>
          </mxGeometry>
        </mxCell>
        <mxCell id="bpu4daQ8uGptTEx4mdCb-339" value="" style="html=1;verticalAlign=bottom;endArrow=block;edgeStyle=elbowEdgeStyle;elbow=vertical;curved=0;rounded=0;entryX=0.5;entryY=0;entryDx=0;entryDy=0;exitX=0.5;exitY=1;exitDx=0;exitDy=0;fontSize=13;" edge="1" parent="1" source="bpu4daQ8uGptTEx4mdCb-246">
          <mxGeometry x="-0.0024" width="80" relative="1" as="geometry">
            <mxPoint x="1187" y="-680" as="sourcePoint" />
            <mxPoint x="1186.9310344827586" y="-648.4499999999998" as="targetPoint" />
            <mxPoint as="offset" />
            <Array as="points" />
          </mxGeometry>
        </mxCell>
        <mxCell id="bpu4daQ8uGptTEx4mdCb-340" value="" style="html=1;verticalAlign=bottom;endArrow=block;edgeStyle=elbowEdgeStyle;elbow=vertical;curved=0;rounded=0;exitX=0.5;exitY=1;exitDx=0;exitDy=0;fontSize=13;" edge="1" parent="1" source="bpu4daQ8uGptTEx4mdCb-241" target="bpu4daQ8uGptTEx4mdCb-245">
          <mxGeometry x="-0.0024" width="80" relative="1" as="geometry">
            <mxPoint x="1224" y="-784" as="sourcePoint" />
            <mxPoint x="1224" y="-756" as="targetPoint" />
            <mxPoint as="offset" />
            <Array as="points" />
          </mxGeometry>
        </mxCell>
        <mxCell id="bpu4daQ8uGptTEx4mdCb-341" value="" style="html=1;verticalAlign=bottom;endArrow=block;edgeStyle=elbowEdgeStyle;elbow=vertical;curved=0;rounded=0;exitX=0.5;exitY=1;exitDx=0;exitDy=0;entryX=0.5;entryY=0;entryDx=0;entryDy=0;fontSize=13;" edge="1" parent="1" source="bpu4daQ8uGptTEx4mdCb-245" target="bpu4daQ8uGptTEx4mdCb-257">
          <mxGeometry x="-0.0024" width="80" relative="1" as="geometry">
            <mxPoint x="1432" y="-784" as="sourcePoint" />
            <mxPoint x="1432" y="-758" as="targetPoint" />
            <mxPoint as="offset" />
            <Array as="points" />
          </mxGeometry>
        </mxCell>
        <mxCell id="bpu4daQ8uGptTEx4mdCb-342" value="" style="html=1;verticalAlign=bottom;endArrow=block;edgeStyle=elbowEdgeStyle;elbow=vertical;curved=0;rounded=0;exitX=0.5;exitY=1;exitDx=0;exitDy=0;entryX=0.5;entryY=0;entryDx=0;entryDy=0;fontSize=13;" edge="1" parent="1" source="bpu4daQ8uGptTEx4mdCb-257" target="bpu4daQ8uGptTEx4mdCb-253">
          <mxGeometry x="-0.0024" width="80" relative="1" as="geometry">
            <mxPoint x="1432" y="-728" as="sourcePoint" />
            <mxPoint x="1432" y="-698" as="targetPoint" />
            <mxPoint as="offset" />
            <Array as="points" />
          </mxGeometry>
        </mxCell>
        <mxCell id="bpu4daQ8uGptTEx4mdCb-343" value="" style="html=1;verticalAlign=bottom;endArrow=block;edgeStyle=elbowEdgeStyle;elbow=vertical;curved=0;rounded=0;exitX=0.5;exitY=1;exitDx=0;exitDy=0;fontSize=13;" edge="1" parent="1" source="bpu4daQ8uGptTEx4mdCb-260" target="bpu4daQ8uGptTEx4mdCb-282">
          <mxGeometry x="-0.0024" width="80" relative="1" as="geometry">
            <mxPoint x="1405" y="-784" as="sourcePoint" />
            <mxPoint x="1405" y="-758" as="targetPoint" />
            <mxPoint as="offset" />
            <Array as="points" />
          </mxGeometry>
        </mxCell>
        <mxCell id="bpu4daQ8uGptTEx4mdCb-344" value="" style="html=1;verticalAlign=bottom;endArrow=block;edgeStyle=elbowEdgeStyle;elbow=vertical;curved=0;rounded=0;entryX=0.5;entryY=0;entryDx=0;entryDy=0;fontSize=13;" edge="1" parent="1" target="bpu4daQ8uGptTEx4mdCb-283">
          <mxGeometry x="-0.0024" width="80" relative="1" as="geometry">
            <mxPoint x="1686" y="-740" as="sourcePoint" />
            <mxPoint x="1696" y="-758" as="targetPoint" />
            <mxPoint as="offset" />
            <Array as="points" />
          </mxGeometry>
        </mxCell>
        <mxCell id="bpu4daQ8uGptTEx4mdCb-345" value="" style="html=1;verticalAlign=bottom;endArrow=block;edgeStyle=elbowEdgeStyle;elbow=vertical;curved=0;rounded=0;entryX=0.5;entryY=0;entryDx=0;entryDy=0;exitX=0.5;exitY=1;exitDx=0;exitDy=0;fontSize=13;" edge="1" parent="1" source="bpu4daQ8uGptTEx4mdCb-283" target="bpu4daQ8uGptTEx4mdCb-284">
          <mxGeometry x="-0.0024" width="80" relative="1" as="geometry">
            <mxPoint x="1696" y="-730" as="sourcePoint" />
            <mxPoint x="1696" y="-701" as="targetPoint" />
            <mxPoint as="offset" />
            <Array as="points" />
          </mxGeometry>
        </mxCell>
        <mxCell id="bpu4daQ8uGptTEx4mdCb-346" value="" style="html=1;verticalAlign=bottom;endArrow=block;edgeStyle=elbowEdgeStyle;elbow=vertical;curved=0;rounded=0;exitX=1;exitY=0.5;exitDx=0;exitDy=0;fontSize=13;" edge="1" parent="1" source="bpu4daQ8uGptTEx4mdCb-284" target="bpu4daQ8uGptTEx4mdCb-268">
          <mxGeometry x="-0.0024" width="80" relative="1" as="geometry">
            <mxPoint x="1696" y="-630" as="sourcePoint" />
            <mxPoint x="1696" y="-639" as="targetPoint" />
            <mxPoint as="offset" />
            <Array as="points">
              <mxPoint x="1786" y="-634" />
            </Array>
          </mxGeometry>
        </mxCell>
        <mxCell id="bpu4daQ8uGptTEx4mdCb-347" value="" style="html=1;verticalAlign=bottom;endArrow=block;edgeStyle=elbowEdgeStyle;elbow=vertical;curved=0;rounded=0;entryX=0.5;entryY=0;entryDx=0;entryDy=0;exitX=0.5;exitY=1;exitDx=0;exitDy=0;fontSize=13;" edge="1" parent="1" source="bpu4daQ8uGptTEx4mdCb-284" target="bpu4daQ8uGptTEx4mdCb-263">
          <mxGeometry x="-0.0024" width="80" relative="1" as="geometry">
            <mxPoint x="1696" y="-671" as="sourcePoint" />
            <mxPoint x="1696" y="-639" as="targetPoint" />
            <mxPoint as="offset" />
            <Array as="points" />
          </mxGeometry>
        </mxCell>
        <mxCell id="bpu4daQ8uGptTEx4mdCb-348" value="" style="html=1;verticalAlign=bottom;endArrow=block;edgeStyle=elbowEdgeStyle;elbow=vertical;curved=0;rounded=0;entryX=0.5;entryY=0;entryDx=0;entryDy=0;exitX=0.5;exitY=1;exitDx=0;exitDy=0;fontSize=13;" edge="1" parent="1" source="bpu4daQ8uGptTEx4mdCb-263" target="bpu4daQ8uGptTEx4mdCb-280">
          <mxGeometry x="-0.0024" width="80" relative="1" as="geometry">
            <mxPoint x="1696" y="-609" as="sourcePoint" />
            <mxPoint x="1696" y="-581" as="targetPoint" />
            <mxPoint as="offset" />
            <Array as="points" />
          </mxGeometry>
        </mxCell>
        <mxCell id="bpu4daQ8uGptTEx4mdCb-349" value="" style="html=1;verticalAlign=bottom;endArrow=block;edgeStyle=elbowEdgeStyle;elbow=vertical;curved=0;rounded=0;entryX=0.5;entryY=0;entryDx=0;entryDy=0;exitX=0.5;exitY=1;exitDx=0;exitDy=0;fontSize=13;" edge="1" parent="1" source="bpu4daQ8uGptTEx4mdCb-280" target="bpu4daQ8uGptTEx4mdCb-264">
          <mxGeometry x="-0.0024" width="80" relative="1" as="geometry">
            <mxPoint x="1696" y="-551" as="sourcePoint" />
            <mxPoint x="1696" y="-522" as="targetPoint" />
            <mxPoint as="offset" />
            <Array as="points" />
          </mxGeometry>
        </mxCell>
        <mxCell id="bpu4daQ8uGptTEx4mdCb-350" value="" style="html=1;verticalAlign=bottom;endArrow=block;edgeStyle=elbowEdgeStyle;elbow=vertical;curved=0;rounded=0;exitX=1;exitY=0.5;exitDx=0;exitDy=0;entryX=0.5;entryY=0;entryDx=0;entryDy=0;fontSize=13;" edge="1" parent="1" source="bpu4daQ8uGptTEx4mdCb-280" target="bpu4daQ8uGptTEx4mdCb-268">
          <mxGeometry x="-0.0024" width="80" relative="1" as="geometry">
            <mxPoint x="1706" y="-624" as="sourcePoint" />
            <mxPoint x="1886" y="-342" as="targetPoint" />
            <mxPoint as="offset" />
            <Array as="points">
              <mxPoint x="1786" y="-517" />
            </Array>
          </mxGeometry>
        </mxCell>
        <mxCell id="bpu4daQ8uGptTEx4mdCb-351" value="" style="html=1;verticalAlign=bottom;endArrow=block;edgeStyle=elbowEdgeStyle;elbow=vertical;curved=0;rounded=0;entryX=0.5;entryY=0;entryDx=0;entryDy=0;exitX=0.5;exitY=1;exitDx=0;exitDy=0;fontSize=13;" edge="1" parent="1" source="bpu4daQ8uGptTEx4mdCb-264" target="bpu4daQ8uGptTEx4mdCb-265">
          <mxGeometry x="-0.0024" width="80" relative="1" as="geometry">
            <mxPoint x="1686" y="-440" as="sourcePoint" />
            <mxPoint x="1696" y="-467" as="targetPoint" />
            <mxPoint as="offset" />
            <Array as="points" />
          </mxGeometry>
        </mxCell>
        <mxCell id="bpu4daQ8uGptTEx4mdCb-352" value="" style="html=1;verticalAlign=bottom;endArrow=block;edgeStyle=elbowEdgeStyle;elbow=vertical;curved=0;rounded=0;entryX=0;entryY=0.5;entryDx=0;entryDy=0;exitX=1;exitY=0.5;exitDx=0;exitDy=0;fontSize=13;" edge="1" parent="1" source="bpu4daQ8uGptTEx4mdCb-265" target="bpu4daQ8uGptTEx4mdCb-268">
          <mxGeometry x="-0.0024" width="80" relative="1" as="geometry">
            <mxPoint x="1696" y="-437" as="sourcePoint" />
            <mxPoint x="1696" y="-406" as="targetPoint" />
            <mxPoint as="offset" />
            <Array as="points" />
          </mxGeometry>
        </mxCell>
        <mxCell id="bpu4daQ8uGptTEx4mdCb-353" value="" style="html=1;verticalAlign=bottom;endArrow=block;edgeStyle=elbowEdgeStyle;elbow=vertical;curved=0;rounded=0;exitX=0.5;exitY=1;exitDx=0;exitDy=0;fontSize=13;" edge="1" parent="1" source="bpu4daQ8uGptTEx4mdCb-265">
          <mxGeometry x="-0.0024" width="80" relative="1" as="geometry">
            <mxPoint x="1706" y="-391" as="sourcePoint" />
            <mxPoint x="1686" y="-360" as="targetPoint" />
            <mxPoint as="offset" />
            <Array as="points" />
          </mxGeometry>
        </mxCell>
        <mxCell id="bpu4daQ8uGptTEx4mdCb-354" value="" style="html=1;verticalAlign=bottom;endArrow=block;edgeStyle=elbowEdgeStyle;elbow=vertical;curved=0;rounded=0;exitX=0.5;exitY=1;exitDx=0;exitDy=0;fontSize=13;" edge="1" parent="1" source="bpu4daQ8uGptTEx4mdCb-268" target="bpu4daQ8uGptTEx4mdCb-267">
          <mxGeometry x="-0.0024" width="80" relative="1" as="geometry">
            <mxPoint x="1696" y="-376" as="sourcePoint" />
            <mxPoint x="1756" y="-350" as="targetPoint" />
            <mxPoint as="offset" />
            <Array as="points">
              <mxPoint x="1826" y="-345" />
              <mxPoint x="1816" y="-340" />
            </Array>
          </mxGeometry>
        </mxCell>
        <mxCell id="bpu4daQ8uGptTEx4mdCb-355" value="" style="html=1;verticalAlign=bottom;endArrow=block;edgeStyle=elbowEdgeStyle;elbow=vertical;curved=0;rounded=0;entryX=0.5;entryY=0;entryDx=0;entryDy=0;exitX=0.5;exitY=1;exitDx=0;exitDy=0;fontSize=13;" edge="1" parent="1" source="bpu4daQ8uGptTEx4mdCb-290" target="bpu4daQ8uGptTEx4mdCb-269">
          <mxGeometry x="-0.0024" width="80" relative="1" as="geometry">
            <mxPoint x="1706" y="-595.85" as="sourcePoint" />
            <mxPoint x="1886" y="-377.85" as="targetPoint" />
            <mxPoint as="offset" />
            <Array as="points">
              <mxPoint x="2140" y="-761.85" />
            </Array>
          </mxGeometry>
        </mxCell>
        <mxCell id="bpu4daQ8uGptTEx4mdCb-356" value="" style="html=1;verticalAlign=bottom;endArrow=block;edgeStyle=elbowEdgeStyle;elbow=vertical;curved=0;rounded=0;entryX=0.5;entryY=0;entryDx=0;entryDy=0;exitX=0.5;exitY=1;exitDx=0;exitDy=0;fontSize=13;" edge="1" parent="1" source="bpu4daQ8uGptTEx4mdCb-269" target="bpu4daQ8uGptTEx4mdCb-271">
          <mxGeometry x="-0.0024" width="80" relative="1" as="geometry">
            <mxPoint x="2141" y="-721.85" as="sourcePoint" />
            <mxPoint x="2151" y="-749.85" as="targetPoint" />
            <mxPoint as="offset" />
            <Array as="points" />
          </mxGeometry>
        </mxCell>
        <mxCell id="bpu4daQ8uGptTEx4mdCb-357" value="" style="html=1;verticalAlign=bottom;endArrow=block;edgeStyle=elbowEdgeStyle;elbow=vertical;curved=0;rounded=0;entryX=0.5;entryY=0;entryDx=0;entryDy=0;fontSize=13;" edge="1" parent="1" source="bpu4daQ8uGptTEx4mdCb-271" target="bpu4daQ8uGptTEx4mdCb-270">
          <mxGeometry x="-0.0024" width="80" relative="1" as="geometry">
            <mxPoint x="2141" y="-671.85" as="sourcePoint" />
            <mxPoint x="2151" y="-692.85" as="targetPoint" />
            <mxPoint as="offset" />
            <Array as="points" />
          </mxGeometry>
        </mxCell>
        <mxCell id="bpu4daQ8uGptTEx4mdCb-358" value="" style="html=1;verticalAlign=bottom;endArrow=block;edgeStyle=elbowEdgeStyle;elbow=vertical;curved=0;rounded=0;entryX=0.5;entryY=0;entryDx=0;entryDy=0;exitX=0.5;exitY=1;exitDx=0;exitDy=0;fontSize=13;" edge="1" parent="1" source="bpu4daQ8uGptTEx4mdCb-270" target="bpu4daQ8uGptTEx4mdCb-272">
          <mxGeometry x="-0.0024" width="80" relative="1" as="geometry">
            <mxPoint x="2151" y="-662.85" as="sourcePoint" />
            <mxPoint x="2151" y="-638.85" as="targetPoint" />
            <mxPoint as="offset" />
            <Array as="points" />
          </mxGeometry>
        </mxCell>
        <mxCell id="bpu4daQ8uGptTEx4mdCb-359" value="" style="html=1;verticalAlign=bottom;endArrow=block;edgeStyle=elbowEdgeStyle;elbow=vertical;curved=0;rounded=0;entryX=0.5;entryY=0;entryDx=0;entryDy=0;exitX=0.5;exitY=1;exitDx=0;exitDy=0;fontSize=13;" edge="1" parent="1" source="bpu4daQ8uGptTEx4mdCb-272" target="bpu4daQ8uGptTEx4mdCb-293">
          <mxGeometry x="-0.0024" width="80" relative="1" as="geometry">
            <mxPoint x="2151" y="-608.85" as="sourcePoint" />
            <mxPoint x="2151" y="-585.85" as="targetPoint" />
            <mxPoint as="offset" />
            <Array as="points" />
          </mxGeometry>
        </mxCell>
        <mxCell id="bpu4daQ8uGptTEx4mdCb-360" value="" style="html=1;verticalAlign=bottom;endArrow=block;edgeStyle=elbowEdgeStyle;elbow=vertical;curved=0;rounded=0;exitX=0;exitY=0.5;exitDx=0;exitDy=0;entryX=1;entryY=0.5;entryDx=0;entryDy=0;fontSize=13;" edge="1" parent="1" source="bpu4daQ8uGptTEx4mdCb-270" target="bpu4daQ8uGptTEx4mdCb-361">
          <mxGeometry x="-0.0024" width="80" relative="1" as="geometry">
            <mxPoint x="2151" y="-608.85" as="sourcePoint" />
            <mxPoint x="1976" y="-591.85" as="targetPoint" />
            <mxPoint as="offset" />
            <Array as="points">
              <mxPoint x="2056" y="-633.85" />
            </Array>
          </mxGeometry>
        </mxCell>
        <mxCell id="bpu4daQ8uGptTEx4mdCb-361" value="print error" style="html=1;whiteSpace=wrap;fontSize=13;" vertex="1" parent="1">
          <mxGeometry x="1941" y="-648.8" width="130" height="30" as="geometry" />
        </mxCell>
        <mxCell id="bpu4daQ8uGptTEx4mdCb-362" value="&amp;nbsp; &amp;nbsp;Worker Profile Management" style="shape=note;whiteSpace=wrap;html=1;backgroundOutline=1;darkOpacity=0.05;align=left;size=14;fontSize=13;" vertex="1" parent="1">
          <mxGeometry x="-2088" y="-910" width="179" height="30" as="geometry" />
        </mxCell>
        <mxCell id="bpu4daQ8uGptTEx4mdCb-363" value="" style="html=1;verticalAlign=bottom;endArrow=block;edgeStyle=elbowEdgeStyle;elbow=vertical;curved=0;rounded=0;entryX=0.5;entryY=0;entryDx=0;entryDy=0;exitX=0.361;exitY=0.542;exitDx=0;exitDy=0;exitPerimeter=0;fontSize=13;" edge="1" parent="1" source="bpu4daQ8uGptTEx4mdCb-2" target="bpu4daQ8uGptTEx4mdCb-4">
          <mxGeometry x="-0.0024" width="80" relative="1" as="geometry">
            <mxPoint x="28" y="283" as="sourcePoint" />
            <mxPoint x="33" y="-860" as="targetPoint" />
            <mxPoint as="offset" />
          </mxGeometry>
        </mxCell>
        <mxCell id="bpu4daQ8uGptTEx4mdCb-365" value="" style="html=1;verticalAlign=bottom;endArrow=block;edgeStyle=elbowEdgeStyle;elbow=vertical;curved=0;rounded=0;exitX=0.5;exitY=1;exitDx=0;exitDy=0;fontSize=13;entryX=0.158;entryY=0.966;entryDx=0;entryDy=0;entryPerimeter=0;" edge="1" parent="1" source="bpu4daQ8uGptTEx4mdCb-168" target="bpu4daQ8uGptTEx4mdCb-2">
          <mxGeometry x="-0.0024" width="80" relative="1" as="geometry">
            <mxPoint x="-1988" y="120" as="sourcePoint" />
            <mxPoint x="-1358" y="280" as="targetPoint" />
            <mxPoint as="offset" />
            <Array as="points" />
          </mxGeometry>
        </mxCell>
        <mxCell id="bpu4daQ8uGptTEx4mdCb-366" value="" style="html=1;verticalAlign=bottom;endArrow=block;edgeStyle=elbowEdgeStyle;elbow=vertical;curved=0;rounded=0;fontSize=13;" edge="1" parent="1">
          <mxGeometry x="-0.0024" width="80" relative="1" as="geometry">
            <mxPoint x="650" y="90" as="sourcePoint" />
            <mxPoint x="650" y="280" as="targetPoint" />
            <mxPoint as="offset" />
            <Array as="points" />
          </mxGeometry>
        </mxCell>
        <mxCell id="bpu4daQ8uGptTEx4mdCb-367" value="" style="html=1;verticalAlign=bottom;endArrow=block;edgeStyle=elbowEdgeStyle;elbow=vertical;curved=0;rounded=0;exitX=0.5;exitY=1;exitDx=0;exitDy=0;entryX=0.684;entryY=0.958;entryDx=0;entryDy=0;entryPerimeter=0;fontSize=13;" edge="1" parent="1" source="bpu4daQ8uGptTEx4mdCb-248">
          <mxGeometry x="-0.0024" width="80" relative="1" as="geometry">
            <mxPoint x="660" y="100" as="sourcePoint" />
            <mxPoint x="1186.1599999999999" y="287.66399999999976" as="targetPoint" />
            <mxPoint as="offset" />
            <Array as="points" />
          </mxGeometry>
        </mxCell>
        <mxCell id="bpu4daQ8uGptTEx4mdCb-368" value="" style="html=1;verticalAlign=bottom;endArrow=block;edgeStyle=elbowEdgeStyle;elbow=vertical;curved=0;rounded=0;exitX=0.5;exitY=1;exitDx=0;exitDy=0;fontSize=13;" edge="1" parent="1" source="bpu4daQ8uGptTEx4mdCb-253">
          <mxGeometry x="-0.0024" width="80" relative="1" as="geometry">
            <mxPoint x="1225" y="-598" as="sourcePoint" />
            <mxPoint x="1422" y="280" as="targetPoint" />
            <mxPoint as="offset" />
            <Array as="points" />
          </mxGeometry>
        </mxCell>
        <mxCell id="bpu4daQ8uGptTEx4mdCb-369" value="" style="html=1;verticalAlign=bottom;endArrow=block;edgeStyle=elbowEdgeStyle;elbow=vertical;curved=0;rounded=0;exitX=0.5;exitY=1;exitDx=0;exitDy=0;fontSize=13;" edge="1" parent="1" source="bpu4daQ8uGptTEx4mdCb-267">
          <mxGeometry x="-0.0024" width="80" relative="1" as="geometry">
            <mxPoint x="1405" y="-598" as="sourcePoint" />
            <mxPoint x="1686" y="280" as="targetPoint" />
            <mxPoint as="offset" />
            <Array as="points" />
          </mxGeometry>
        </mxCell>
        <mxCell id="bpu4daQ8uGptTEx4mdCb-370" value="" style="html=1;verticalAlign=bottom;endArrow=block;edgeStyle=elbowEdgeStyle;elbow=vertical;curved=0;rounded=0;fontSize=13;" edge="1" parent="1">
          <mxGeometry x="-0.0024" width="80" relative="1" as="geometry">
            <mxPoint x="2144" y="-510" as="sourcePoint" />
            <mxPoint x="2144" y="284" as="targetPoint" />
            <mxPoint as="offset" />
            <Array as="points" />
          </mxGeometry>
        </mxCell>
        <mxCell id="bpu4daQ8uGptTEx4mdCb-371" value="" style="html=1;verticalAlign=bottom;endArrow=block;edgeStyle=elbowEdgeStyle;elbow=vertical;curved=0;rounded=0;exitX=0;exitY=0.5;exitDx=0;exitDy=0;entryX=1;entryY=0.5;entryDx=0;entryDy=0;fontSize=13;" edge="1" parent="1" source="bpu4daQ8uGptTEx4mdCb-361" target="bpu4daQ8uGptTEx4mdCb-291">
          <mxGeometry x="-0.0024" width="80" relative="1" as="geometry">
            <mxPoint x="2154" y="-500" as="sourcePoint" />
            <mxPoint x="2036" y="-350" as="targetPoint" />
            <mxPoint as="offset" />
            <Array as="points">
              <mxPoint x="1916" y="-640" />
              <mxPoint x="2006" y="-809" />
            </Array>
          </mxGeometry>
        </mxCell>
        <mxCell id="bpu4daQ8uGptTEx4mdCb-372" value="" style="html=1;verticalAlign=bottom;endArrow=block;edgeStyle=elbowEdgeStyle;elbow=vertical;curved=0;rounded=0;exitX=0.5;exitY=1;exitDx=0;exitDy=0;entryX=0.614;entryY=0.292;entryDx=0;entryDy=0;entryPerimeter=0;fontSize=13;" edge="1" parent="1" source="bpu4daQ8uGptTEx4mdCb-229">
          <mxGeometry x="-0.0024" width="80" relative="1" as="geometry">
            <mxPoint x="1198" y="-598" as="sourcePoint" />
            <mxPoint x="889.3599999999997" y="282.33600000000024" as="targetPoint" />
            <mxPoint as="offset" />
            <Array as="points">
              <mxPoint x="876" y="90" />
            </Array>
          </mxGeometry>
        </mxCell>
        <mxCell id="bpu4daQ8uGptTEx4mdCb-373" value="Y" style="text;html=1;strokeColor=none;fillColor=none;align=center;verticalAlign=middle;whiteSpace=wrap;rounded=0;fontSize=13;" vertex="1" parent="1">
          <mxGeometry x="1706" y="-660.5" width="20" height="30" as="geometry" />
        </mxCell>
        <mxCell id="bpu4daQ8uGptTEx4mdCb-374" value="N" style="text;html=1;strokeColor=none;fillColor=none;align=center;verticalAlign=middle;whiteSpace=wrap;rounded=0;fontSize=13;" vertex="1" parent="1">
          <mxGeometry x="1696" y="-618.8" width="20" height="30" as="geometry" />
        </mxCell>
        <mxCell id="bpu4daQ8uGptTEx4mdCb-375" value="Y" style="text;html=1;strokeColor=none;fillColor=none;align=center;verticalAlign=middle;whiteSpace=wrap;rounded=0;fontSize=13;" vertex="1" parent="1">
          <mxGeometry x="1696.21" y="-539" width="20" height="20.5" as="geometry" />
        </mxCell>
        <mxCell id="bpu4daQ8uGptTEx4mdCb-376" value="N" style="text;html=1;strokeColor=none;fillColor=none;align=center;verticalAlign=middle;whiteSpace=wrap;rounded=0;fontSize=13;" vertex="1" parent="1">
          <mxGeometry x="1686" y="-508.94999999999993" width="20" height="30" as="geometry" />
        </mxCell>
        <mxCell id="bpu4daQ8uGptTEx4mdCb-377" value="Y" style="text;html=1;strokeColor=none;fillColor=none;align=center;verticalAlign=middle;whiteSpace=wrap;rounded=0;fontSize=13;" vertex="1" parent="1">
          <mxGeometry x="1696" y="-417.8" width="20" height="20.5" as="geometry" />
        </mxCell>
        <mxCell id="bpu4daQ8uGptTEx4mdCb-378" value="N" style="text;html=1;strokeColor=none;fillColor=none;align=center;verticalAlign=middle;whiteSpace=wrap;rounded=0;fontSize=13;" vertex="1" parent="1">
          <mxGeometry x="1686" y="-389.99999999999994" width="20" height="30" as="geometry" />
        </mxCell>
        <mxCell id="bpu4daQ8uGptTEx4mdCb-379" value="is data?" style="text;html=1;strokeColor=none;fillColor=none;align=center;verticalAlign=middle;whiteSpace=wrap;rounded=0;fontSize=13;" vertex="1" parent="1">
          <mxGeometry x="2066" y="-664.35" width="84.21" height="23.4" as="geometry" />
        </mxCell>
        <mxCell id="bpu4daQ8uGptTEx4mdCb-380" value="N" style="text;html=1;strokeColor=none;fillColor=none;align=center;verticalAlign=middle;whiteSpace=wrap;rounded=0;fontSize=13;" vertex="1" parent="1">
          <mxGeometry x="2046" y="-676.9499999999999" width="20" height="30" as="geometry" />
        </mxCell>
        <mxCell id="bpu4daQ8uGptTEx4mdCb-381" value="Y" style="text;html=1;strokeColor=none;fillColor=none;align=center;verticalAlign=middle;whiteSpace=wrap;rounded=0;fontSize=13;" vertex="1" parent="1">
          <mxGeometry x="2111.44" y="-618.8" width="20" height="30" as="geometry" />
        </mxCell>
        <mxCell id="bpu4daQ8uGptTEx4mdCb-382" value="Y" style="text;html=1;strokeColor=none;fillColor=none;align=center;verticalAlign=middle;whiteSpace=wrap;rounded=0;fontSize=13;" vertex="1" parent="1">
          <mxGeometry x="1190" y="-676.95" width="20" height="30" as="geometry" />
        </mxCell>
        <mxCell id="bpu4daQ8uGptTEx4mdCb-383" value="N" style="text;html=1;strokeColor=none;fillColor=none;align=center;verticalAlign=middle;whiteSpace=wrap;rounded=0;fontSize=13;" vertex="1" parent="1">
          <mxGeometry x="1101.04" y="-710.9999999999999" width="20" height="30" as="geometry" />
        </mxCell>
        <mxCell id="bpu4daQ8uGptTEx4mdCb-384" value="Y" style="text;html=1;strokeColor=none;fillColor=none;align=center;verticalAlign=middle;whiteSpace=wrap;rounded=0;fontSize=13;" vertex="1" parent="1">
          <mxGeometry x="1424.04" y="-673.35" width="20" height="30" as="geometry" />
        </mxCell>
        <mxCell id="bpu4daQ8uGptTEx4mdCb-385" value="" style="html=1;verticalAlign=bottom;endArrow=block;edgeStyle=elbowEdgeStyle;elbow=vertical;curved=0;rounded=0;exitX=0;exitY=0.5;exitDx=0;exitDy=0;entryX=1;entryY=0.5;entryDx=0;entryDy=0;fontSize=13;" edge="1" parent="1" source="bpu4daQ8uGptTEx4mdCb-257" target="bpu4daQ8uGptTEx4mdCb-242">
          <mxGeometry x="-0.0024" width="80" relative="1" as="geometry">
            <mxPoint x="1413" y="-690" as="sourcePoint" />
            <mxPoint x="1313" y="-80" as="targetPoint" />
            <mxPoint as="offset" />
            <Array as="points">
              <mxPoint x="1286" y="-750" />
              <mxPoint x="1373" y="-693" />
              <mxPoint x="1163" y="-681" />
            </Array>
          </mxGeometry>
        </mxCell>
        <mxCell id="bpu4daQ8uGptTEx4mdCb-386" value="N" style="text;html=1;strokeColor=none;fillColor=none;align=center;verticalAlign=middle;whiteSpace=wrap;rounded=0;fontSize=13;" vertex="1" parent="1">
          <mxGeometry x="1392.21" y="-691" width="20" height="26.65" as="geometry" />
        </mxCell>
        <mxCell id="bpu4daQ8uGptTEx4mdCb-387" value="Y" style="text;html=1;strokeColor=none;fillColor=none;align=center;verticalAlign=middle;whiteSpace=wrap;rounded=0;fontSize=13;" vertex="1" parent="1">
          <mxGeometry x="484.7" y="-727.65" width="20" height="30" as="geometry" />
        </mxCell>
        <mxCell id="bpu4daQ8uGptTEx4mdCb-388" value="Y" style="text;html=1;strokeColor=none;fillColor=none;align=center;verticalAlign=middle;whiteSpace=wrap;rounded=0;fontSize=13;" vertex="1" parent="1">
          <mxGeometry x="484.7" y="-671" width="20" height="27.65" as="geometry" />
        </mxCell>
        <mxCell id="bpu4daQ8uGptTEx4mdCb-389" value="Y" style="text;html=1;strokeColor=none;fillColor=none;align=center;verticalAlign=middle;whiteSpace=wrap;rounded=0;fontSize=13;" vertex="1" parent="1">
          <mxGeometry x="484.24" y="-618.8" width="20" height="27.65" as="geometry" />
        </mxCell>
        <mxCell id="bpu4daQ8uGptTEx4mdCb-390" value="Y" style="text;html=1;strokeColor=none;fillColor=none;align=center;verticalAlign=middle;whiteSpace=wrap;rounded=0;fontSize=13;" vertex="1" parent="1">
          <mxGeometry x="454" y="-517.65" width="20" height="27.65" as="geometry" />
        </mxCell>
        <mxCell id="bpu4daQ8uGptTEx4mdCb-391" value="N" style="text;html=1;strokeColor=none;fillColor=none;align=center;verticalAlign=middle;whiteSpace=wrap;rounded=0;fontSize=13;" vertex="1" parent="1">
          <mxGeometry x="451" y="-695.9999999999999" width="20" height="30" as="geometry" />
        </mxCell>
        <mxCell id="bpu4daQ8uGptTEx4mdCb-392" value="N" style="text;html=1;strokeColor=none;fillColor=none;align=center;verticalAlign=middle;whiteSpace=wrap;rounded=0;fontSize=13;" vertex="1" parent="1">
          <mxGeometry x="454" y="-643.4499999999999" width="20" height="30" as="geometry" />
        </mxCell>
        <mxCell id="bpu4daQ8uGptTEx4mdCb-393" value="N" style="text;html=1;strokeColor=none;fillColor=none;align=center;verticalAlign=middle;whiteSpace=wrap;rounded=0;fontSize=13;" vertex="1" parent="1">
          <mxGeometry x="452.7" y="-588.8" width="20" height="30" as="geometry" />
        </mxCell>
        <mxCell id="bpu4daQ8uGptTEx4mdCb-394" value="N" style="text;html=1;strokeColor=none;fillColor=none;align=center;verticalAlign=middle;whiteSpace=wrap;rounded=0;fontSize=13;" vertex="1" parent="1">
          <mxGeometry x="484.24" y="-550" width="20" height="30" as="geometry" />
        </mxCell>
        <mxCell id="bpu4daQ8uGptTEx4mdCb-395" value="" style="html=1;verticalAlign=bottom;endArrow=block;edgeStyle=elbowEdgeStyle;elbow=vertical;curved=0;rounded=0;exitX=0;exitY=0.5;exitDx=0;exitDy=0;entryX=1;entryY=0.5;entryDx=0;entryDy=0;fontSize=13;" edge="1" parent="1" source="bpu4daQ8uGptTEx4mdCb-267" target="bpu4daQ8uGptTEx4mdCb-261">
          <mxGeometry x="-0.0024" width="80" relative="1" as="geometry">
            <mxPoint x="1886" y="-376" as="sourcePoint" />
            <mxPoint x="1761" y="-335" as="targetPoint" />
            <mxPoint as="offset" />
            <Array as="points">
              <mxPoint x="1546" y="-590" />
              <mxPoint x="1826" y="-330" />
            </Array>
          </mxGeometry>
        </mxCell>
        <mxCell id="bpu4daQ8uGptTEx4mdCb-396" value="" style="html=1;verticalAlign=bottom;endArrow=block;edgeStyle=elbowEdgeStyle;elbow=vertical;curved=0;rounded=0;exitX=0;exitY=0.5;exitDx=0;exitDy=0;entryX=1;entryY=0.5;entryDx=0;entryDy=0;fontSize=13;" edge="1" parent="1" source="bpu4daQ8uGptTEx4mdCb-293" target="bpu4daQ8uGptTEx4mdCb-291">
          <mxGeometry x="-0.0024" width="80" relative="1" as="geometry">
            <mxPoint x="1951" y="-624" as="sourcePoint" />
            <mxPoint x="2094" y="-799" as="targetPoint" />
            <mxPoint as="offset" />
            <Array as="points">
              <mxPoint x="1916" y="-670" />
              <mxPoint x="2016" y="-799" />
            </Array>
          </mxGeometry>
        </mxCell>
        <mxCell id="bpu4daQ8uGptTEx4mdCb-397" value="" style="line;strokeWidth=2;direction=south;html=1;perimeter=backbonePerimeter;points=[];outlineConnect=0;strokeColor=#ffffff;fontSize=13;" vertex="1" parent="1">
          <mxGeometry x="30.000875119769944" y="-1243.7090046784697" width="30.07824976045992" height="48.43207045225209" as="geometry" />
        </mxCell>
        <mxCell id="bpu4daQ8uGptTEx4mdCb-398" value="" style="html=1;verticalAlign=bottom;endArrow=block;edgeStyle=elbowEdgeStyle;elbow=vertical;curved=0;rounded=0;exitX=0.816;exitY=0.629;exitDx=0;exitDy=0;exitPerimeter=0;fontSize=13;" edge="1" parent="1" target="bpu4daQ8uGptTEx4mdCb-399">
          <mxGeometry x="-0.0024" width="80" relative="1" as="geometry">
            <mxPoint x="-72.91800000000029" y="-1262.9979999999998" as="sourcePoint" />
            <mxPoint x="173.57" y="-1226.03" as="targetPoint" />
            <mxPoint as="offset" />
            <Array as="points" />
          </mxGeometry>
        </mxCell>
        <mxCell id="bpu4daQ8uGptTEx4mdCb-399" value="receive report" style="rounded=0;whiteSpace=wrap;html=1;fontSize=13;" vertex="1" parent="1">
          <mxGeometry x="-159.39162488023004" y="-1234.17900467847" width="172.4625" height="41.59" as="geometry" />
        </mxCell>
        <mxCell id="bpu4daQ8uGptTEx4mdCb-400" value="print report" style="html=1;whiteSpace=wrap;fontSize=13;" vertex="1" parent="1">
          <mxGeometry x="-137.72999999999996" y="-1173.49" width="130" height="30" as="geometry" />
        </mxCell>
        <mxCell id="bpu4daQ8uGptTEx4mdCb-401" value="" style="html=1;verticalAlign=bottom;endArrow=block;edgeStyle=elbowEdgeStyle;elbow=vertical;curved=0;rounded=0;exitX=0.5;exitY=1;exitDx=0;exitDy=0;entryX=0.5;entryY=0;entryDx=0;entryDy=0;fontSize=13;" edge="1" parent="1" source="bpu4daQ8uGptTEx4mdCb-399" target="bpu4daQ8uGptTEx4mdCb-400">
          <mxGeometry x="-0.0024" width="80" relative="1" as="geometry">
            <mxPoint x="-380.39" y="-1415.03" as="sourcePoint" />
            <mxPoint x="-381.39" y="-1386.03" as="targetPoint" />
            <mxPoint as="offset" />
            <Array as="points" />
          </mxGeometry>
        </mxCell>
        <mxCell id="bpu4daQ8uGptTEx4mdCb-403" value="" style="triangle;whiteSpace=wrap;html=1;fontSize=13;" vertex="1" parent="1">
          <mxGeometry x="-159.99904907743178" y="-1234.1768933533112" width="30.079243547361724" height="40.89329215464433" as="geometry" />
        </mxCell>
        <mxCell id="bpu4daQ8uGptTEx4mdCb-404" value="receive report error" style="rounded=0;whiteSpace=wrap;html=1;fontSize=13;" vertex="1" parent="1">
          <mxGeometry x="44.998375119769946" y="-1233.88900467847" width="172.4625" height="41.59" as="geometry" />
        </mxCell>
        <mxCell id="bpu4daQ8uGptTEx4mdCb-405" value="" style="triangle;whiteSpace=wrap;html=1;fontSize=13;" vertex="1" parent="1">
          <mxGeometry x="45.00095092256822" y="-1233.1968933533112" width="30.079243547361724" height="40.89329215464433" as="geometry" />
        </mxCell>
        <mxCell id="bpu4daQ8uGptTEx4mdCb-406" value="print report error" style="html=1;whiteSpace=wrap;fontSize=13;" vertex="1" parent="1">
          <mxGeometry x="66.66000000000003" y="-1173.1999999999998" width="130" height="30" as="geometry" />
        </mxCell>
        <mxCell id="bpu4daQ8uGptTEx4mdCb-407" value="" style="html=1;verticalAlign=bottom;endArrow=block;edgeStyle=elbowEdgeStyle;elbow=vertical;curved=0;rounded=0;exitX=0.5;exitY=1;exitDx=0;exitDy=0;entryX=0.5;entryY=0;entryDx=0;entryDy=0;fontSize=13;" edge="1" parent="1" source="bpu4daQ8uGptTEx4mdCb-404" target="bpu4daQ8uGptTEx4mdCb-406">
          <mxGeometry x="-0.0024" width="80" relative="1" as="geometry">
            <mxPoint x="304" y="-1138.1999999999998" as="sourcePoint" />
            <mxPoint x="468" y="-924.1999999999999" as="targetPoint" />
            <mxPoint as="offset" />
            <Array as="points" />
          </mxGeometry>
        </mxCell>
        <mxCell id="bpu4daQ8uGptTEx4mdCb-408" value="" style="html=1;verticalAlign=bottom;endArrow=block;edgeStyle=elbowEdgeStyle;elbow=vertical;curved=0;rounded=0;exitX=0.931;exitY=0.343;exitDx=0;exitDy=0;exitPerimeter=0;fontSize=13;" edge="1" parent="1">
          <mxGeometry x="-0.0024" width="80" relative="1" as="geometry">
            <mxPoint x="128.027" y="-1262.996" as="sourcePoint" />
            <mxPoint x="127.95999999999998" y="-1235.7399999999998" as="targetPoint" />
            <mxPoint as="offset" />
            <Array as="points" />
          </mxGeometry>
        </mxCell>
        <mxCell id="bpu4daQ8uGptTEx4mdCb-410" value="" style="line;strokeWidth=2;direction=south;html=1;perimeter=backbonePerimeter;points=[];outlineConnect=0;strokeColor=#ffffff;fontSize=13;" vertex="1" parent="1">
          <mxGeometry x="-483.80912488022994" y="-836.8390046784699" width="30.07824976045992" height="48.43207045225209" as="geometry" />
        </mxCell>
        <mxCell id="bpu4daQ8uGptTEx4mdCb-411" value="" style="line;strokeWidth=2;direction=south;html=1;perimeter=backbonePerimeter;points=[];outlineConnect=0;strokeColor=#ffffff;fontSize=13;" vertex="1" parent="1">
          <mxGeometry x="30.000875119770058" y="-1234.8590046784698" width="30.07824976045992" height="48.43207045225209" as="geometry" />
        </mxCell>
        <mxCell id="bpu4daQ8uGptTEx4mdCb-413" value="display login menu" style="html=1;whiteSpace=wrap;fontSize=13;" vertex="1" parent="1">
          <mxGeometry x="-624.5" y="-1257" width="131" height="37" as="geometry" />
        </mxCell>
        <mxCell id="bpu4daQ8uGptTEx4mdCb-414" value="" style="html=1;verticalAlign=bottom;endArrow=block;edgeStyle=elbowEdgeStyle;elbow=vertical;curved=0;rounded=0;exitX=0.5;exitY=1;exitDx=0;exitDy=0;fontSize=13;" edge="1" parent="1" source="bpu4daQ8uGptTEx4mdCb-18">
          <mxGeometry x="-0.0024" width="80" relative="1" as="geometry">
            <mxPoint x="-545" y="-1387" as="sourcePoint" />
            <mxPoint x="-556" y="-1260" as="targetPoint" />
            <mxPoint as="offset" />
            <Array as="points">
              <mxPoint x="-556" y="-1260" />
            </Array>
          </mxGeometry>
        </mxCell>
        <mxCell id="bpu4daQ8uGptTEx4mdCb-416" value="login" style="html=1;whiteSpace=wrap;fontSize=13;" vertex="1" parent="1">
          <mxGeometry x="-588.77" y="-1003.35" width="70" height="30" as="geometry" />
        </mxCell>
        <mxCell id="bpu4daQ8uGptTEx4mdCb-417" value="" style="html=1;verticalAlign=bottom;endArrow=block;edgeStyle=elbowEdgeStyle;elbow=vertical;curved=0;rounded=0;entryX=0.5;entryY=0;entryDx=0;entryDy=0;exitX=0.5;exitY=1;exitDx=0;exitDy=0;fontSize=13;" edge="1" parent="1" source="bpu4daQ8uGptTEx4mdCb-420" target="bpu4daQ8uGptTEx4mdCb-416">
          <mxGeometry x="-0.0024" width="80" relative="1" as="geometry">
            <mxPoint x="-553.77" y="-1100" as="sourcePoint" />
            <mxPoint x="-543.77" y="-1140" as="targetPoint" />
            <mxPoint as="offset" />
            <Array as="points" />
          </mxGeometry>
        </mxCell>
        <mxCell id="bpu4daQ8uGptTEx4mdCb-418" value="is register?" style="text;html=1;strokeColor=none;fillColor=none;align=center;verticalAlign=middle;whiteSpace=wrap;rounded=0;fontSize=13;" vertex="1" parent="1">
          <mxGeometry x="-638.77" y="-1140" width="65" height="30" as="geometry" />
        </mxCell>
        <mxCell id="bpu4daQ8uGptTEx4mdCb-419" value="" style="html=1;verticalAlign=bottom;endArrow=block;edgeStyle=elbowEdgeStyle;elbow=vertical;curved=0;rounded=0;entryX=0.5;entryY=0;entryDx=0;entryDy=0;fontSize=13;" edge="1" parent="1" target="bpu4daQ8uGptTEx4mdCb-421">
          <mxGeometry x="-0.0024" width="80" relative="1" as="geometry">
            <mxPoint x="-548.77" y="-1124" as="sourcePoint" />
            <mxPoint x="-428.77" y="-1125" as="targetPoint" />
            <mxPoint as="offset" />
            <Array as="points">
              <mxPoint x="-478.77" y="-1124" />
            </Array>
          </mxGeometry>
        </mxCell>
        <mxCell id="bpu4daQ8uGptTEx4mdCb-420" value="" style="rhombus;whiteSpace=wrap;html=1;fontSize=13;" vertex="1" parent="1">
          <mxGeometry x="-563.77" y="-1140" width="20" height="30" as="geometry" />
        </mxCell>
        <mxCell id="bpu4daQ8uGptTEx4mdCb-421" value="display manager register form" style="html=1;whiteSpace=wrap;fontSize=13;" vertex="1" parent="1">
          <mxGeometry x="-483.77" y="-1091.5" width="130" height="30" as="geometry" />
        </mxCell>
        <mxCell id="bpu4daQ8uGptTEx4mdCb-422" value="register manager profile" style="html=1;whiteSpace=wrap;fontSize=13;" vertex="1" parent="1">
          <mxGeometry x="-483.77" y="-991" width="130" height="30" as="geometry" />
        </mxCell>
        <mxCell id="bpu4daQ8uGptTEx4mdCb-423" value="" style="rhombus;whiteSpace=wrap;html=1;fontSize=13;" vertex="1" parent="1">
          <mxGeometry x="-428.77" y="-1041" width="20" height="30" as="geometry" />
        </mxCell>
        <mxCell id="bpu4daQ8uGptTEx4mdCb-424" value="is filled?" style="text;html=1;strokeColor=none;fillColor=none;align=center;verticalAlign=middle;whiteSpace=wrap;rounded=0;fontSize=13;" vertex="1" parent="1">
          <mxGeometry x="-483.77" y="-1051" width="65" height="20" as="geometry" />
        </mxCell>
        <mxCell id="bpu4daQ8uGptTEx4mdCb-425" value="" style="html=1;verticalAlign=bottom;endArrow=block;edgeStyle=elbowEdgeStyle;elbow=vertical;curved=0;rounded=0;exitX=0.5;exitY=1;exitDx=0;exitDy=0;entryX=0.5;entryY=0;entryDx=0;entryDy=0;fontSize=13;" edge="1" parent="1" source="bpu4daQ8uGptTEx4mdCb-421" target="bpu4daQ8uGptTEx4mdCb-423">
          <mxGeometry x="-0.0024" width="80" relative="1" as="geometry">
            <mxPoint x="-543.77" y="-1331" as="sourcePoint" />
            <mxPoint x="-419.77" y="-1041" as="targetPoint" />
            <mxPoint as="offset" />
            <Array as="points" />
          </mxGeometry>
        </mxCell>
        <mxCell id="bpu4daQ8uGptTEx4mdCb-426" value="" style="html=1;verticalAlign=bottom;endArrow=block;edgeStyle=elbowEdgeStyle;elbow=vertical;curved=0;rounded=0;exitX=0.487;exitY=0.949;exitDx=0;exitDy=0;entryX=0.5;entryY=0;entryDx=0;entryDy=0;exitPerimeter=0;fontSize=13;" edge="1" parent="1" source="bpu4daQ8uGptTEx4mdCb-423" target="bpu4daQ8uGptTEx4mdCb-422">
          <mxGeometry x="-0.0024" width="80" relative="1" as="geometry">
            <mxPoint x="-408.77" y="-1051" as="sourcePoint" />
            <mxPoint x="-408.77" y="-1031" as="targetPoint" />
            <mxPoint as="offset" />
            <Array as="points" />
          </mxGeometry>
        </mxCell>
        <mxCell id="bpu4daQ8uGptTEx4mdCb-427" value="" style="html=1;verticalAlign=bottom;endArrow=block;edgeStyle=elbowEdgeStyle;elbow=vertical;curved=0;rounded=0;exitX=0;exitY=0.5;exitDx=0;exitDy=0;entryX=0;entryY=0.5;entryDx=0;entryDy=0;fontSize=13;" edge="1" parent="1" source="bpu4daQ8uGptTEx4mdCb-423" target="bpu4daQ8uGptTEx4mdCb-421">
          <mxGeometry x="-0.0024" width="80" relative="1" as="geometry">
            <mxPoint x="-408.77" y="-1003" as="sourcePoint" />
            <mxPoint x="-408.77" y="-981" as="targetPoint" />
            <mxPoint as="offset" />
            <Array as="points">
              <mxPoint x="-498.77" y="-1051" />
              <mxPoint x="-458.77" y="-1021" />
            </Array>
          </mxGeometry>
        </mxCell>
        <mxCell id="bpu4daQ8uGptTEx4mdCb-428" value="manager" style="text;html=1;strokeColor=none;fillColor=none;align=center;verticalAlign=middle;whiteSpace=wrap;rounded=0;fontSize=13;" vertex="1" parent="1">
          <mxGeometry x="-344.77" y="-1100" width="40" height="20" as="geometry" />
        </mxCell>
        <mxCell id="bpu4daQ8uGptTEx4mdCb-429" value="" style="html=1;verticalAlign=bottom;endArrow=block;edgeStyle=elbowEdgeStyle;elbow=vertical;curved=0;rounded=0;exitX=0;exitY=0.5;exitDx=0;exitDy=0;fontSize=13;" edge="1" parent="1" source="bpu4daQ8uGptTEx4mdCb-422">
          <mxGeometry x="-0.0024" width="80" relative="1" as="geometry">
            <mxPoint x="-543.77" y="-1100" as="sourcePoint" />
            <mxPoint x="-518.77" y="-976" as="targetPoint" />
            <mxPoint as="offset" />
            <Array as="points" />
          </mxGeometry>
        </mxCell>
        <mxCell id="bpu4daQ8uGptTEx4mdCb-431" value="" style="html=1;verticalAlign=bottom;endArrow=block;edgeStyle=elbowEdgeStyle;elbow=vertical;curved=0;rounded=0;fontSize=13;exitX=0.5;exitY=1;exitDx=0;exitDy=0;" edge="1" parent="1" source="bpu4daQ8uGptTEx4mdCb-416">
          <mxGeometry x="-0.0024" width="80" relative="1" as="geometry">
            <mxPoint x="-550" y="-970" as="sourcePoint" />
            <mxPoint x="-554" y="-866" as="targetPoint" />
            <mxPoint as="offset" />
            <Array as="points" />
          </mxGeometry>
        </mxCell>
        <mxCell id="bpu4daQ8uGptTEx4mdCb-53" value="display manager menu" style="html=1;whiteSpace=wrap;fontSize=13;" vertex="1" parent="1">
          <mxGeometry x="-1494" y="-820.46" width="130" height="30" as="geometry" />
        </mxCell>
        <mxCell id="bpu4daQ8uGptTEx4mdCb-56" value="" style="rhombus;whiteSpace=wrap;html=1;fontSize=13;" vertex="1" parent="1">
          <mxGeometry x="-1439" y="-770" width="20" height="30" as="geometry" />
        </mxCell>
        <mxCell id="bpu4daQ8uGptTEx4mdCb-57" value="" style="html=1;verticalAlign=bottom;endArrow=block;edgeStyle=elbowEdgeStyle;elbow=vertical;curved=0;rounded=0;entryX=0.5;entryY=0;entryDx=0;entryDy=0;fontSize=13;" edge="1" parent="1" target="bpu4daQ8uGptTEx4mdCb-56">
          <mxGeometry x="-0.0024" width="80" relative="1" as="geometry">
            <mxPoint x="-1429" y="-790" as="sourcePoint" />
            <mxPoint x="-1319" y="-879" as="targetPoint" />
            <mxPoint as="offset" />
            <Array as="points" />
          </mxGeometry>
        </mxCell>
        <mxCell id="bpu4daQ8uGptTEx4mdCb-58" value="view report" style="html=1;whiteSpace=wrap;fontSize=13;" vertex="1" parent="1">
          <mxGeometry x="-803" y="-630" width="130" height="30" as="geometry" />
        </mxCell>
        <mxCell id="bpu4daQ8uGptTEx4mdCb-59" value="" style="html=1;verticalAlign=bottom;endArrow=block;edgeStyle=elbowEdgeStyle;elbow=vertical;curved=0;rounded=0;exitX=0.5;exitY=1;exitDx=0;exitDy=0;entryX=0.5;entryY=0;entryDx=0;entryDy=0;fontSize=13;" edge="1" parent="1" source="bpu4daQ8uGptTEx4mdCb-56" target="bpu4daQ8uGptTEx4mdCb-126">
          <mxGeometry x="-0.0024" width="80" relative="1" as="geometry">
            <mxPoint x="-1514" y="-844" as="sourcePoint" />
            <mxPoint x="-1419" y="-810" as="targetPoint" />
            <mxPoint as="offset" />
            <Array as="points">
              <mxPoint x="-1609" y="-730" />
            </Array>
          </mxGeometry>
        </mxCell>
        <mxCell id="bpu4daQ8uGptTEx4mdCb-60" value="select menu" style="text;html=1;strokeColor=none;fillColor=none;align=center;verticalAlign=middle;whiteSpace=wrap;rounded=0;fontSize=13;" vertex="1" parent="1">
          <mxGeometry x="-1419" y="-748.95" width="90" height="10.5" as="geometry" />
        </mxCell>
        <mxCell id="bpu4daQ8uGptTEx4mdCb-61" value="select menu" style="text;html=1;strokeColor=none;fillColor=none;align=center;verticalAlign=middle;whiteSpace=wrap;rounded=0;fontSize=13;" vertex="1" parent="1">
          <mxGeometry x="-1190" y="-580.5" width="90" height="20.5" as="geometry" />
        </mxCell>
        <mxCell id="bpu4daQ8uGptTEx4mdCb-62" value="" style="group;fontSize=13;" vertex="1" connectable="0" parent="1">
          <mxGeometry x="-803" y="-531.5" width="140" height="30" as="geometry" />
        </mxCell>
        <mxCell id="bpu4daQ8uGptTEx4mdCb-63" value="send generating report" style="rounded=0;whiteSpace=wrap;html=1;fontSize=13;" vertex="1" parent="bpu4daQ8uGptTEx4mdCb-62">
          <mxGeometry width="115.86206896551725" height="30" as="geometry" />
        </mxCell>
        <mxCell id="bpu4daQ8uGptTEx4mdCb-64" value="" style="endArrow=none;html=1;rounded=0;entryX=1;entryY=0;entryDx=0;entryDy=0;fontSize=13;" edge="1" parent="bpu4daQ8uGptTEx4mdCb-62" target="bpu4daQ8uGptTEx4mdCb-63">
          <mxGeometry width="50" height="50" relative="1" as="geometry">
            <mxPoint x="140" y="15" as="sourcePoint" />
            <mxPoint x="62.758620689655174" y="-10" as="targetPoint" />
          </mxGeometry>
        </mxCell>
        <mxCell id="bpu4daQ8uGptTEx4mdCb-65" value="" style="endArrow=none;html=1;rounded=0;entryX=1;entryY=1;entryDx=0;entryDy=0;fontSize=13;" edge="1" parent="bpu4daQ8uGptTEx4mdCb-62" target="bpu4daQ8uGptTEx4mdCb-63">
          <mxGeometry width="50" height="50" relative="1" as="geometry">
            <mxPoint x="140" y="15" as="sourcePoint" />
            <mxPoint x="123.58620689655173" y="5" as="targetPoint" />
          </mxGeometry>
        </mxCell>
        <mxCell id="bpu4daQ8uGptTEx4mdCb-66" value="" style="endArrow=none;html=1;rounded=0;entryX=1;entryY=0;entryDx=0;entryDy=0;strokeColor=#ffffff;exitX=1;exitY=0.935;exitDx=0;exitDy=0;exitPerimeter=0;strokeWidth=2;fontSize=13;" edge="1" parent="bpu4daQ8uGptTEx4mdCb-62">
          <mxGeometry width="50" height="50" relative="1" as="geometry">
            <mxPoint x="115.86206896551725" y="29.05000000000001" as="sourcePoint" />
            <mxPoint x="115.86206896551725" y="0.5" as="targetPoint" />
          </mxGeometry>
        </mxCell>
        <mxCell id="bpu4daQ8uGptTEx4mdCb-67" value="enter period" style="html=1;whiteSpace=wrap;fontSize=13;" vertex="1" parent="1">
          <mxGeometry x="-802" y="-581.5" width="130" height="30" as="geometry" />
        </mxCell>
        <mxCell id="bpu4daQ8uGptTEx4mdCb-68" value="" style="html=1;verticalAlign=bottom;endArrow=block;edgeStyle=elbowEdgeStyle;elbow=vertical;curved=0;rounded=0;entryX=0.5;entryY=0;entryDx=0;entryDy=0;exitX=0.5;exitY=1;exitDx=0;exitDy=0;fontSize=13;" edge="1" parent="1" target="bpu4daQ8uGptTEx4mdCb-67">
          <mxGeometry x="-0.0024" width="80" relative="1" as="geometry">
            <mxPoint x="-737" y="-600.5" as="sourcePoint" />
            <mxPoint x="-727" y="-820.5" as="targetPoint" />
            <mxPoint as="offset" />
            <Array as="points" />
          </mxGeometry>
        </mxCell>
        <mxCell id="bpu4daQ8uGptTEx4mdCb-69" value="" style="html=1;verticalAlign=bottom;endArrow=block;edgeStyle=elbowEdgeStyle;elbow=vertical;curved=0;rounded=0;entryX=0.573;entryY=0.02;entryDx=0;entryDy=0;exitX=0.5;exitY=1;exitDx=0;exitDy=0;entryPerimeter=0;fontSize=13;" edge="1" parent="1" source="bpu4daQ8uGptTEx4mdCb-67" target="bpu4daQ8uGptTEx4mdCb-63">
          <mxGeometry x="-0.0024" width="80" relative="1" as="geometry">
            <mxPoint x="-727" y="-590.5" as="sourcePoint" />
            <mxPoint x="-727" y="-571.5" as="targetPoint" />
            <mxPoint as="offset" />
            <Array as="points">
              <mxPoint x="-742" y="-541.5" />
            </Array>
          </mxGeometry>
        </mxCell>
        <mxCell id="bpu4daQ8uGptTEx4mdCb-70" value="" style="group;fontSize=13;" vertex="1" connectable="0" parent="1">
          <mxGeometry x="-998" y="-630" width="155" height="284.5" as="geometry" />
        </mxCell>
        <mxCell id="bpu4daQ8uGptTEx4mdCb-71" value="choose remedy &lt;br style=&quot;font-size: 13px;&quot;&gt;method crud" style="html=1;whiteSpace=wrap;fontSize=13;" vertex="1" parent="bpu4daQ8uGptTEx4mdCb-70">
          <mxGeometry x="25" width="130" height="30" as="geometry" />
        </mxCell>
        <mxCell id="bpu4daQ8uGptTEx4mdCb-72" value="retrieve remedy method" style="html=1;whiteSpace=wrap;fontSize=13;" vertex="1" parent="bpu4daQ8uGptTEx4mdCb-70">
          <mxGeometry x="25" y="153.5" width="130" height="30" as="geometry" />
        </mxCell>
        <mxCell id="bpu4daQ8uGptTEx4mdCb-73" value="modify remedy method" style="html=1;whiteSpace=wrap;fontSize=13;" vertex="1" parent="bpu4daQ8uGptTEx4mdCb-70">
          <mxGeometry x="25" y="204.5" width="130" height="30" as="geometry" />
        </mxCell>
        <mxCell id="bpu4daQ8uGptTEx4mdCb-74" value="unregister remedy method" style="html=1;whiteSpace=wrap;fontSize=13;" vertex="1" parent="bpu4daQ8uGptTEx4mdCb-70">
          <mxGeometry x="25" y="254.5" width="130" height="30" as="geometry" />
        </mxCell>
        <mxCell id="bpu4daQ8uGptTEx4mdCb-75" value="" style="rhombus;whiteSpace=wrap;html=1;fontSize=13;" vertex="1" parent="bpu4daQ8uGptTEx4mdCb-70">
          <mxGeometry x="80" y="52.5" width="20" height="30" as="geometry" />
        </mxCell>
        <mxCell id="bpu4daQ8uGptTEx4mdCb-76" value="" style="html=1;verticalAlign=bottom;endArrow=block;edgeStyle=elbowEdgeStyle;elbow=vertical;curved=0;rounded=0;entryX=0.5;entryY=0;entryDx=0;entryDy=0;exitX=0.5;exitY=1;exitDx=0;exitDy=0;fontSize=13;" edge="1" parent="bpu4daQ8uGptTEx4mdCb-70" target="bpu4daQ8uGptTEx4mdCb-75">
          <mxGeometry x="-0.0024" width="80" relative="1" as="geometry">
            <mxPoint x="90" y="30" as="sourcePoint" />
            <mxPoint x="465" y="-48" as="targetPoint" />
            <mxPoint as="offset" />
            <Array as="points" />
          </mxGeometry>
        </mxCell>
        <mxCell id="bpu4daQ8uGptTEx4mdCb-77" value="" style="html=1;verticalAlign=bottom;endArrow=block;edgeStyle=elbowEdgeStyle;elbow=vertical;curved=0;rounded=0;entryX=0;entryY=0.75;entryDx=0;entryDy=0;exitX=0;exitY=0.5;exitDx=0;exitDy=0;fontSize=13;" edge="1" parent="bpu4daQ8uGptTEx4mdCb-70" source="bpu4daQ8uGptTEx4mdCb-75" target="bpu4daQ8uGptTEx4mdCb-72">
          <mxGeometry x="-0.0024" width="80" relative="1" as="geometry">
            <mxPoint x="100" y="40" as="sourcePoint" />
            <mxPoint x="100" y="63" as="targetPoint" />
            <mxPoint as="offset" />
            <Array as="points">
              <mxPoint x="5" y="92" />
              <mxPoint x="55" y="68" />
            </Array>
          </mxGeometry>
        </mxCell>
        <mxCell id="bpu4daQ8uGptTEx4mdCb-78" value="" style="html=1;verticalAlign=bottom;endArrow=block;edgeStyle=elbowEdgeStyle;elbow=vertical;curved=0;rounded=0;entryX=0;entryY=0.5;entryDx=0;entryDy=0;exitX=0;exitY=0.5;exitDx=0;exitDy=0;fontSize=13;" edge="1" parent="bpu4daQ8uGptTEx4mdCb-70" source="bpu4daQ8uGptTEx4mdCb-75" target="bpu4daQ8uGptTEx4mdCb-73">
          <mxGeometry x="-0.0024" width="80" relative="1" as="geometry">
            <mxPoint x="90" y="78" as="sourcePoint" />
            <mxPoint x="35" y="135" as="targetPoint" />
            <mxPoint as="offset" />
            <Array as="points">
              <mxPoint x="5" y="120" />
              <mxPoint x="65" y="78" />
            </Array>
          </mxGeometry>
        </mxCell>
        <mxCell id="bpu4daQ8uGptTEx4mdCb-79" value="" style="html=1;verticalAlign=bottom;endArrow=block;edgeStyle=elbowEdgeStyle;elbow=vertical;curved=0;rounded=0;entryX=0;entryY=0.5;entryDx=0;entryDy=0;exitX=0;exitY=0.5;exitDx=0;exitDy=0;fontSize=13;" edge="1" parent="bpu4daQ8uGptTEx4mdCb-70" source="bpu4daQ8uGptTEx4mdCb-75" target="bpu4daQ8uGptTEx4mdCb-74">
          <mxGeometry x="-0.0024" width="80" relative="1" as="geometry">
            <mxPoint x="90" y="78" as="sourcePoint" />
            <mxPoint x="35" y="179" as="targetPoint" />
            <mxPoint as="offset" />
            <Array as="points">
              <mxPoint x="5" y="150" />
              <mxPoint x="55" y="68" />
              <mxPoint x="75" y="88" />
            </Array>
          </mxGeometry>
        </mxCell>
        <mxCell id="bpu4daQ8uGptTEx4mdCb-80" value="select menu" style="text;html=1;strokeColor=none;fillColor=none;align=center;verticalAlign=middle;whiteSpace=wrap;rounded=0;fontSize=13;" vertex="1" parent="bpu4daQ8uGptTEx4mdCb-70">
          <mxGeometry y="49.5" width="90" height="20.5" as="geometry" />
        </mxCell>
        <mxCell id="bpu4daQ8uGptTEx4mdCb-81" value="register remedy method" style="html=1;whiteSpace=wrap;fontSize=13;" vertex="1" parent="bpu4daQ8uGptTEx4mdCb-70">
          <mxGeometry x="25" y="102.5" width="130" height="30" as="geometry" />
        </mxCell>
        <mxCell id="bpu4daQ8uGptTEx4mdCb-82" value="" style="html=1;verticalAlign=bottom;endArrow=block;edgeStyle=elbowEdgeStyle;elbow=vertical;curved=0;rounded=0;entryX=0;entryY=0.5;entryDx=0;entryDy=0;exitX=0;exitY=0.5;exitDx=0;exitDy=0;fontSize=13;" edge="1" parent="bpu4daQ8uGptTEx4mdCb-70" source="bpu4daQ8uGptTEx4mdCb-75" target="bpu4daQ8uGptTEx4mdCb-81">
          <mxGeometry x="-0.0024" width="80" relative="1" as="geometry">
            <mxPoint x="90" y="78" as="sourcePoint" />
            <mxPoint x="35" y="186" as="targetPoint" />
            <mxPoint as="offset" />
            <Array as="points">
              <mxPoint x="5" y="90" />
              <mxPoint x="50" y="68" />
              <mxPoint x="65" y="78" />
            </Array>
          </mxGeometry>
        </mxCell>
        <mxCell id="bpu4daQ8uGptTEx4mdCb-83" value="" style="group;fontSize=13;" vertex="1" connectable="0" parent="1">
          <mxGeometry x="-1185" y="-630" width="150" height="284.5" as="geometry" />
        </mxCell>
        <mxCell id="bpu4daQ8uGptTEx4mdCb-84" value="choose anomaly &lt;br style=&quot;font-size: 13px;&quot;&gt;type crud" style="html=1;whiteSpace=wrap;fontSize=13;" vertex="1" parent="bpu4daQ8uGptTEx4mdCb-83">
          <mxGeometry x="20" width="130" height="30" as="geometry" />
        </mxCell>
        <mxCell id="bpu4daQ8uGptTEx4mdCb-85" value="retrieve anomaly type" style="html=1;whiteSpace=wrap;fontSize=13;" vertex="1" parent="bpu4daQ8uGptTEx4mdCb-83">
          <mxGeometry x="20" y="153.5" width="130" height="30" as="geometry" />
        </mxCell>
        <mxCell id="bpu4daQ8uGptTEx4mdCb-86" value="modify anomaly type" style="html=1;whiteSpace=wrap;fontSize=13;" vertex="1" parent="bpu4daQ8uGptTEx4mdCb-83">
          <mxGeometry x="20" y="204.5" width="130" height="30" as="geometry" />
        </mxCell>
        <mxCell id="bpu4daQ8uGptTEx4mdCb-87" value="unregister anomaly type" style="html=1;whiteSpace=wrap;fontSize=13;" vertex="1" parent="bpu4daQ8uGptTEx4mdCb-83">
          <mxGeometry x="20" y="254.5" width="130" height="30" as="geometry" />
        </mxCell>
        <mxCell id="bpu4daQ8uGptTEx4mdCb-88" value="" style="rhombus;whiteSpace=wrap;html=1;fontSize=13;" vertex="1" parent="bpu4daQ8uGptTEx4mdCb-83">
          <mxGeometry x="75" y="52.5" width="20" height="30" as="geometry" />
        </mxCell>
        <mxCell id="bpu4daQ8uGptTEx4mdCb-89" value="" style="html=1;verticalAlign=bottom;endArrow=block;edgeStyle=elbowEdgeStyle;elbow=vertical;curved=0;rounded=0;entryX=0.5;entryY=0;entryDx=0;entryDy=0;exitX=0.5;exitY=1;exitDx=0;exitDy=0;fontSize=13;" edge="1" parent="bpu4daQ8uGptTEx4mdCb-83" target="bpu4daQ8uGptTEx4mdCb-88">
          <mxGeometry x="-0.0024" width="80" relative="1" as="geometry">
            <mxPoint x="85" y="30" as="sourcePoint" />
            <mxPoint x="460" y="-48" as="targetPoint" />
            <mxPoint as="offset" />
            <Array as="points" />
          </mxGeometry>
        </mxCell>
        <mxCell id="bpu4daQ8uGptTEx4mdCb-90" value="" style="html=1;verticalAlign=bottom;endArrow=block;edgeStyle=elbowEdgeStyle;elbow=vertical;curved=0;rounded=0;entryX=0;entryY=0.75;entryDx=0;entryDy=0;exitX=0;exitY=0.5;exitDx=0;exitDy=0;fontSize=13;" edge="1" parent="bpu4daQ8uGptTEx4mdCb-83" source="bpu4daQ8uGptTEx4mdCb-88" target="bpu4daQ8uGptTEx4mdCb-85">
          <mxGeometry x="-0.0024" width="80" relative="1" as="geometry">
            <mxPoint x="95" y="40" as="sourcePoint" />
            <mxPoint x="95" y="63" as="targetPoint" />
            <mxPoint as="offset" />
            <Array as="points">
              <mxPoint y="92" />
              <mxPoint x="50" y="68" />
            </Array>
          </mxGeometry>
        </mxCell>
        <mxCell id="bpu4daQ8uGptTEx4mdCb-91" value="" style="html=1;verticalAlign=bottom;endArrow=block;edgeStyle=elbowEdgeStyle;elbow=vertical;curved=0;rounded=0;entryX=0;entryY=0.5;entryDx=0;entryDy=0;exitX=0;exitY=0.5;exitDx=0;exitDy=0;fontSize=13;" edge="1" parent="bpu4daQ8uGptTEx4mdCb-83" source="bpu4daQ8uGptTEx4mdCb-88" target="bpu4daQ8uGptTEx4mdCb-86">
          <mxGeometry x="-0.0024" width="80" relative="1" as="geometry">
            <mxPoint x="85" y="78" as="sourcePoint" />
            <mxPoint x="30" y="135" as="targetPoint" />
            <mxPoint as="offset" />
            <Array as="points">
              <mxPoint y="120" />
              <mxPoint x="60" y="78" />
            </Array>
          </mxGeometry>
        </mxCell>
        <mxCell id="bpu4daQ8uGptTEx4mdCb-92" value="" style="html=1;verticalAlign=bottom;endArrow=block;edgeStyle=elbowEdgeStyle;elbow=vertical;curved=0;rounded=0;entryX=0;entryY=0.5;entryDx=0;entryDy=0;exitX=0;exitY=0.5;exitDx=0;exitDy=0;fontSize=13;" edge="1" parent="bpu4daQ8uGptTEx4mdCb-83" source="bpu4daQ8uGptTEx4mdCb-88" target="bpu4daQ8uGptTEx4mdCb-87">
          <mxGeometry x="-0.0024" width="80" relative="1" as="geometry">
            <mxPoint x="85" y="78" as="sourcePoint" />
            <mxPoint x="30" y="179" as="targetPoint" />
            <mxPoint as="offset" />
            <Array as="points">
              <mxPoint y="150" />
              <mxPoint x="50" y="68" />
              <mxPoint x="70" y="88" />
            </Array>
          </mxGeometry>
        </mxCell>
        <mxCell id="bpu4daQ8uGptTEx4mdCb-93" value="register anomaly type" style="html=1;whiteSpace=wrap;fontSize=13;" vertex="1" parent="bpu4daQ8uGptTEx4mdCb-83">
          <mxGeometry x="20" y="102.5" width="130" height="30" as="geometry" />
        </mxCell>
        <mxCell id="bpu4daQ8uGptTEx4mdCb-94" value="" style="html=1;verticalAlign=bottom;endArrow=block;edgeStyle=elbowEdgeStyle;elbow=vertical;curved=0;rounded=0;entryX=0;entryY=0.5;entryDx=0;entryDy=0;exitX=0;exitY=0.5;exitDx=0;exitDy=0;fontSize=13;" edge="1" parent="bpu4daQ8uGptTEx4mdCb-83" source="bpu4daQ8uGptTEx4mdCb-88" target="bpu4daQ8uGptTEx4mdCb-93">
          <mxGeometry x="-0.0024" width="80" relative="1" as="geometry">
            <mxPoint x="85" y="78" as="sourcePoint" />
            <mxPoint x="30" y="186" as="targetPoint" />
            <mxPoint as="offset" />
            <Array as="points">
              <mxPoint y="90" />
              <mxPoint x="45" y="68" />
              <mxPoint x="60" y="78" />
            </Array>
          </mxGeometry>
        </mxCell>
        <mxCell id="bpu4daQ8uGptTEx4mdCb-95" value="" style="group;fontSize=13;" vertex="1" connectable="0" parent="1">
          <mxGeometry x="-1380" y="-630" width="155" height="284.5" as="geometry" />
        </mxCell>
        <mxCell id="bpu4daQ8uGptTEx4mdCb-96" value="choose hw device &lt;br style=&quot;font-size: 13px;&quot;&gt;crud" style="html=1;whiteSpace=wrap;fontSize=13;" vertex="1" parent="bpu4daQ8uGptTEx4mdCb-95">
          <mxGeometry x="20" width="130" height="30" as="geometry" />
        </mxCell>
        <mxCell id="bpu4daQ8uGptTEx4mdCb-97" value="retrieve hw device" style="html=1;whiteSpace=wrap;fontSize=13;" vertex="1" parent="bpu4daQ8uGptTEx4mdCb-95">
          <mxGeometry x="25" y="153.5" width="130" height="30" as="geometry" />
        </mxCell>
        <mxCell id="bpu4daQ8uGptTEx4mdCb-98" value="modify hw device" style="html=1;whiteSpace=wrap;fontSize=13;" vertex="1" parent="bpu4daQ8uGptTEx4mdCb-95">
          <mxGeometry x="25" y="204.5" width="130" height="30" as="geometry" />
        </mxCell>
        <mxCell id="bpu4daQ8uGptTEx4mdCb-99" value="unregister hw device" style="html=1;whiteSpace=wrap;fontSize=13;" vertex="1" parent="bpu4daQ8uGptTEx4mdCb-95">
          <mxGeometry x="25" y="254.5" width="130" height="30" as="geometry" />
        </mxCell>
        <mxCell id="bpu4daQ8uGptTEx4mdCb-100" value="" style="rhombus;whiteSpace=wrap;html=1;fontSize=13;" vertex="1" parent="bpu4daQ8uGptTEx4mdCb-95">
          <mxGeometry x="80" y="52.5" width="20" height="30" as="geometry" />
        </mxCell>
        <mxCell id="bpu4daQ8uGptTEx4mdCb-101" value="" style="html=1;verticalAlign=bottom;endArrow=block;edgeStyle=elbowEdgeStyle;elbow=vertical;curved=0;rounded=0;entryX=0.5;entryY=0;entryDx=0;entryDy=0;exitX=0.5;exitY=1;exitDx=0;exitDy=0;fontSize=13;" edge="1" parent="bpu4daQ8uGptTEx4mdCb-95" target="bpu4daQ8uGptTEx4mdCb-100">
          <mxGeometry x="-0.0024" width="80" relative="1" as="geometry">
            <mxPoint x="90" y="30" as="sourcePoint" />
            <mxPoint x="465" y="-48" as="targetPoint" />
            <mxPoint as="offset" />
            <Array as="points" />
          </mxGeometry>
        </mxCell>
        <mxCell id="bpu4daQ8uGptTEx4mdCb-102" value="" style="html=1;verticalAlign=bottom;endArrow=block;edgeStyle=elbowEdgeStyle;elbow=vertical;curved=0;rounded=0;entryX=0;entryY=0.75;entryDx=0;entryDy=0;exitX=0;exitY=0.5;exitDx=0;exitDy=0;fontSize=13;" edge="1" parent="bpu4daQ8uGptTEx4mdCb-95" source="bpu4daQ8uGptTEx4mdCb-100" target="bpu4daQ8uGptTEx4mdCb-97">
          <mxGeometry x="-0.0024" width="80" relative="1" as="geometry">
            <mxPoint x="100" y="40" as="sourcePoint" />
            <mxPoint x="100" y="63" as="targetPoint" />
            <mxPoint as="offset" />
            <Array as="points">
              <mxPoint x="5" y="92" />
              <mxPoint x="55" y="68" />
            </Array>
          </mxGeometry>
        </mxCell>
        <mxCell id="bpu4daQ8uGptTEx4mdCb-103" value="" style="html=1;verticalAlign=bottom;endArrow=block;edgeStyle=elbowEdgeStyle;elbow=vertical;curved=0;rounded=0;entryX=0;entryY=0.5;entryDx=0;entryDy=0;exitX=0;exitY=0.5;exitDx=0;exitDy=0;fontSize=13;" edge="1" parent="bpu4daQ8uGptTEx4mdCb-95" source="bpu4daQ8uGptTEx4mdCb-100" target="bpu4daQ8uGptTEx4mdCb-98">
          <mxGeometry x="-0.0024" width="80" relative="1" as="geometry">
            <mxPoint x="90" y="78" as="sourcePoint" />
            <mxPoint x="35" y="135" as="targetPoint" />
            <mxPoint as="offset" />
            <Array as="points">
              <mxPoint x="5" y="120" />
              <mxPoint x="65" y="78" />
            </Array>
          </mxGeometry>
        </mxCell>
        <mxCell id="bpu4daQ8uGptTEx4mdCb-104" value="" style="html=1;verticalAlign=bottom;endArrow=block;edgeStyle=elbowEdgeStyle;elbow=vertical;curved=0;rounded=0;entryX=0;entryY=0.5;entryDx=0;entryDy=0;exitX=0;exitY=0.5;exitDx=0;exitDy=0;fontSize=13;" edge="1" parent="bpu4daQ8uGptTEx4mdCb-95" source="bpu4daQ8uGptTEx4mdCb-100" target="bpu4daQ8uGptTEx4mdCb-99">
          <mxGeometry x="-0.0024" width="80" relative="1" as="geometry">
            <mxPoint x="90" y="78" as="sourcePoint" />
            <mxPoint x="35" y="179" as="targetPoint" />
            <mxPoint as="offset" />
            <Array as="points">
              <mxPoint x="5" y="150" />
              <mxPoint x="55" y="68" />
              <mxPoint x="75" y="88" />
            </Array>
          </mxGeometry>
        </mxCell>
        <mxCell id="bpu4daQ8uGptTEx4mdCb-105" value="select menu" style="text;html=1;strokeColor=none;fillColor=none;align=center;verticalAlign=middle;whiteSpace=wrap;rounded=0;fontSize=13;" vertex="1" parent="bpu4daQ8uGptTEx4mdCb-95">
          <mxGeometry y="49.5" width="90" height="20.5" as="geometry" />
        </mxCell>
        <mxCell id="bpu4daQ8uGptTEx4mdCb-106" value="register hw device" style="html=1;whiteSpace=wrap;fontSize=13;" vertex="1" parent="bpu4daQ8uGptTEx4mdCb-95">
          <mxGeometry x="25" y="102.5" width="130" height="30" as="geometry" />
        </mxCell>
        <mxCell id="bpu4daQ8uGptTEx4mdCb-107" value="" style="html=1;verticalAlign=bottom;endArrow=block;edgeStyle=elbowEdgeStyle;elbow=vertical;curved=0;rounded=0;entryX=0;entryY=0.5;entryDx=0;entryDy=0;exitX=0;exitY=0.5;exitDx=0;exitDy=0;fontSize=13;" edge="1" parent="bpu4daQ8uGptTEx4mdCb-95" source="bpu4daQ8uGptTEx4mdCb-100" target="bpu4daQ8uGptTEx4mdCb-106">
          <mxGeometry x="-0.0024" width="80" relative="1" as="geometry">
            <mxPoint x="90" y="78" as="sourcePoint" />
            <mxPoint x="35" y="186" as="targetPoint" />
            <mxPoint as="offset" />
            <Array as="points">
              <mxPoint x="5" y="90" />
              <mxPoint x="50" y="68" />
              <mxPoint x="65" y="78" />
            </Array>
          </mxGeometry>
        </mxCell>
        <mxCell id="bpu4daQ8uGptTEx4mdCb-108" value="" style="group;fontSize=13;" vertex="1" connectable="0" parent="1">
          <mxGeometry x="-1574" y="-630" width="155" height="284.5" as="geometry" />
        </mxCell>
        <mxCell id="bpu4daQ8uGptTEx4mdCb-109" value="choose managed &lt;br style=&quot;font-size: 13px;&quot;&gt;object crud" style="html=1;whiteSpace=wrap;fontSize=13;" vertex="1" parent="bpu4daQ8uGptTEx4mdCb-108">
          <mxGeometry x="25" width="130" height="30" as="geometry" />
        </mxCell>
        <mxCell id="bpu4daQ8uGptTEx4mdCb-110" value="retrieve managed object" style="html=1;whiteSpace=wrap;fontSize=13;" vertex="1" parent="bpu4daQ8uGptTEx4mdCb-108">
          <mxGeometry x="25" y="153.5" width="130" height="30" as="geometry" />
        </mxCell>
        <mxCell id="bpu4daQ8uGptTEx4mdCb-111" value="modify managed object" style="html=1;whiteSpace=wrap;fontSize=13;" vertex="1" parent="bpu4daQ8uGptTEx4mdCb-108">
          <mxGeometry x="25" y="204.5" width="130" height="30" as="geometry" />
        </mxCell>
        <mxCell id="bpu4daQ8uGptTEx4mdCb-112" value="unregister managed object" style="html=1;whiteSpace=wrap;fontSize=13;" vertex="1" parent="bpu4daQ8uGptTEx4mdCb-108">
          <mxGeometry x="25" y="254.5" width="130" height="30" as="geometry" />
        </mxCell>
        <mxCell id="bpu4daQ8uGptTEx4mdCb-113" value="" style="rhombus;whiteSpace=wrap;html=1;fontSize=13;" vertex="1" parent="bpu4daQ8uGptTEx4mdCb-108">
          <mxGeometry x="80" y="52.5" width="20" height="30" as="geometry" />
        </mxCell>
        <mxCell id="bpu4daQ8uGptTEx4mdCb-114" value="" style="html=1;verticalAlign=bottom;endArrow=block;edgeStyle=elbowEdgeStyle;elbow=vertical;curved=0;rounded=0;entryX=0.5;entryY=0;entryDx=0;entryDy=0;exitX=0.5;exitY=1;exitDx=0;exitDy=0;fontSize=13;" edge="1" parent="bpu4daQ8uGptTEx4mdCb-108" target="bpu4daQ8uGptTEx4mdCb-113">
          <mxGeometry x="-0.0024" width="80" relative="1" as="geometry">
            <mxPoint x="90" y="30" as="sourcePoint" />
            <mxPoint x="465" y="-48" as="targetPoint" />
            <mxPoint as="offset" />
            <Array as="points" />
          </mxGeometry>
        </mxCell>
        <mxCell id="bpu4daQ8uGptTEx4mdCb-115" value="" style="html=1;verticalAlign=bottom;endArrow=block;edgeStyle=elbowEdgeStyle;elbow=vertical;curved=0;rounded=0;entryX=0;entryY=0.75;entryDx=0;entryDy=0;exitX=0;exitY=0.5;exitDx=0;exitDy=0;fontSize=13;" edge="1" parent="bpu4daQ8uGptTEx4mdCb-108" source="bpu4daQ8uGptTEx4mdCb-113" target="bpu4daQ8uGptTEx4mdCb-110">
          <mxGeometry x="-0.0024" width="80" relative="1" as="geometry">
            <mxPoint x="100" y="40" as="sourcePoint" />
            <mxPoint x="100" y="63" as="targetPoint" />
            <mxPoint as="offset" />
            <Array as="points">
              <mxPoint x="5" y="92" />
              <mxPoint x="55" y="68" />
            </Array>
          </mxGeometry>
        </mxCell>
        <mxCell id="bpu4daQ8uGptTEx4mdCb-116" value="" style="html=1;verticalAlign=bottom;endArrow=block;edgeStyle=elbowEdgeStyle;elbow=vertical;curved=0;rounded=0;entryX=0;entryY=0.5;entryDx=0;entryDy=0;exitX=0;exitY=0.5;exitDx=0;exitDy=0;fontSize=13;" edge="1" parent="bpu4daQ8uGptTEx4mdCb-108" source="bpu4daQ8uGptTEx4mdCb-113" target="bpu4daQ8uGptTEx4mdCb-111">
          <mxGeometry x="-0.0024" width="80" relative="1" as="geometry">
            <mxPoint x="90" y="78" as="sourcePoint" />
            <mxPoint x="35" y="135" as="targetPoint" />
            <mxPoint as="offset" />
            <Array as="points">
              <mxPoint x="5" y="120" />
              <mxPoint x="65" y="78" />
            </Array>
          </mxGeometry>
        </mxCell>
        <mxCell id="bpu4daQ8uGptTEx4mdCb-117" value="" style="html=1;verticalAlign=bottom;endArrow=block;edgeStyle=elbowEdgeStyle;elbow=vertical;curved=0;rounded=0;entryX=0;entryY=0.5;entryDx=0;entryDy=0;exitX=0;exitY=0.5;exitDx=0;exitDy=0;fontSize=13;" edge="1" parent="bpu4daQ8uGptTEx4mdCb-108" source="bpu4daQ8uGptTEx4mdCb-113" target="bpu4daQ8uGptTEx4mdCb-112">
          <mxGeometry x="-0.0024" width="80" relative="1" as="geometry">
            <mxPoint x="90" y="78" as="sourcePoint" />
            <mxPoint x="35" y="179" as="targetPoint" />
            <mxPoint as="offset" />
            <Array as="points">
              <mxPoint x="5" y="150" />
              <mxPoint x="55" y="68" />
              <mxPoint x="75" y="88" />
            </Array>
          </mxGeometry>
        </mxCell>
        <mxCell id="bpu4daQ8uGptTEx4mdCb-118" value="select menu" style="text;html=1;strokeColor=none;fillColor=none;align=center;verticalAlign=middle;whiteSpace=wrap;rounded=0;fontSize=13;" vertex="1" parent="bpu4daQ8uGptTEx4mdCb-108">
          <mxGeometry y="49.5" width="90" height="20.5" as="geometry" />
        </mxCell>
        <mxCell id="bpu4daQ8uGptTEx4mdCb-119" value="register managed object" style="html=1;whiteSpace=wrap;fontSize=13;" vertex="1" parent="bpu4daQ8uGptTEx4mdCb-108">
          <mxGeometry x="25" y="102.5" width="130" height="30" as="geometry" />
        </mxCell>
        <mxCell id="bpu4daQ8uGptTEx4mdCb-120" value="" style="html=1;verticalAlign=bottom;endArrow=block;edgeStyle=elbowEdgeStyle;elbow=vertical;curved=0;rounded=0;entryX=0;entryY=0.5;entryDx=0;entryDy=0;exitX=0;exitY=0.5;exitDx=0;exitDy=0;fontSize=13;" edge="1" parent="bpu4daQ8uGptTEx4mdCb-108" source="bpu4daQ8uGptTEx4mdCb-113" target="bpu4daQ8uGptTEx4mdCb-119">
          <mxGeometry x="-0.0024" width="80" relative="1" as="geometry">
            <mxPoint x="90" y="78" as="sourcePoint" />
            <mxPoint x="35" y="186" as="targetPoint" />
            <mxPoint as="offset" />
            <Array as="points">
              <mxPoint x="5" y="90" />
              <mxPoint x="50" y="68" />
              <mxPoint x="65" y="78" />
            </Array>
          </mxGeometry>
        </mxCell>
        <mxCell id="bpu4daQ8uGptTEx4mdCb-121" value="" style="endArrow=none;html=1;rounded=0;exitX=1;exitY=0.25;exitDx=0;exitDy=0;entryX=0.997;entryY=0.59;entryDx=0;entryDy=0;entryPerimeter=0;fontSize=13;" edge="1" parent="bpu4daQ8uGptTEx4mdCb-108" source="bpu4daQ8uGptTEx4mdCb-119" target="bpu4daQ8uGptTEx4mdCb-110">
          <mxGeometry width="50" height="50" relative="1" as="geometry">
            <mxPoint x="154" y="170" as="sourcePoint" />
            <mxPoint x="204" y="120" as="targetPoint" />
            <Array as="points">
              <mxPoint x="174" y="110" />
              <mxPoint x="174" y="171" />
            </Array>
          </mxGeometry>
        </mxCell>
        <mxCell id="bpu4daQ8uGptTEx4mdCb-122" value="" style="group;fontSize=13;" vertex="1" connectable="0" parent="1">
          <mxGeometry x="-1759" y="-630" width="150" height="233.5" as="geometry" />
        </mxCell>
        <mxCell id="bpu4daQ8uGptTEx4mdCb-123" value="view manager profile" style="html=1;whiteSpace=wrap;fontSize=13;" vertex="1" parent="bpu4daQ8uGptTEx4mdCb-122">
          <mxGeometry x="20" y="102.5" width="130" height="30" as="geometry" />
        </mxCell>
        <mxCell id="bpu4daQ8uGptTEx4mdCb-124" value="update manager profile" style="html=1;whiteSpace=wrap;fontSize=13;" vertex="1" parent="bpu4daQ8uGptTEx4mdCb-122">
          <mxGeometry x="20" y="153.5" width="130" height="30" as="geometry" />
        </mxCell>
        <mxCell id="bpu4daQ8uGptTEx4mdCb-125" value="delete manager profile" style="html=1;whiteSpace=wrap;fontSize=13;" vertex="1" parent="bpu4daQ8uGptTEx4mdCb-122">
          <mxGeometry x="20" y="203.5" width="130" height="30" as="geometry" />
        </mxCell>
        <mxCell id="bpu4daQ8uGptTEx4mdCb-126" value="choose manager crud" style="html=1;whiteSpace=wrap;fontSize=13;" vertex="1" parent="bpu4daQ8uGptTEx4mdCb-122">
          <mxGeometry x="20" width="130" height="30" as="geometry" />
        </mxCell>
        <mxCell id="bpu4daQ8uGptTEx4mdCb-127" value="" style="rhombus;whiteSpace=wrap;html=1;fontSize=13;" vertex="1" parent="bpu4daQ8uGptTEx4mdCb-122">
          <mxGeometry x="75" y="52.5" width="20" height="30" as="geometry" />
        </mxCell>
        <mxCell id="bpu4daQ8uGptTEx4mdCb-128" value="" style="html=1;verticalAlign=bottom;endArrow=block;edgeStyle=elbowEdgeStyle;elbow=vertical;curved=0;rounded=0;entryX=0.5;entryY=0;entryDx=0;entryDy=0;exitX=0.5;exitY=1;exitDx=0;exitDy=0;fontSize=13;" edge="1" parent="bpu4daQ8uGptTEx4mdCb-122" source="bpu4daQ8uGptTEx4mdCb-126" target="bpu4daQ8uGptTEx4mdCb-127">
          <mxGeometry x="-0.0024" width="80" relative="1" as="geometry">
            <mxPoint x="460" y="-68" as="sourcePoint" />
            <mxPoint x="460" y="-48" as="targetPoint" />
            <mxPoint as="offset" />
            <Array as="points" />
          </mxGeometry>
        </mxCell>
        <mxCell id="bpu4daQ8uGptTEx4mdCb-129" value="" style="html=1;verticalAlign=bottom;endArrow=block;edgeStyle=elbowEdgeStyle;elbow=vertical;curved=0;rounded=0;entryX=0;entryY=0.75;entryDx=0;entryDy=0;exitX=0;exitY=0.5;exitDx=0;exitDy=0;fontSize=13;" edge="1" parent="bpu4daQ8uGptTEx4mdCb-122" source="bpu4daQ8uGptTEx4mdCb-127" target="bpu4daQ8uGptTEx4mdCb-123">
          <mxGeometry x="-0.0024" width="80" relative="1" as="geometry">
            <mxPoint x="95" y="40" as="sourcePoint" />
            <mxPoint x="95" y="63" as="targetPoint" />
            <mxPoint as="offset" />
            <Array as="points">
              <mxPoint y="92" />
              <mxPoint x="50" y="68" />
            </Array>
          </mxGeometry>
        </mxCell>
        <mxCell id="bpu4daQ8uGptTEx4mdCb-130" value="" style="html=1;verticalAlign=bottom;endArrow=block;edgeStyle=elbowEdgeStyle;elbow=vertical;curved=0;rounded=0;entryX=0;entryY=0.5;entryDx=0;entryDy=0;exitX=0;exitY=0.5;exitDx=0;exitDy=0;fontSize=13;" edge="1" parent="bpu4daQ8uGptTEx4mdCb-122" source="bpu4daQ8uGptTEx4mdCb-127" target="bpu4daQ8uGptTEx4mdCb-124">
          <mxGeometry x="-0.0024" width="80" relative="1" as="geometry">
            <mxPoint x="85" y="78" as="sourcePoint" />
            <mxPoint x="30" y="135" as="targetPoint" />
            <mxPoint as="offset" />
            <Array as="points">
              <mxPoint y="120" />
              <mxPoint x="60" y="78" />
            </Array>
          </mxGeometry>
        </mxCell>
        <mxCell id="bpu4daQ8uGptTEx4mdCb-131" value="" style="html=1;verticalAlign=bottom;endArrow=block;edgeStyle=elbowEdgeStyle;elbow=vertical;curved=0;rounded=0;entryX=0;entryY=0.5;entryDx=0;entryDy=0;exitX=0;exitY=0.5;exitDx=0;exitDy=0;fontSize=13;" edge="1" parent="bpu4daQ8uGptTEx4mdCb-122" source="bpu4daQ8uGptTEx4mdCb-127" target="bpu4daQ8uGptTEx4mdCb-125">
          <mxGeometry x="-0.0024" width="80" relative="1" as="geometry">
            <mxPoint x="85" y="78" as="sourcePoint" />
            <mxPoint x="30" y="179" as="targetPoint" />
            <mxPoint as="offset" />
            <Array as="points">
              <mxPoint y="150" />
              <mxPoint x="50" y="68" />
              <mxPoint x="70" y="88" />
            </Array>
          </mxGeometry>
        </mxCell>
        <mxCell id="bpu4daQ8uGptTEx4mdCb-132" value="select menu" style="text;html=1;strokeColor=none;fillColor=none;align=center;verticalAlign=middle;whiteSpace=wrap;rounded=0;fontSize=13;" vertex="1" parent="bpu4daQ8uGptTEx4mdCb-122">
          <mxGeometry y="40" width="90" height="30" as="geometry" />
        </mxCell>
        <mxCell id="bpu4daQ8uGptTEx4mdCb-133" value="" style="html=1;verticalAlign=bottom;endArrow=none;edgeStyle=elbowEdgeStyle;elbow=vertical;curved=0;rounded=0;entryX=1;entryY=0.25;entryDx=0;entryDy=0;exitX=1;exitY=0.5;exitDx=0;exitDy=0;endFill=0;fontSize=13;" edge="1" parent="bpu4daQ8uGptTEx4mdCb-122" source="bpu4daQ8uGptTEx4mdCb-123" target="bpu4daQ8uGptTEx4mdCb-124">
          <mxGeometry x="-0.0024" width="80" relative="1" as="geometry">
            <mxPoint x="160" y="128" as="sourcePoint" />
            <mxPoint x="349" y="410" as="targetPoint" />
            <mxPoint as="offset" />
            <Array as="points">
              <mxPoint x="169" y="140" />
              <mxPoint x="70" y="88" />
              <mxPoint x="90" y="108" />
            </Array>
          </mxGeometry>
        </mxCell>
        <mxCell id="bpu4daQ8uGptTEx4mdCb-134" value="" style="html=1;verticalAlign=bottom;endArrow=none;edgeStyle=elbowEdgeStyle;elbow=vertical;curved=0;rounded=0;endFill=0;entryX=1;entryY=0.5;entryDx=0;entryDy=0;exitX=1;exitY=0.25;exitDx=0;exitDy=0;fontSize=13;" edge="1" parent="bpu4daQ8uGptTEx4mdCb-122" source="bpu4daQ8uGptTEx4mdCb-124" target="bpu4daQ8uGptTEx4mdCb-125">
          <mxGeometry x="-0.0024" width="80" relative="1" as="geometry">
            <mxPoint x="169" y="170" as="sourcePoint" />
            <mxPoint x="189" y="220" as="targetPoint" />
            <mxPoint as="offset" />
            <Array as="points">
              <mxPoint x="169" y="190" />
              <mxPoint x="80" y="98" />
              <mxPoint x="100" y="118" />
            </Array>
          </mxGeometry>
        </mxCell>
        <mxCell id="bpu4daQ8uGptTEx4mdCb-161" value="log out" style="html=1;whiteSpace=wrap;fontSize=13;" vertex="1" parent="1">
          <mxGeometry x="-2120" y="-630.5" width="130" height="30" as="geometry" />
        </mxCell>
        <mxCell id="bpu4daQ8uGptTEx4mdCb-162" value="" style="html=1;verticalAlign=bottom;endArrow=block;edgeStyle=elbowEdgeStyle;elbow=vertical;curved=0;rounded=0;exitX=0.5;exitY=1;exitDx=0;exitDy=0;entryX=0.5;entryY=0;entryDx=0;entryDy=0;fontSize=13;" edge="1" parent="1" source="bpu4daQ8uGptTEx4mdCb-56" target="bpu4daQ8uGptTEx4mdCb-161">
          <mxGeometry x="-0.0024" width="80" relative="1" as="geometry">
            <mxPoint x="-1419" y="-730" as="sourcePoint" />
            <mxPoint x="-1664" y="-620" as="targetPoint" />
            <mxPoint as="offset" />
            <Array as="points">
              <mxPoint x="-1740" y="-730" />
              <mxPoint x="-1629" y="-730" />
            </Array>
          </mxGeometry>
        </mxCell>
        <mxCell id="bpu4daQ8uGptTEx4mdCb-163" value="" style="html=1;verticalAlign=bottom;endArrow=block;edgeStyle=elbowEdgeStyle;elbow=vertical;curved=0;rounded=0;entryX=0.5;entryY=0;entryDx=0;entryDy=0;fontSize=13;" edge="1" parent="1" target="bpu4daQ8uGptTEx4mdCb-109">
          <mxGeometry x="-0.0024" width="80" relative="1" as="geometry">
            <mxPoint x="-1429" y="-740" as="sourcePoint" />
            <mxPoint x="-1664" y="-620" as="targetPoint" />
            <mxPoint as="offset" />
            <Array as="points">
              <mxPoint x="-1459" y="-730" />
            </Array>
          </mxGeometry>
        </mxCell>
        <mxCell id="bpu4daQ8uGptTEx4mdCb-164" value="" style="html=1;verticalAlign=bottom;endArrow=block;edgeStyle=elbowEdgeStyle;elbow=vertical;curved=0;rounded=0;entryX=0.5;entryY=0;entryDx=0;entryDy=0;exitX=0.5;exitY=1;exitDx=0;exitDy=0;fontSize=13;" edge="1" parent="1" source="bpu4daQ8uGptTEx4mdCb-56" target="bpu4daQ8uGptTEx4mdCb-96">
          <mxGeometry x="-0.0024" width="80" relative="1" as="geometry">
            <mxPoint x="-1419" y="-730" as="sourcePoint" />
            <mxPoint x="-1474" y="-620" as="targetPoint" />
            <mxPoint as="offset" />
            <Array as="points">
              <mxPoint x="-1369" y="-730" />
            </Array>
          </mxGeometry>
        </mxCell>
        <mxCell id="bpu4daQ8uGptTEx4mdCb-165" value="" style="html=1;verticalAlign=bottom;endArrow=block;edgeStyle=elbowEdgeStyle;elbow=vertical;curved=0;rounded=0;entryX=0.5;entryY=0;entryDx=0;entryDy=0;exitX=0.5;exitY=1;exitDx=0;exitDy=0;fontSize=13;" edge="1" parent="1" source="bpu4daQ8uGptTEx4mdCb-56" target="bpu4daQ8uGptTEx4mdCb-84">
          <mxGeometry x="-0.0024" width="80" relative="1" as="geometry">
            <mxPoint x="-1419" y="-730" as="sourcePoint" />
            <mxPoint x="-1309" y="-620" as="targetPoint" />
            <mxPoint as="offset" />
            <Array as="points">
              <mxPoint x="-1289" y="-730" />
            </Array>
          </mxGeometry>
        </mxCell>
        <mxCell id="bpu4daQ8uGptTEx4mdCb-166" value="" style="html=1;verticalAlign=bottom;endArrow=block;edgeStyle=elbowEdgeStyle;elbow=vertical;curved=0;rounded=0;fontSize=13;" edge="1" parent="1" target="bpu4daQ8uGptTEx4mdCb-71">
          <mxGeometry x="-0.0024" width="80" relative="1" as="geometry">
            <mxPoint x="-1429" y="-740" as="sourcePoint" />
            <mxPoint x="-1139" y="-620" as="targetPoint" />
            <mxPoint as="offset" />
            <Array as="points">
              <mxPoint x="-1189" y="-730" />
              <mxPoint x="-1199" y="-740" />
            </Array>
          </mxGeometry>
        </mxCell>
        <mxCell id="bpu4daQ8uGptTEx4mdCb-167" value="" style="html=1;verticalAlign=bottom;endArrow=block;edgeStyle=elbowEdgeStyle;elbow=vertical;curved=0;rounded=0;fontSize=13;" edge="1" parent="1" target="bpu4daQ8uGptTEx4mdCb-58">
          <mxGeometry x="-0.0024" width="80" relative="1" as="geometry">
            <mxPoint x="-1429" y="-740" as="sourcePoint" />
            <mxPoint x="-969" y="-620" as="targetPoint" />
            <mxPoint as="offset" />
            <Array as="points">
              <mxPoint x="-1189" y="-730" />
            </Array>
          </mxGeometry>
        </mxCell>
        <mxCell id="bpu4daQ8uGptTEx4mdCb-168" value="" style="rhombus;whiteSpace=wrap;html=1;fontSize=13;" vertex="1" parent="1">
          <mxGeometry x="-1430" y="-230" width="20" height="30" as="geometry" />
        </mxCell>
        <mxCell id="bpu4daQ8uGptTEx4mdCb-169" value="" style="html=1;verticalAlign=bottom;endArrow=block;edgeStyle=elbowEdgeStyle;elbow=vertical;curved=0;rounded=0;entryX=0.5;entryY=0;entryDx=0;entryDy=0;fontSize=13;" edge="1" parent="1" target="bpu4daQ8uGptTEx4mdCb-168">
          <mxGeometry x="-0.0024" width="80" relative="1" as="geometry">
            <mxPoint x="-1590" y="-420" as="sourcePoint" />
            <mxPoint x="-1729" y="-401" as="targetPoint" />
            <mxPoint as="offset" />
            <Array as="points">
              <mxPoint x="-1520" y="-300" />
              <mxPoint x="-1699" y="-552" />
              <mxPoint x="-1679" y="-532" />
            </Array>
          </mxGeometry>
        </mxCell>
        <mxCell id="bpu4daQ8uGptTEx4mdCb-170" value="" style="html=1;verticalAlign=bottom;endArrow=block;edgeStyle=elbowEdgeStyle;elbow=vertical;curved=0;rounded=0;fontSize=13;" edge="1" parent="1">
          <mxGeometry x="-0.0024" width="80" relative="1" as="geometry">
            <mxPoint x="-1400" y="-510" as="sourcePoint" />
            <mxPoint x="-1420" y="-230" as="targetPoint" />
            <mxPoint as="offset" />
            <Array as="points">
              <mxPoint x="-1410" y="-300" />
              <mxPoint x="-1689" y="-542" />
              <mxPoint x="-1669" y="-522" />
            </Array>
          </mxGeometry>
        </mxCell>
        <mxCell id="bpu4daQ8uGptTEx4mdCb-171" value="" style="html=1;verticalAlign=bottom;endArrow=block;edgeStyle=elbowEdgeStyle;elbow=vertical;curved=0;rounded=0;fontSize=13;" edge="1" parent="1">
          <mxGeometry x="-0.0024" width="80" relative="1" as="geometry">
            <mxPoint x="-1210" y="-510" as="sourcePoint" />
            <mxPoint x="-1420" y="-230" as="targetPoint" />
            <mxPoint as="offset" />
            <Array as="points">
              <mxPoint x="-1340" y="-300" />
              <mxPoint x="-1330" y="-300" />
              <mxPoint x="-1689" y="-542" />
              <mxPoint x="-1669" y="-522" />
            </Array>
          </mxGeometry>
        </mxCell>
        <mxCell id="bpu4daQ8uGptTEx4mdCb-172" value="" style="html=1;verticalAlign=bottom;endArrow=block;edgeStyle=elbowEdgeStyle;elbow=vertical;curved=0;rounded=0;fontSize=13;" edge="1" parent="1">
          <mxGeometry x="-0.0024" width="80" relative="1" as="geometry">
            <mxPoint x="-1020" y="-510" as="sourcePoint" />
            <mxPoint x="-1420" y="-230" as="targetPoint" />
            <mxPoint as="offset" />
            <Array as="points">
              <mxPoint x="-1220" y="-300" />
              <mxPoint x="-1679" y="-532" />
              <mxPoint x="-1659" y="-512" />
            </Array>
          </mxGeometry>
        </mxCell>
        <mxCell id="bpu4daQ8uGptTEx4mdCb-173" value="" style="html=1;verticalAlign=bottom;endArrow=block;edgeStyle=elbowEdgeStyle;elbow=vertical;curved=0;rounded=0;entryX=0.5;entryY=0;entryDx=0;entryDy=0;fontSize=13;" edge="1" parent="1" target="bpu4daQ8uGptTEx4mdCb-168">
          <mxGeometry x="-0.0024" width="80" relative="1" as="geometry">
            <mxPoint x="-830" y="-510" as="sourcePoint" />
            <mxPoint x="-1410" y="-220" as="targetPoint" />
            <mxPoint as="offset" />
            <Array as="points">
              <mxPoint x="-1130" y="-300" />
              <mxPoint x="-1669" y="-522" />
              <mxPoint x="-1649" y="-502" />
            </Array>
          </mxGeometry>
        </mxCell>
        <mxCell id="bpu4daQ8uGptTEx4mdCb-174" value="" style="html=1;verticalAlign=bottom;endArrow=block;edgeStyle=elbowEdgeStyle;elbow=vertical;curved=0;rounded=0;fontSize=13;" edge="1" parent="1" source="bpu4daQ8uGptTEx4mdCb-63">
          <mxGeometry x="-0.0024" width="80" relative="1" as="geometry">
            <mxPoint x="-833" y="-502" as="sourcePoint" />
            <mxPoint x="-1420" y="-230" as="targetPoint" />
            <mxPoint as="offset" />
            <Array as="points">
              <mxPoint x="-1080" y="-300" />
              <mxPoint x="-1659" y="-512" />
              <mxPoint x="-1639" y="-492" />
            </Array>
          </mxGeometry>
        </mxCell>
        <mxCell id="bpu4daQ8uGptTEx4mdCb-176" value="shut down?" style="text;html=1;strokeColor=none;fillColor=none;align=center;verticalAlign=middle;whiteSpace=wrap;rounded=0;fontSize=13;" vertex="1" parent="1">
          <mxGeometry x="-1499" y="-238" width="80" height="8" as="geometry" />
        </mxCell>
        <mxCell id="bpu4daQ8uGptTEx4mdCb-177" value="" style="endArrow=none;html=1;rounded=0;exitX=0.999;exitY=0.594;exitDx=0;exitDy=0;exitPerimeter=0;fontSize=13;" edge="1" parent="1" source="bpu4daQ8uGptTEx4mdCb-110">
          <mxGeometry width="50" height="50" relative="1" as="geometry">
            <mxPoint x="-1409" y="-510" as="sourcePoint" />
            <mxPoint x="-1419" y="-410" as="targetPoint" />
            <Array as="points">
              <mxPoint x="-1400" y="-459" />
              <mxPoint x="-1400" y="-410" />
            </Array>
          </mxGeometry>
        </mxCell>
        <mxCell id="bpu4daQ8uGptTEx4mdCb-178" value="" style="endArrow=none;html=1;rounded=0;fontSize=13;" edge="1" parent="1">
          <mxGeometry width="50" height="50" relative="1" as="geometry">
            <mxPoint x="-1400" y="-360" as="sourcePoint" />
            <mxPoint x="-1419" y="-360" as="targetPoint" />
            <Array as="points">
              <mxPoint x="-1409" y="-360" />
            </Array>
          </mxGeometry>
        </mxCell>
        <mxCell id="bpu4daQ8uGptTEx4mdCb-185" value="" style="endArrow=none;html=1;rounded=0;exitX=0.999;exitY=0.52;exitDx=0;exitDy=0;exitPerimeter=0;fontSize=13;" edge="1" parent="1" source="bpu4daQ8uGptTEx4mdCb-99">
          <mxGeometry width="50" height="50" relative="1" as="geometry">
            <mxPoint x="-1220" y="-360" as="sourcePoint" />
            <mxPoint x="-1210" y="-360" as="targetPoint" />
          </mxGeometry>
        </mxCell>
        <mxCell id="bpu4daQ8uGptTEx4mdCb-186" value="" style="endArrow=none;html=1;rounded=0;exitX=0.999;exitY=0.52;exitDx=0;exitDy=0;exitPerimeter=0;fontSize=13;" edge="1" parent="1">
          <mxGeometry width="50" height="50" relative="1" as="geometry">
            <mxPoint x="-1225" y="-410" as="sourcePoint" />
            <mxPoint x="-1210" y="-410" as="targetPoint" />
          </mxGeometry>
        </mxCell>
        <mxCell id="bpu4daQ8uGptTEx4mdCb-187" value="" style="endArrow=none;html=1;rounded=0;exitX=0.999;exitY=0.52;exitDx=0;exitDy=0;exitPerimeter=0;fontSize=13;" edge="1" parent="1">
          <mxGeometry width="50" height="50" relative="1" as="geometry">
            <mxPoint x="-1225" y="-460" as="sourcePoint" />
            <mxPoint x="-1210" y="-460" as="targetPoint" />
          </mxGeometry>
        </mxCell>
        <mxCell id="bpu4daQ8uGptTEx4mdCb-188" value="" style="endArrow=none;html=1;rounded=0;exitX=0.999;exitY=0.52;exitDx=0;exitDy=0;exitPerimeter=0;fontSize=13;" edge="1" parent="1">
          <mxGeometry width="50" height="50" relative="1" as="geometry">
            <mxPoint x="-1225" y="-510" as="sourcePoint" />
            <mxPoint x="-1210" y="-510" as="targetPoint" />
          </mxGeometry>
        </mxCell>
        <mxCell id="bpu4daQ8uGptTEx4mdCb-189" value="" style="html=1;verticalAlign=bottom;endArrow=block;edgeStyle=elbowEdgeStyle;elbow=vertical;curved=0;rounded=0;exitX=0;exitY=0.5;exitDx=0;exitDy=0;entryX=0;entryY=0.5;entryDx=0;entryDy=0;fontSize=13;" edge="1" parent="1" source="bpu4daQ8uGptTEx4mdCb-168" target="bpu4daQ8uGptTEx4mdCb-56">
          <mxGeometry x="-0.0024" width="80" relative="1" as="geometry">
            <mxPoint x="-1480" y="-190" as="sourcePoint" />
            <mxPoint x="-1440" y="-755" as="targetPoint" />
            <mxPoint as="offset" />
            <Array as="points">
              <mxPoint x="-2130" y="-490" />
              <mxPoint x="-1550" y="-760" />
              <mxPoint x="-1880" y="-690" />
              <mxPoint x="-1460" y="-755" />
            </Array>
          </mxGeometry>
        </mxCell>
        <mxCell id="bpu4daQ8uGptTEx4mdCb-190" value="" style="endArrow=none;html=1;rounded=0;entryX=1.003;entryY=0.58;entryDx=0;entryDy=0;entryPerimeter=0;fontSize=13;" edge="1" parent="1" target="bpu4daQ8uGptTEx4mdCb-93">
          <mxGeometry width="50" height="50" relative="1" as="geometry">
            <mxPoint x="-1020" y="-510" as="sourcePoint" />
            <mxPoint x="-1200" y="-500" as="targetPoint" />
            <Array as="points">
              <mxPoint x="-1030" y="-510" />
            </Array>
          </mxGeometry>
        </mxCell>
        <mxCell id="bpu4daQ8uGptTEx4mdCb-191" value="" style="endArrow=none;html=1;rounded=0;entryX=1.002;entryY=0.575;entryDx=0;entryDy=0;entryPerimeter=0;fontSize=13;" edge="1" parent="1" target="bpu4daQ8uGptTEx4mdCb-85">
          <mxGeometry width="50" height="50" relative="1" as="geometry">
            <mxPoint x="-1020" y="-459" as="sourcePoint" />
            <mxPoint x="-1030" y="-459" as="targetPoint" />
          </mxGeometry>
        </mxCell>
        <mxCell id="bpu4daQ8uGptTEx4mdCb-192" value="" style="endArrow=none;html=1;rounded=0;entryX=1.002;entryY=0.575;entryDx=0;entryDy=0;entryPerimeter=0;fontSize=13;" edge="1" parent="1">
          <mxGeometry width="50" height="50" relative="1" as="geometry">
            <mxPoint x="-1020" y="-410" as="sourcePoint" />
            <mxPoint x="-1035" y="-410" as="targetPoint" />
          </mxGeometry>
        </mxCell>
        <mxCell id="bpu4daQ8uGptTEx4mdCb-193" value="" style="endArrow=none;html=1;rounded=0;entryX=1.002;entryY=0.575;entryDx=0;entryDy=0;entryPerimeter=0;fontSize=13;" edge="1" parent="1">
          <mxGeometry width="50" height="50" relative="1" as="geometry">
            <mxPoint x="-1020" y="-360" as="sourcePoint" />
            <mxPoint x="-1035" y="-360" as="targetPoint" />
          </mxGeometry>
        </mxCell>
        <mxCell id="bpu4daQ8uGptTEx4mdCb-194" value="" style="endArrow=none;html=1;rounded=0;exitX=1;exitY=0.581;exitDx=0;exitDy=0;exitPerimeter=0;fontSize=13;" edge="1" parent="1" source="bpu4daQ8uGptTEx4mdCb-81">
          <mxGeometry width="50" height="50" relative="1" as="geometry">
            <mxPoint x="-840" y="-510" as="sourcePoint" />
            <mxPoint x="-830" y="-510" as="targetPoint" />
          </mxGeometry>
        </mxCell>
        <mxCell id="bpu4daQ8uGptTEx4mdCb-195" value="" style="endArrow=none;html=1;rounded=0;exitX=1;exitY=0.581;exitDx=0;exitDy=0;exitPerimeter=0;fontSize=13;" edge="1" parent="1">
          <mxGeometry width="50" height="50" relative="1" as="geometry">
            <mxPoint x="-843" y="-460" as="sourcePoint" />
            <mxPoint x="-830" y="-460" as="targetPoint" />
          </mxGeometry>
        </mxCell>
        <mxCell id="bpu4daQ8uGptTEx4mdCb-196" value="" style="endArrow=none;html=1;rounded=0;exitX=1;exitY=0.581;exitDx=0;exitDy=0;exitPerimeter=0;fontSize=13;" edge="1" parent="1">
          <mxGeometry width="50" height="50" relative="1" as="geometry">
            <mxPoint x="-843" y="-410" as="sourcePoint" />
            <mxPoint x="-830" y="-410" as="targetPoint" />
          </mxGeometry>
        </mxCell>
        <mxCell id="bpu4daQ8uGptTEx4mdCb-197" value="" style="endArrow=none;html=1;rounded=0;exitX=1;exitY=0.581;exitDx=0;exitDy=0;exitPerimeter=0;fontSize=13;" edge="1" parent="1">
          <mxGeometry width="50" height="50" relative="1" as="geometry">
            <mxPoint x="-843" y="-360" as="sourcePoint" />
            <mxPoint x="-830" y="-360" as="targetPoint" />
          </mxGeometry>
        </mxCell>
        <mxCell id="bpu4daQ8uGptTEx4mdCb-208" value="" style="html=1;verticalAlign=bottom;endArrow=block;edgeStyle=elbowEdgeStyle;elbow=vertical;curved=0;rounded=0;exitX=0.5;exitY=1;exitDx=0;exitDy=0;fontSize=13;" edge="1" parent="1" source="bpu4daQ8uGptTEx4mdCb-56">
          <mxGeometry x="-0.0024" width="80" relative="1" as="geometry">
            <mxPoint x="-1419" y="-730" as="sourcePoint" />
            <mxPoint x="-570" y="-630" as="targetPoint" />
            <mxPoint as="offset" />
            <Array as="points">
              <mxPoint x="-980" y="-730" />
            </Array>
          </mxGeometry>
        </mxCell>
        <mxCell id="bpu4daQ8uGptTEx4mdCb-209" value="" style="html=1;verticalAlign=bottom;endArrow=block;edgeStyle=elbowEdgeStyle;elbow=vertical;curved=0;rounded=0;entryX=0.5;entryY=0;entryDx=0;entryDy=0;fontSize=13;" edge="1" parent="1" target="bpu4daQ8uGptTEx4mdCb-168">
          <mxGeometry x="-0.0024" width="80" relative="1" as="geometry">
            <mxPoint x="-490" y="-570" as="sourcePoint" />
            <mxPoint x="-1410" y="-220" as="targetPoint" />
            <mxPoint as="offset" />
            <Array as="points">
              <mxPoint x="-970" y="-300" />
              <mxPoint x="-1649" y="-502" />
              <mxPoint x="-1629" y="-482" />
            </Array>
          </mxGeometry>
        </mxCell>
        <mxCell id="bpu4daQ8uGptTEx4mdCb-432" value="" style="html=1;verticalAlign=bottom;endArrow=block;edgeStyle=elbowEdgeStyle;elbow=vertical;curved=0;rounded=0;entryX=0.5;entryY=0;entryDx=0;entryDy=0;fontSize=13;exitX=0.162;exitY=0.569;exitDx=0;exitDy=0;exitPerimeter=0;" edge="1" parent="1" source="bpu4daQ8uGptTEx4mdCb-1" target="bpu4daQ8uGptTEx4mdCb-53">
          <mxGeometry x="-0.0024" width="80" relative="1" as="geometry">
            <mxPoint x="-1419" y="-780" as="sourcePoint" />
            <mxPoint x="-1419" y="-760" as="targetPoint" />
            <mxPoint as="offset" />
            <Array as="points">
              <mxPoint x="-1430" y="-866" />
            </Array>
          </mxGeometry>
        </mxCell>
        <mxCell id="bpu4daQ8uGptTEx4mdCb-433" value="" style="group;fontSize=13;" vertex="1" connectable="0" parent="1">
          <mxGeometry x="-1960" y="-630" width="150" height="233.5" as="geometry" />
        </mxCell>
        <mxCell id="bpu4daQ8uGptTEx4mdCb-434" value="view worker profile" style="html=1;whiteSpace=wrap;fontSize=13;" vertex="1" parent="bpu4daQ8uGptTEx4mdCb-433">
          <mxGeometry x="20" y="150" width="130" height="30" as="geometry" />
        </mxCell>
        <mxCell id="bpu4daQ8uGptTEx4mdCb-435" value="update worker&lt;br&gt;profile" style="html=1;whiteSpace=wrap;fontSize=13;" vertex="1" parent="bpu4daQ8uGptTEx4mdCb-433">
          <mxGeometry x="20" y="201" width="130" height="30" as="geometry" />
        </mxCell>
        <mxCell id="bpu4daQ8uGptTEx4mdCb-436" value="delete worker profile" style="html=1;whiteSpace=wrap;fontSize=13;" vertex="1" parent="bpu4daQ8uGptTEx4mdCb-433">
          <mxGeometry x="20" y="251" width="130" height="30" as="geometry" />
        </mxCell>
        <mxCell id="bpu4daQ8uGptTEx4mdCb-437" value="choose worker crud" style="html=1;whiteSpace=wrap;fontSize=13;" vertex="1" parent="bpu4daQ8uGptTEx4mdCb-433">
          <mxGeometry x="20" width="130" height="30" as="geometry" />
        </mxCell>
        <mxCell id="bpu4daQ8uGptTEx4mdCb-438" value="" style="rhombus;whiteSpace=wrap;html=1;fontSize=13;" vertex="1" parent="bpu4daQ8uGptTEx4mdCb-433">
          <mxGeometry x="75" y="52.5" width="20" height="30" as="geometry" />
        </mxCell>
        <mxCell id="bpu4daQ8uGptTEx4mdCb-439" value="" style="html=1;verticalAlign=bottom;endArrow=block;edgeStyle=elbowEdgeStyle;elbow=vertical;curved=0;rounded=0;entryX=0.5;entryY=0;entryDx=0;entryDy=0;exitX=0.5;exitY=1;exitDx=0;exitDy=0;fontSize=13;" edge="1" parent="bpu4daQ8uGptTEx4mdCb-433" source="bpu4daQ8uGptTEx4mdCb-437" target="bpu4daQ8uGptTEx4mdCb-438">
          <mxGeometry x="-0.0024" width="80" relative="1" as="geometry">
            <mxPoint x="460" y="-68" as="sourcePoint" />
            <mxPoint x="460" y="-48" as="targetPoint" />
            <mxPoint as="offset" />
            <Array as="points" />
          </mxGeometry>
        </mxCell>
        <mxCell id="bpu4daQ8uGptTEx4mdCb-440" value="" style="html=1;verticalAlign=bottom;endArrow=block;edgeStyle=elbowEdgeStyle;elbow=vertical;curved=0;rounded=0;entryX=0;entryY=0.75;entryDx=0;entryDy=0;exitX=0;exitY=0.5;exitDx=0;exitDy=0;fontSize=13;" edge="1" parent="bpu4daQ8uGptTEx4mdCb-433" source="bpu4daQ8uGptTEx4mdCb-438" target="bpu4daQ8uGptTEx4mdCb-434">
          <mxGeometry x="-0.0024" width="80" relative="1" as="geometry">
            <mxPoint x="95" y="40" as="sourcePoint" />
            <mxPoint x="95" y="63" as="targetPoint" />
            <mxPoint as="offset" />
            <Array as="points">
              <mxPoint y="92" />
              <mxPoint x="50" y="68" />
            </Array>
          </mxGeometry>
        </mxCell>
        <mxCell id="bpu4daQ8uGptTEx4mdCb-441" value="" style="html=1;verticalAlign=bottom;endArrow=block;edgeStyle=elbowEdgeStyle;elbow=vertical;curved=0;rounded=0;entryX=0;entryY=0.5;entryDx=0;entryDy=0;exitX=0;exitY=0.5;exitDx=0;exitDy=0;fontSize=13;" edge="1" parent="bpu4daQ8uGptTEx4mdCb-433" source="bpu4daQ8uGptTEx4mdCb-438" target="bpu4daQ8uGptTEx4mdCb-435">
          <mxGeometry x="-0.0024" width="80" relative="1" as="geometry">
            <mxPoint x="85" y="78" as="sourcePoint" />
            <mxPoint x="30" y="135" as="targetPoint" />
            <mxPoint as="offset" />
            <Array as="points">
              <mxPoint y="120" />
              <mxPoint x="60" y="78" />
            </Array>
          </mxGeometry>
        </mxCell>
        <mxCell id="bpu4daQ8uGptTEx4mdCb-442" value="" style="html=1;verticalAlign=bottom;endArrow=block;edgeStyle=elbowEdgeStyle;elbow=vertical;curved=0;rounded=0;entryX=0;entryY=0.5;entryDx=0;entryDy=0;exitX=0;exitY=0.5;exitDx=0;exitDy=0;fontSize=13;" edge="1" parent="bpu4daQ8uGptTEx4mdCb-433" source="bpu4daQ8uGptTEx4mdCb-438" target="bpu4daQ8uGptTEx4mdCb-436">
          <mxGeometry x="-0.0024" width="80" relative="1" as="geometry">
            <mxPoint x="85" y="78" as="sourcePoint" />
            <mxPoint x="30" y="179" as="targetPoint" />
            <mxPoint as="offset" />
            <Array as="points">
              <mxPoint y="150" />
              <mxPoint x="50" y="68" />
              <mxPoint x="70" y="88" />
            </Array>
          </mxGeometry>
        </mxCell>
        <mxCell id="bpu4daQ8uGptTEx4mdCb-443" value="select menu" style="text;html=1;strokeColor=none;fillColor=none;align=center;verticalAlign=middle;whiteSpace=wrap;rounded=0;fontSize=13;" vertex="1" parent="bpu4daQ8uGptTEx4mdCb-433">
          <mxGeometry x="-10" y="40" width="90" height="30" as="geometry" />
        </mxCell>
        <mxCell id="bpu4daQ8uGptTEx4mdCb-444" value="" style="html=1;verticalAlign=bottom;endArrow=none;edgeStyle=elbowEdgeStyle;elbow=vertical;curved=0;rounded=0;entryX=1;entryY=0.25;entryDx=0;entryDy=0;exitX=1;exitY=0.5;exitDx=0;exitDy=0;endFill=0;fontSize=13;" edge="1" parent="bpu4daQ8uGptTEx4mdCb-433" source="bpu4daQ8uGptTEx4mdCb-434" target="bpu4daQ8uGptTEx4mdCb-435">
          <mxGeometry x="-0.0024" width="80" relative="1" as="geometry">
            <mxPoint x="160" y="175.5" as="sourcePoint" />
            <mxPoint x="349" y="457.5" as="targetPoint" />
            <mxPoint as="offset" />
            <Array as="points">
              <mxPoint x="169" y="187.5" />
              <mxPoint x="70" y="135.5" />
              <mxPoint x="90" y="155.5" />
            </Array>
          </mxGeometry>
        </mxCell>
        <mxCell id="bpu4daQ8uGptTEx4mdCb-445" value="" style="html=1;verticalAlign=bottom;endArrow=none;edgeStyle=elbowEdgeStyle;elbow=vertical;curved=0;rounded=0;endFill=0;entryX=1;entryY=0.5;entryDx=0;entryDy=0;exitX=1;exitY=0.25;exitDx=0;exitDy=0;fontSize=13;" edge="1" parent="bpu4daQ8uGptTEx4mdCb-433" source="bpu4daQ8uGptTEx4mdCb-435" target="bpu4daQ8uGptTEx4mdCb-436">
          <mxGeometry x="-0.0024" width="80" relative="1" as="geometry">
            <mxPoint x="169" y="217.5" as="sourcePoint" />
            <mxPoint x="189" y="267.5" as="targetPoint" />
            <mxPoint as="offset" />
            <Array as="points">
              <mxPoint x="169" y="237.5" />
              <mxPoint x="80" y="145.5" />
              <mxPoint x="100" y="165.5" />
            </Array>
          </mxGeometry>
        </mxCell>
        <mxCell id="bpu4daQ8uGptTEx4mdCb-446" value="register worker profile" style="html=1;whiteSpace=wrap;fontSize=13;" vertex="1" parent="bpu4daQ8uGptTEx4mdCb-433">
          <mxGeometry x="20" y="100" width="130" height="30" as="geometry" />
        </mxCell>
        <mxCell id="bpu4daQ8uGptTEx4mdCb-449" value="" style="html=1;verticalAlign=bottom;endArrow=block;edgeStyle=elbowEdgeStyle;elbow=vertical;curved=0;rounded=0;fontSize=13;" edge="1" parent="1" target="bpu4daQ8uGptTEx4mdCb-446">
          <mxGeometry x="-0.0024" width="80" relative="1" as="geometry">
            <mxPoint x="-1960" y="-520" as="sourcePoint" />
            <mxPoint x="-1865" y="-567" as="targetPoint" />
            <mxPoint as="offset" />
            <Array as="points">
              <mxPoint x="-1940" y="-515" />
              <mxPoint x="-1950" y="-520" />
            </Array>
          </mxGeometry>
        </mxCell>
        <mxCell id="bpu4daQ8uGptTEx4mdCb-451" value="" style="html=1;verticalAlign=bottom;endArrow=block;edgeStyle=elbowEdgeStyle;elbow=vertical;curved=0;rounded=0;exitX=0;exitY=0.5;exitDx=0;exitDy=0;entryX=0;entryY=0.75;entryDx=0;entryDy=0;fontSize=13;" edge="1" parent="1" source="bpu4daQ8uGptTEx4mdCb-161" target="bpu4daQ8uGptTEx4mdCb-416">
          <mxGeometry x="-0.0024" width="80" relative="1" as="geometry">
            <mxPoint x="-2211" y="-748.95" as="sourcePoint" />
            <mxPoint x="-2220" y="-1288.95" as="targetPoint" />
            <mxPoint as="offset" />
            <Array as="points">
              <mxPoint x="-2160" y="-850" />
              <mxPoint x="-2911" y="-1023.95" />
              <mxPoint x="-2331" y="-1293.95" />
              <mxPoint x="-2661" y="-1223.95" />
              <mxPoint x="-2241" y="-1288.95" />
            </Array>
          </mxGeometry>
        </mxCell>
        <mxCell id="bpu4daQ8uGptTEx4mdCb-452" value="" style="rhombus;whiteSpace=wrap;html=1;fontSize=13;" vertex="1" parent="1">
          <mxGeometry x="-579.27" y="-628.6" width="20" height="30" as="geometry" />
        </mxCell>
        <mxCell id="bpu4daQ8uGptTEx4mdCb-453" value="perform detection?" style="text;html=1;strokeColor=none;fillColor=none;align=center;verticalAlign=middle;whiteSpace=wrap;rounded=0;fontSize=13;" vertex="1" parent="1">
          <mxGeometry x="-656" y="-640.95" width="90" height="20.5" as="geometry" />
        </mxCell>
        <mxCell id="bpu4daQ8uGptTEx4mdCb-454" value="set anomaly flag 1" style="html=1;whiteSpace=wrap;fontSize=13;" vertex="1" parent="1">
          <mxGeometry x="-636.27" y="-581.5" width="130" height="30" as="geometry" />
        </mxCell>
        <mxCell id="bpu4daQ8uGptTEx4mdCb-455" value="set anomaly flag 0" style="html=1;whiteSpace=wrap;fontSize=13;" vertex="1" parent="1">
          <mxGeometry x="-634.27" y="-531.5" width="130" height="30" as="geometry" />
        </mxCell>
        <mxCell id="bpu4daQ8uGptTEx4mdCb-456" value="" style="html=1;verticalAlign=bottom;endArrow=block;edgeStyle=elbowEdgeStyle;elbow=vertical;curved=0;rounded=0;entryX=0.515;entryY=0.015;entryDx=0;entryDy=0;exitX=0.5;exitY=1;exitDx=0;exitDy=0;fontSize=13;entryPerimeter=0;" edge="1" parent="1" source="bpu4daQ8uGptTEx4mdCb-452" target="bpu4daQ8uGptTEx4mdCb-454">
          <mxGeometry x="-0.0024" width="80" relative="1" as="geometry">
            <mxPoint x="-727" y="-541" as="sourcePoint" />
            <mxPoint x="-727" y="-521" as="targetPoint" />
            <mxPoint as="offset" />
            <Array as="points">
              <mxPoint x="-630" y="-590" />
            </Array>
          </mxGeometry>
        </mxCell>
        <mxCell id="bpu4daQ8uGptTEx4mdCb-459" value="" style="html=1;verticalAlign=bottom;endArrow=block;edgeStyle=elbowEdgeStyle;elbow=vertical;curved=0;rounded=0;fontSize=13;exitX=0;exitY=0.5;exitDx=0;exitDy=0;entryX=0;entryY=0.5;entryDx=0;entryDy=0;" edge="1" parent="1" source="bpu4daQ8uGptTEx4mdCb-452" target="bpu4daQ8uGptTEx4mdCb-455">
          <mxGeometry x="-0.0024" width="80" relative="1" as="geometry">
            <mxPoint x="-570" y="-550" as="sourcePoint" />
            <mxPoint x="-559" y="-571" as="targetPoint" />
            <mxPoint as="offset" />
            <Array as="points">
              <mxPoint x="-650" y="-590" />
              <mxPoint x="-530" y="-614" />
            </Array>
          </mxGeometry>
        </mxCell>
        <mxCell id="bpu4daQ8uGptTEx4mdCb-460" value="" style="endArrow=none;html=1;rounded=0;exitX=1;exitY=0.387;exitDx=0;exitDy=0;fontSize=13;exitPerimeter=0;" edge="1" parent="1" source="bpu4daQ8uGptTEx4mdCb-454">
          <mxGeometry width="50" height="50" relative="1" as="geometry">
            <mxPoint x="-833" y="-500" as="sourcePoint" />
            <mxPoint x="-490" y="-570" as="targetPoint" />
          </mxGeometry>
        </mxCell>
        <mxCell id="bpu4daQ8uGptTEx4mdCb-461" value="" style="endArrow=none;html=1;rounded=0;exitX=1.001;exitY=0.382;exitDx=0;exitDy=0;fontSize=13;exitPerimeter=0;" edge="1" parent="1" source="bpu4daQ8uGptTEx4mdCb-455">
          <mxGeometry width="50" height="50" relative="1" as="geometry">
            <mxPoint x="-496" y="-560" as="sourcePoint" />
            <mxPoint x="-490" y="-520" as="targetPoint" />
          </mxGeometry>
        </mxCell>
      </root>
    </mxGraphModel>
  </diagram>
</mxfile>
